<svg xmlns="http://www.w3.org/2000/svg" width="179.475" height="179.475" viewBox="0 0 179.475 179.475">
  <g id="Group_136" data-name="Group 136" transform="translate(35.496 36.243)">
    <g id="Group_164" data-name="Group 164">
      <ellipse id="Ellipse_30" data-name="Ellipse 30" cx="4.256" cy="4.256" rx="4.256" ry="4.256" transform="translate(70.436 25.961)" fill="#fff"/>
      <path id="Path_585" data-name="Path 585" d="M354.238,331a4.256,4.256,0,0,0-4.256,4.256c0,3.9-9.091,10.623-29.3,13.377a4.256,4.256,0,1,0,1.149,8.434c10.058-1.37,18.741-3.859,25.11-7.2,9.55-5,11.555-10.71,11.555-14.615A4.256,4.256,0,0,0,354.238,331Z" transform="translate(-249.541 -260.565)" fill="#fff"/>
      <path id="Path_586" data-name="Path 586" d="M81.345,72.352h53.322a13.362,13.362,0,0,0,9.4-3.8,13.029,13.029,0,0,0,3.943-9.392,4.256,4.256,0,0,0-8.512,0,4.708,4.708,0,0,1-4.833,4.682H81.345a4.832,4.832,0,0,1-4.833-4.821V24.226a4.692,4.692,0,0,1,4.833-4.647h.024A10.435,10.435,0,0,0,91.034,12.6l1.049-2.9a1.808,1.808,0,0,1,1.7-1.187h19.355a1.8,1.8,0,0,1,1.708,1.218l.917,2.689a10.4,10.4,0,0,0,9.764,7.158h9.144a4.692,4.692,0,0,1,4.833,4.647V37.879a4.256,4.256,0,0,0,8.512,0V24.226a12.977,12.977,0,0,0-3.951-9.383,13.387,13.387,0,0,0-9.394-3.776h-9.144a1.983,1.983,0,0,1-1.708-1.392L122.9,6.985A10.312,10.312,0,0,0,113.134,0H93.779a10.343,10.343,0,0,0-9.7,6.8l-1.049,2.9a1.991,1.991,0,0,1-1.7,1.361h-.016a13.387,13.387,0,0,0-9.365,3.776A12.977,12.977,0,0,0,68,24.226V59.02A13.354,13.354,0,0,0,81.345,72.352Z" transform="translate(-53.53 -0.001)" fill="#fff"/>
      <path id="Path_587" data-name="Path 587" d="M48.3,339.446a4.256,4.256,0,0,0-5.945,6.092l4.039,3.941c-9.822-.607-18.832-2.318-25.941-4.969-8.813-3.286-11.94-7.039-11.94-9.254a4.256,4.256,0,1,0-8.512,0c0,2.615.935,6.556,5.388,10.481a38.753,38.753,0,0,0,12.09,6.748c8.06,3.006,18.214,4.917,29.175,5.534l-4.3,4.2a4.256,4.256,0,1,0,5.944,6.092l7.742-7.554a9.59,9.59,0,0,0,0-13.752Z" transform="translate(0 -260.565)" fill="#fff"/>
      <path id="Path_588" data-name="Path 588" d="M165.024,111a17.024,17.024,0,1,0,17.024,17.024A17.043,17.043,0,0,0,165.024,111Zm0,25.536a8.512,8.512,0,1,1,8.512-8.512A8.522,8.522,0,0,1,165.024,136.537Z" transform="translate(-116.506 -87.38)" fill="#fff"/>
    </g>
    <g id="Ellipse_15" data-name="Ellipse 15" transform="translate(-35.496 -36.243)" fill="none" stroke="#fff" stroke-width="8">
      <circle cx="89.738" cy="89.738" r="89.738" stroke="none"/>
      <circle cx="89.738" cy="89.738" r="85.738" fill="none"/>
    </g>
  </g>
</svg>
