<svg xmlns="http://www.w3.org/2000/svg" width="259.835" height="259.847" viewBox="0 0 259.835 259.847">
  <path id="Path_490" data-name="Path 490" d="M1700.5,488.688l-.078-31.563c.651,0,1.3-.009,1.941-.023l.7,31.551C1702.212,488.674,1701.356,488.684,1700.5,488.688Zm-3.953-.049q-1.284-.031-2.563-.095l1.479-31.525c.645.03,1.289.053,1.939.072Zm10.511-.134-1.708-31.515c.659-.034,1.32-.076,1.974-.123l2.257,31.481Q1708.319,488.435,1707.056,488.5Zm-17.017-.2q-1.3-.1-2.6-.229l3.108-31.405c.629.063,1.261.116,1.893.163Zm23.477-.3-3.18-31.4c.644-.064,1.285-.138,1.927-.216l3.809,31.33Q1714.8,487.873,1713.516,488Zm-30-.367c-.854-.112-1.706-.227-2.552-.354l4.669-31.214c.636.1,1.274.184,1.914.265Zm36.479-.46-4.736-31.2c.627-.093,1.249-.2,1.872-.307l5.439,31.089Q1721.281,486.977,1719.99,487.175Zm-42.927-.528q-1.255-.227-2.5-.473l6.146-30.957q.962.19,1.929.365Zm49.392-.63-6.366-30.913c.63-.129,1.261-.265,1.887-.407l7,30.773Q1727.716,485.756,1726.455,486.016Zm-55.8-.687c-.822-.189-1.645-.39-2.463-.6l7.69-30.608c.638.159,1.275.314,1.918.464Zm62.15-.793-7.891-30.555q.931-.242,1.85-.5l8.55,30.383C1734.482,484.095,1733.649,484.32,1732.807,484.536Zm-68.483-.844q-1.227-.352-2.444-.727l9.254-30.171c.623.189,1.25.377,1.878.557Zm74.79-.962-9.465-30.108q.937-.3,1.864-.6l10.028,29.923Q1740.332,482.347,1739.115,482.73Zm-81.041-1q-1.21-.414-2.412-.85l10.768-29.666c.615.221,1.234.441,1.855.653Zm87.221-1.115-10.952-29.6c.6-.221,1.2-.451,1.794-.685l11.573,29.363Q1746.511,480.166,1745.294,480.613Zm-93.357-1.159q-1.213-.483-2.412-.992l12.32-29.054c.589.246,1.177.49,1.772.727Zm99.4-1.257-12.4-29.022c.584-.25,1.17-.509,1.751-.772l13.013,28.753Q1752.523,477.688,1751.339,478.2ZM1645.9,476.865c-.788-.363-1.575-.735-2.355-1.113l13.8-28.384c.574.28,1.149.551,1.73.818Zm111.4-1.408-13.93-28.321c.581-.286,1.156-.574,1.73-.871l14.486,28.039Q1758.45,474.891,1757.3,475.457ZM1640,473.969q-1.116-.585-2.223-1.187l15.1-27.716q.877.48,1.763.943Zm123.069-1.526-15.315-27.6q.841-.466,1.668-.947l15.891,27.267Q1764.2,471.817,1763.072,472.443Zm-128.8-1.653c-.733-.433-1.465-.873-2.191-1.32l16.547-26.877c.555.343,1.113.678,1.677,1.011Zm134.4-1.643-16.635-26.818q.815-.505,1.615-1.03l17.2,26.464C1770.13,468.23,1769.4,468.694,1768.672,469.147Zm-139.943-1.814q-1.083-.713-2.149-1.446L1644.5,439.9q.792.545,1.6,1.073Zm145.435-1.8-18.04-25.894c.537-.377,1.073-.755,1.605-1.142l18.5,25.572C1775.546,464.565,1774.857,465.056,1774.164,465.537Zm-150.815-1.948c-.678-.5-1.356-1-2.024-1.514l19.122-25.107q.789.6,1.588,1.189Zm156.072-1.9-19.3-24.967c.525-.4,1.041-.812,1.556-1.225l19.734,24.63Q1780.425,460.913,1779.421,461.686ZM1618.186,459.6c-.658-.538-1.315-1.081-1.965-1.63l20.374-24.1c.5.418,1,.837,1.507,1.249Zm166.265-2L1764,433.565c.486-.413.969-.835,1.448-1.261l20.957,23.6Q1785.434,456.763,1784.452,457.6Zm-171.233-2.251q-.951-.852-1.883-1.728l21.569-23.043c.475.447.954.886,1.437,1.323Zm176.117-2.139-21.682-22.932c.469-.443.937-.9,1.4-1.352l22.121,22.511C1790.569,452.035,1789.953,452.627,1789.336,453.21Zm-180.865-2.357q-.9-.892-1.776-1.8l22.663-21.962q.69.71,1.389,1.408Zm185.484-2.228-22.776-21.849q.667-.7,1.318-1.4l23.229,21.364C1795.142,447.372,1794.554,448,1793.955,448.625Zm-190-2.5c-.568-.623-1.126-1.251-1.683-1.885l23.742-20.794q.653.744,1.318,1.478Zm194.4-2.338-23.852-20.666c.418-.487.835-.977,1.246-1.471l24.278,20.168Q1799.206,442.815,1798.361,443.79ZM1599.7,441.206q-.82-1-1.622-2.016l24.8-19.514q.593.753,1.2,1.494Zm202.82-2.465L1777.655,419.3q.6-.767,1.183-1.545l25.24,18.95Q1803.305,437.726,1802.518,438.741Zm-206.829-2.669q-.761-1.028-1.5-2.067l25.7-18.322q.565.792,1.146,1.575Zm210.735-2.594L1780.6,415.334q.568-.812,1.121-1.63l26.142,17.686Q1807.152,432.441,1806.423,433.478Zm-214.5-2.758q-.713-1.068-1.4-2.149l26.616-16.964c.344.543.7,1.085,1.056,1.622Zm218.122-2.679L1783.355,411.2q.52-.826,1.03-1.666l27.006,16.328Q1810.729,426.962,1810.047,428.041Zm-221.589-2.819c-.439-.736-.874-1.48-1.3-2.23l27.424-15.618c.318.557.638,1.108.967,1.656Zm224.939-2.789-27.5-15.493q.48-.849.939-1.706l27.8,14.944Q1814.025,421.312,1813.4,422.433Zm-228.143-2.9q-.6-1.13-1.177-2.274l28.167-14.238q.435.863.89,1.719Zm231.209-2.885-28.246-14.083c.294-.587.579-1.177.862-1.768l28.5,13.555Q1817.034,415.5,1816.465,416.644Zm-234.126-2.972c-.354-.759-.7-1.52-1.041-2.283l28.827-12.852c.267.6.544,1.206.821,1.806Zm236.9-2.966-28.919-12.639c.259-.595.513-1.191.763-1.795l29.162,12.069Q1819.754,409.528,1819.24,410.705Zm-239.5-3q-.483-1.187-.943-2.385l29.461-11.317q.349.909.714,1.808Zm241.975-3.076-29.52-11.158q.338-.9.657-1.8l29.758,10.511C1822.318,403.006,1822.017,403.822,1821.711,404.632ZM1577.425,401.6c-.284-.818-.562-1.637-.829-2.463l30.008-9.771c.2.606.4,1.21.614,1.81Zm246.447-3.173-30.054-9.629c.193-.611.384-1.225.568-1.838l30.249,9C1824.389,396.787,1824.137,397.609,1823.872,398.428Zm-248.452-3.078q-.353-1.2-.684-2.416l30.432-8.364q.265.965.545,1.923Zm250.294-3.209-30.513-8.076q.25-.934.477-1.874l30.669,7.453Q1826.04,390.9,1825.714,392.141Zm-251.973-3.116c-.193-.81-.377-1.621-.556-2.435L1604,379.762c.148.653.3,1.306.45,1.958Zm253.479-3.211-30.864-6.594q.2-.929.373-1.859l31.008,5.89Q1827.49,384.538,1827.22,385.814Zm-254.833-3.18q-.237-1.267-.445-2.543l31.144-5.113q.157.954.332,1.9Zm256.03-3.275-31.167-4.973q.154-.957.288-1.916l31.26,4.345Q1828.618,378.089,1828.416,379.359Zm-257.06-3.171q-.168-1.272-.316-2.558l31.36-3.561c.072.642.151,1.28.239,1.918Zm257.929-3.332-31.38-3.349c.069-.651.133-1.308.193-1.965l31.436,2.789Q1829.422,371.6,1829.285,372.856ZM1570.652,369.7q-.111-1.3-.191-2.6l31.5-1.933q.063.948.138,1.891Zm259.171-3.347-31.51-1.791c.036-.657.07-1.316.1-1.976l31.536,1.24Q1829.9,365.092,1829.823,366.353Zm-259.552-3.162c-.032-.865-.051-1.734-.062-2.6l31.558-.388q.012.948.044,1.9Zm259.767-3.381-31.559-.184,0-.861,0-1.1,31.559-.4c.005.521.009,1.045.005,1.568Zm-228.267-2.671-31.558-.466q.02-1.3.066-2.6l31.54,1.164Q1601.781,356.186,1601.771,357.139ZM1798.4,354.6c-.025-.634-.057-1.268-.1-1.9l31.5-1.946q.079,1.3.132,2.6Zm-196.425-2.385-31.492-2.094c.058-.843.121-1.681.191-2.522l31.451,2.641C1602.067,350.9,1602.014,351.558,1601.972,352.217Zm196.1-2.535c-.058-.646-.123-1.286-.195-1.923l31.365-3.5q.142,1.278.261,2.565Zm-195.654-2.408-31.347-3.644q.148-1.281.322-2.552l31.269,4.279Q1602.531,346.313,1602.417,347.274Zm195.075-2.514q-.134-.96-.292-1.912l31.155-5.051q.2,1.269.384,2.544Zm-194.377-2.4-31.13-5.189q.213-1.295.458-2.578l31,5.9Q1603.271,341.427,1603.115,342.361Zm193.576-2.412q-.2-.985-.4-1.969l30.858-6.607c.176.814.341,1.628.5,2.446ZM1604.06,337.5l-30.836-6.74c.186-.844.379-1.681.579-2.518l30.686,7.379Q1604.265,336.556,1604.06,337.5Zm191.568-2.383q-.244-.971-.5-1.939l30.487-8.163c.216.8.422,1.615.627,2.429ZM1605.243,332.7l-30.453-8.29q.34-1.255.71-2.5l30.264,8.947Q1605.495,331.776,1605.243,332.7Zm189.066-2.387c-.19-.623-.38-1.244-.581-1.859l30.023-9.725q.4,1.218.767,2.444ZM1606.659,328l-29.972-9.888c.267-.81.542-1.615.822-2.419l29.785,10.441C1607.074,326.754,1606.864,327.375,1606.659,328Zm186.1-2.4q-.33-.923-.678-1.838l29.514-11.185q.452,1.193.883,2.393Zm-184.422-2.291-29.442-11.361c.308-.8.625-1.6.948-2.391l29.217,11.936C1608.81,322.1,1608.568,322.7,1608.333,323.312Zm182.629-2.342c-.24-.581-.488-1.157-.738-1.73l28.88-12.724q.528,1.193,1.024,2.4Zm-180.729-2.226-28.821-12.86c.348-.784.708-1.564,1.07-2.336l28.564,13.426C1610.77,317.561,1610.5,318.154,1610.234,318.744Zm178.746-2.223q-.423-.889-.863-1.768l28.227-14.113q.567,1.127,1.111,2.268Zm-176.62-2.234-28.119-14.333q.571-1.122,1.163-2.232l27.88,14.789C1612.971,313.1,1612.663,313.691,1612.359,314.288Zm174.392-2.156c-.31-.572-.627-1.143-.945-1.708l27.456-15.56c.421.738.829,1.48,1.234,2.226Zm-172.037-2.206-27.359-15.734q.633-1.1,1.284-2.187l27.077,16.215Q1615.208,309.066,1614.715,309.926Zm169.559-2.118q-.5-.818-1.008-1.628l26.648-16.908q.689,1.091,1.361,2.2ZM1617.3,305.663l-26.568-17.038q.7-1.093,1.422-2.168l26.2,17.6Q1617.822,304.854,1617.3,305.663Zm164.3-2.018q-.536-.792-1.089-1.575l25.771-18.218q.746,1.056,1.469,2.126Zm-161.522-2.069L1594.42,283.2q.747-1.045,1.516-2.075L1621.231,300Q1620.646,300.785,1620.08,301.575Zm158.664-1.929c-.387-.513-.776-1.022-1.174-1.526l24.8-19.516c.532.674,1.055,1.357,1.575,2.045Zm-155.685-2.02-24.7-19.649q.8-1,1.609-1.988l24.316,20.122Q1623.667,296.861,1623.059,297.626Zm152.616-1.846c-.424-.505-.85-1.009-1.283-1.509l23.853-20.666q.827.954,1.638,1.923Zm-149.443-1.948-23.668-20.876q.832-.948,1.689-1.884l23.3,21.285Q1626.888,293.087,1626.233,293.832Zm146.162-1.787q-.662-.716-1.337-1.42l22.778-21.845c.589.613,1.176,1.234,1.752,1.859Zm-142.782-1.865-22.627-22q.9-.926,1.821-1.835l22.159,22.472Q1630.281,289.493,1629.612,290.181Zm139.36-1.662q-.707-.693-1.43-1.372l21.65-22.968q.92.869,1.823,1.753Zm-135.8-1.814-21.529-23.079q.957-.892,1.929-1.759l21,23.562Q1633.859,286.059,1633.167,286.7Zm132.17-1.581c-.489-.43-.981-.859-1.477-1.282l20.461-24.028q.974.829,1.929,1.674Zm-128.493-1.672-20.289-24.175q.974-.818,1.959-1.617L1638.36,282.2C1637.849,282.614,1637.345,283.032,1636.844,283.452Zm124.675-1.539c-.5-.4-1-.791-1.505-1.181l19.221-25.033q1.031.792,2.045,1.6Zm-120.788-1.568-19.1-25.126q1.023-.778,2.062-1.533l18.587,25.506C1641.76,279.573,1641.241,279.958,1640.73,280.346Zm116.875-1.409c-.528-.379-1.06-.757-1.6-1.126l17.946-25.964q1.05.727,2.088,1.475Zm-112.876-1.471-17.786-26.072q1.056-.718,2.124-1.418l17.281,26.409Q1645.532,276.919,1644.729,277.466Zm108.766-1.34q-.812-.525-1.638-1.036l16.627-26.826q1.1.679,2.176,1.378Zm-104.615-1.344-16.461-26.928q1.088-.665,2.185-1.306l15.952,27.233Q1649.712,274.274,1648.88,274.782Zm100.384-1.248q-.832-.483-1.679-.948l15.249-27.63q1.133.625,2.255,1.274Zm-96.117-1.217-15.071-27.729q1.111-.6,2.23-1.187l14.579,27.99C1654.306,271.7,1653.724,272,1653.147,272.317Zm91.8-1.136q-.885-.451-1.774-.888l13.865-28.35q1.141.557,2.268,1.134Zm-87.4-1.117-13.676-28.444q1.153-.554,2.319-1.087l13.108,28.709Q1658.42,269.646,1657.547,270.064Zm82.912-1.041q-.889-.4-1.785-.782l12.387-29.029q1.181.505,2.355,1.034Zm-78.426-.981-12.211-29.1q1.17-.491,2.352-.96l11.669,29.325Q1662.932,267.667,1662.034,268.042Zm73.871-.935q-.915-.355-1.84-.7l10.9-29.616q1.2.44,2.391.9Zm-69.276-.861-10.723-29.684q1.192-.429,2.393-.839l10.191,29.87C1667.868,265.8,1667.247,266.02,1666.628,266.246Zm64.592-.829q-.926-.309-1.857-.6l9.388-30.131q1.23.383,2.45.789Zm-59.9-.738-9.218-30.184q1.219-.375,2.455-.725l8.633,30.356Q1672.253,264.4,1671.323,264.678Zm55.168-.706q-.934-.258-1.878-.5l7.839-30.57c.827.212,1.655.432,2.476.661Zm-50.4-.619-7.69-30.608q1.25-.315,2.512-.606l7.052,30.763Q1677.026,263.118,1676.092,263.353Zm45.608-.581c-.63-.142-1.267-.276-1.9-.405l6.28-30.93q1.258.256,2.509.536Zm-40.8-.5L1674.8,231.31q1.256-.247,2.518-.471l5.5,31.078C1682.175,262.028,1681.537,262.149,1680.9,262.272Zm35.941-.458c-.632-.108-1.267-.212-1.9-.307l4.686-31.21q1.278.193,2.546.409Zm-31.063-.377-4.545-31.231q1.264-.185,2.531-.344l3.953,31.312Q1686.748,261.3,1685.781,261.437Zm26.186-.331q-.977-.116-1.952-.214l3.141-31.4q1.269.125,2.533.276Zm-21.26-.261-2.995-31.419q1.278-.122,2.563-.218l2.363,31.471Q1691.67,260.754,1690.707,260.844Zm16.291-.206c-.634-.045-1.275-.081-1.914-.114L1706.632,229c.865.042,1.726.095,2.586.153Zm-11.359-.138-1.4-31.528c.842-.038,1.683-.066,2.529-.089l.852,31.549C1696.954,260.449,1696.294,260.472,1695.639,260.5Zm6.423-.08c-.647-.013-1.293-.019-1.942-.019V228.841q1.283,0,2.563.025Z" transform="translate(-1570.209 -228.841)" fill="#dd1a50" opacity="0.25"/>
</svg>
