<svg xmlns="http://www.w3.org/2000/svg" width="127" height="84.088" viewBox="0 0 127 84.088">
  <path id="vr-glasses" d="M102.2,84.088H86.32a16.327,16.327,0,0,1-14.965-9.795L69.621,70.32a6.408,6.408,0,0,0-11.745,0l-1.734,3.973a16.327,16.327,0,0,1-14.965,9.795H24.8A24.833,24.833,0,0,1,0,59.283V24.8A24.833,24.833,0,0,1,24.8,0H102.2A24.833,24.833,0,0,1,127,24.8V34.23a4.961,4.961,0,1,1-9.922,0V24.8A14.9,14.9,0,0,0,102.2,9.922H24.8A14.9,14.9,0,0,0,9.922,24.8V59.283A14.9,14.9,0,0,0,24.8,74.166H41.176a6.409,6.409,0,0,0,5.873-3.844l1.734-3.973a16.33,16.33,0,0,1,29.93,0l1.734,3.973a6.407,6.407,0,0,0,5.873,3.844H102.2a14.9,14.9,0,0,0,14.883-14.883,4.961,4.961,0,0,1,9.922,0A24.833,24.833,0,0,1,102.2,84.088ZM105.916,38.2A14.883,14.883,0,1,0,91.033,53.082,14.9,14.9,0,0,0,105.916,38.2Zm-9.922,0a4.961,4.961,0,1,1-4.961-4.961A4.967,4.967,0,0,1,95.994,38.2Zm-45.145,0A14.883,14.883,0,1,0,35.967,53.082,14.9,14.9,0,0,0,50.85,38.2Zm-9.922,0a4.961,4.961,0,1,1-4.961-4.961A4.967,4.967,0,0,1,40.928,38.2Zm0,0" transform="translate(0)" fill="#ec672a"/>
</svg>
