<svg xmlns="http://www.w3.org/2000/svg" width="126.707" height="127" viewBox="0 0 126.707 127">
  <path id="connection" d="M111.44,68.024a8.661,8.661,0,1,0,0-9.9H68.805V45.752h39.843a4.949,4.949,0,0,0,3.5-1.45l9.9-9.9a4.953,4.953,0,0,0,1.45-3.5V15.767a8.661,8.661,0,1,0-9.9,0V28.853l-7,7H68.805V17.817A17.56,17.56,0,0,0,51.182.245,17.718,17.718,0,0,0,33.563,17.679h-.636A16.266,16.266,0,0,0,21.31,22.511a15.835,15.835,0,0,0-4.656,11.331,16.014,16.014,0,0,0,.7,4.58,22.73,22.73,0,0,0-8.56,39.514A22.413,22.413,0,0,0,4.644,91a20.388,20.388,0,0,0,20.365,20.364h.433a4.52,4.52,0,0,1,4.177,2.855A20.322,20.322,0,0,0,48.467,127c.233,0,.464,0,.69-.011a20.023,20.023,0,0,0,13.98-6.287A20.543,20.543,0,0,0,68.8,106.5a4.949,4.949,0,1,0-9.9,0,10.57,10.57,0,0,1-10.054,10.6c-.128,0-.256.006-.386.006a10.461,10.461,0,0,1-9.678-6.615,14.384,14.384,0,0,0-13.342-9.024h-.438A10.478,10.478,0,0,1,14.543,91a12.86,12.86,0,0,1,3.234-8.536,22.7,22.7,0,0,0,5.46.665,4.949,4.949,0,1,0,0-9.9,12.84,12.84,0,0,1-2-25.523l4.874-.742a4.949,4.949,0,0,0,2.529-8.6,6.169,6.169,0,0,1-2.088-4.578,6.009,6.009,0,0,1,1.779-4.291,6.434,6.434,0,0,1,4.6-1.91h1a9.538,9.538,0,0,0,9.528-9.528v-.028a7.812,7.812,0,0,1,7.723-7.879,7.617,7.617,0,0,1,7.723,7.674v67.56a4.949,4.949,0,0,0,4.949,4.949,5.141,5.141,0,0,0,.589-.038c.051,0,.1.008.153.008h42.247l7,7v13.475a8.66,8.66,0,1,0,9.9.343V95.246a4.952,4.952,0,0,0-1.449-3.5l-9.9-9.9a4.953,4.953,0,0,0-3.5-1.45H68.8V68.023Zm0,0" transform="translate(-0.5 0)" fill="#7b3886"/>
</svg>
