<svg xmlns="http://www.w3.org/2000/svg" width="127" height="118.07" viewBox="0 0 127 118.07">
  <path id="edit" d="M107.156,0H19.844A19.866,19.866,0,0,0,0,19.844V89.3a19.866,19.866,0,0,0,19.844,19.844H72.181a4.961,4.961,0,0,0,0-9.922H69.288l-11.406-14.8,36-45.794L117.078,66.3v5.885a4.961,4.961,0,0,0,9.922,0V19.844A19.866,19.866,0,0,0,107.156,0ZM97.564,27.571a4.961,4.961,0,0,0-7.7.121L51.633,76.315,38.656,59.479a4.961,4.961,0,0,0-3.929-1.932h0a4.961,4.961,0,0,0-3.929,1.936L19.877,73.675a4.961,4.961,0,1,0,7.864,6.05l6.99-9.087,22.031,28.58H19.844A9.934,9.934,0,0,1,9.922,89.3V19.844a9.934,9.934,0,0,1,9.922-9.922h87.312a9.934,9.934,0,0,1,9.922,9.922V50.851ZM34.727,17.859A14.883,14.883,0,1,0,49.609,32.742,14.9,14.9,0,0,0,34.727,17.859Zm0,19.844a4.961,4.961,0,1,1,4.961-4.961A4.967,4.967,0,0,1,34.727,37.7Zm70.294,37.281a4.964,4.964,0,0,0-2.107-1.257L83.261,67.92a4.961,4.961,0,0,0-6.177,6.117l5.671,19.9a4.96,4.96,0,0,0,1.258,2.143l17.58,17.632A14.883,14.883,0,0,0,122.647,92.67ZM89.1,79.991l9.788,2.892,8.636,8.666-6.908,7.128-8.669-8.7Zm26.526,26.7a4.965,4.965,0,0,1-7.01.006l-.992-1,6.906-7.127,1.1,1.1a4.959,4.959,0,0,1,0,7.015Zm0,0" fill="#dd1a50"/>
</svg>
