<svg xmlns="http://www.w3.org/2000/svg" width="127" height="127" viewBox="0 0 127 127">
  <path id="area" d="M123.366,99.626a12.416,12.416,0,0,1,0,17.54l-.022.022-8.486,8.38a4.961,4.961,0,1,1-6.971-7.06l4.965-4.9H33.237A19.866,19.866,0,0,1,13.393,93.761V14.027L8.444,18.911a4.961,4.961,0,0,1-6.969-7.064L9.856,3.579a12.5,12.5,0,0,1,17.491,0l8.381,8.268a4.961,4.961,0,0,1-6.969,7.064l-5.445-5.373V93.761a9.934,9.934,0,0,0,9.922,9.922h80.117l-5.468-5.4a4.961,4.961,0,1,1,6.971-7.06l8.486,8.38.022.022ZM112.115,0H47.871a4.961,4.961,0,1,0,0,9.922h64.244a4.961,4.961,0,0,1,4.961,4.961V79.375a4.961,4.961,0,1,0,9.922,0V14.883A14.883,14.883,0,0,0,112.115,0ZM72.924,85.053a4.961,4.961,0,0,0,4.961-4.961V58.012A13.635,13.635,0,0,0,55.561,47.5a13.62,13.62,0,0,0-14.017-2.039,4.955,4.955,0,0,0-8.307,3.656V80.119a4.961,4.961,0,0,0,9.922,0V58.012a3.721,3.721,0,1,1,7.441,0V80.119a4.961,4.961,0,1,0,9.922,0V58.012a3.721,3.721,0,1,1,7.441,0v22.08A4.961,4.961,0,0,0,72.924,85.053Zm22.51-58.264c-.026,0-.051,0-.078,0s-.05,0-.077,0A11.462,11.462,0,0,0,83.838,38.245a4.961,4.961,0,0,0,9.922,0,1.548,1.548,0,0,1,1.52-1.534c.026,0,.051,0,.078,0s.05,0,.077,0a1.548,1.548,0,0,1,1.516,1.431c-.1.363-.858,2.61-5.612,7.84-2.948,3.242-5.846,5.882-5.874,5.908A4.961,4.961,0,0,0,88.8,60.523h13.394a4.961,4.961,0,1,0,0-9.922h-1.706c4.4-5.186,6.389-9.045,6.389-12.357A11.462,11.462,0,0,0,95.434,26.789Zm0,0" transform="translate(0.002)" fill="#064290"/>
</svg>
