<svg xmlns="http://www.w3.org/2000/svg" width="315.012" height="314.999" viewBox="0 0 315.012 314.999">
  <g id="Group_34" data-name="Group 34" transform="translate(0.505 0.5)">
    <path id="Path_477" data-name="Path 477" d="M1691.353,502.8c-84.258,0-152.809-68.55-152.809-152.81s68.551-152.81,152.809-152.81,152.81,68.552,152.81,152.81S1775.613,502.8,1691.353,502.8Zm0-302.269c-82.411,0-149.459,67.046-149.459,149.459s67.047,149.459,149.459,149.459,149.459-67.046,149.459-149.459S1773.765,200.534,1691.353,200.534Z" transform="translate(-1534.248 -192.967)" fill="#dd1a50" opacity="0.4"/>
    <path id="Union_3" data-name="Union 3" d="M110.84,307.108A157.075,157.075,0,0,1,45.977,45.953l.075.075A157.249,157.249,0,0,1,157.1,0V11.726A145.246,145.246,0,1,0,302.067,149.345l11.711-.615a155.968,155.968,0,0,1-40.067,113.235l.081.073a155.978,155.978,0,0,1-108.45,51.74q-4.222.221-8.423.22A156.538,156.538,0,0,1,110.84,307.108Z" transform="translate(314 313.999) rotate(180)" fill="#dd1a50" stroke="rgba(0,0,0,0)" stroke-miterlimit="10" stroke-width="1"/>
  </g>
</svg>
