<svg xmlns="http://www.w3.org/2000/svg" width="90" height="206.952" viewBox="0 0 90 206.952">
  <g id="Path_496" data-name="Path 496" transform="translate(174 3.476) rotate(90)" fill="#dd1a50">
    <path d="M 150.5753784179688 173 L 150.0000305175781 173 L 50.00000762939453 173 L 49.42466735839844 173 L 49.1355094909668 172.5026245117188 L -0.8644923567771912 86.50263214111328 L -1.738123893737793 85 L 7.62939453125e-06 85 L 200 85 L 201.7381439208984 85 L 200.864501953125 86.50263214111328 L 150.8645324707031 172.5026245117188 L 150.5753784179688 173 Z" stroke="none"/>
    <path d="M 1.52587890625e-05 86 L 50.00001525878906 172 L 150.0000305175781 172 L 200 86 L 1.52587890625e-05 86 M -3.476226806640625 84 L 1.52587890625e-05 84 L 200 84 L 203.4762420654297 84 L 201.7290344238281 87.00523376464844 L 151.7290649414062 173.0052337646484 L 151.1506958007812 174 L 150.0000305175781 174 L 50.00001525878906 174 L 48.84934997558594 174 L 48.27098083496094 173.0052337646484 L -1.729019165039062 87.00523376464844 L -3.476226806640625 84 Z" stroke="none" fill="#dd1a50"/>
  </g>
</svg>
