<svg xmlns="http://www.w3.org/2000/svg" width="90" height="206.952" viewBox="0 0 90 206.952">
  <g id="Path_497" data-name="Path 497" transform="translate(88 3.476) rotate(90)" fill="#dd1a50">
    <path d="M 201.7381439208984 87 L 200 87 L 7.62939453125e-06 87 L -1.738123893737793 87 L -0.8644923567771912 85.49736785888672 L 49.13553237915039 -0.5026316046714783 L 49.42469024658203 -1 L 50.00003433227539 -1 L 150.0000305175781 -1 L 150.5753784179688 -1 L 150.8645324707031 -0.5026316046714783 L 200.864501953125 85.49736785888672 L 201.7381439208984 87 Z" stroke="none"/>
    <path d="M 50.00003051757812 0 L 1.52587890625e-05 86 L 200 86 L 150.0000305175781 0 L 50.00003051757812 0 M 48.84938049316406 -2 L 50.00003051757812 -2 L 150.0000305175781 -2 L 151.1506958007812 -2 L 151.7290649414062 -1.005233764648438 L 201.7290344238281 84.99476623535156 L 203.4762420654297 88 L 200 88 L 1.52587890625e-05 88 L -3.476226806640625 88 L -1.729019165039062 84.99476623535156 L 48.27101135253906 -1.005233764648438 L 48.84938049316406 -2 Z" stroke="none" fill="#dd1a50"/>
  </g>
</svg>
