<svg xmlns="http://www.w3.org/2000/svg" width="127" height="127" viewBox="0 0 127 127">
  <g id="Group_184" data-name="Group 184" transform="translate(-190 -3955)">
    <g id="Ellipse_31" data-name="Ellipse 31" transform="translate(190 3955)" fill="none" stroke="#7b3886" stroke-width="5">
      <circle cx="63.5" cy="63.5" r="63.5" stroke="none"/>
      <circle cx="63.5" cy="63.5" r="61" fill="none"/>
    </g>
    <path id="painting" d="M48.5,7.617A7.626,7.626,0,0,0,40.879,0H24.121A7.626,7.626,0,0,0,16.5,7.617v20.82a7.626,7.626,0,0,0,7.617,7.617H40.879A7.626,7.626,0,0,0,48.5,28.438ZM24.121,5.078H40.879a2.542,2.542,0,0,1,2.539,2.539v6.059l-6.855,6.89-.077-.074-2.216-2.037a5.078,5.078,0,0,0-7.124.031l-5.563,5.426V7.617a2.542,2.542,0,0,1,2.539-2.539Zm16.758,25.9H24.121a2.529,2.529,0,0,1-1.769-.721L30.7,22.112l.022-.022.077.074L33.016,24.2a5.078,5.078,0,0,0,7.142-.048l3.26-3.277v7.561a2.542,2.542,0,0,1-2.539,2.539ZM25.15,10.918a2.539,2.539,0,1,1,2.539,2.539A2.539,2.539,0,0,1,25.15,10.918Zm9.762,38.213a2.539,2.539,0,1,1-2.539-2.539A2.539,2.539,0,0,1,34.912,49.131Zm9.648-1.27a2.539,2.539,0,1,1-2.539-2.539A2.539,2.539,0,0,1,44.561,47.861Zm8.887-2.92A2.539,2.539,0,1,1,50.908,42.4,2.539,2.539,0,0,1,53.447,44.941Zm-28.184,2.92a2.539,2.539,0,1,1-2.539-2.539A2.539,2.539,0,0,1,25.264,47.861Zm-8.887-2.92A2.539,2.539,0,1,1,13.838,42.4,2.539,2.539,0,0,1,16.377,44.941ZM10.156,34.785a5.075,5.075,0,0,1-2.539,4.4V62.461a2.539,2.539,0,0,1-5.078,0V39.182a5.078,5.078,0,1,1,7.617-4.4Zm52.3,4.4V62.461a2.539,2.539,0,0,1-5.078,0V39.182a5.078,5.078,0,1,1,5.078,0Z" transform="translate(221 3986)" fill="#7b3886"/>
  </g>
</svg>
