<svg xmlns="http://www.w3.org/2000/svg" width="127" height="127" viewBox="0 0 127 127">
  <g id="Group_183" data-name="Group 183" transform="translate(-190 -3955)">
    <g id="Ellipse_31" data-name="Ellipse 31" transform="translate(190 3955)" fill="none" stroke="#ec672a" stroke-width="5">
      <circle cx="63.5" cy="63.5" r="63.5" stroke="none"/>
      <circle cx="63.5" cy="63.5" r="61" fill="none"/>
    </g>
    <path id="seats" d="M29.58,41.385H10.272c.037.938.064,1.81.085,2.608a2.524,2.524,0,0,0,2.538,2.47H29.58a2.539,2.539,0,1,1,0,5.078H21.328v8.379h5.078a2.539,2.539,0,0,1,0,5.078H11.172a2.539,2.539,0,0,1,0-5.078H16.25V51.542H12.9a7.615,7.615,0,0,1-7.614-7.415A201.951,201.951,0,0,0,.073,3.145,2.539,2.539,0,1,1,5,1.932a199.236,199.236,0,0,1,5.01,34.375H29.579a2.539,2.539,0,0,1,0,5.078ZM65,49a2.539,2.539,0,0,1-2.539,2.539H54.208v8.379h5.078a2.539,2.539,0,0,1,0,5.078H44.052a2.539,2.539,0,0,1,0-5.078H49.13V51.542H45.775a7.615,7.615,0,0,1-7.614-7.415A201.907,201.907,0,0,0,32.954,3.145a2.539,2.539,0,1,1,4.931-1.213A199.236,199.236,0,0,1,42.9,36.308H62.46a2.539,2.539,0,1,1,0,5.078H43.152c.037.938.064,1.81.085,2.608a2.523,2.523,0,0,0,2.538,2.47H62.46A2.539,2.539,0,0,1,65,49Zm0,0" transform="translate(221.001 3986.001)" fill="#ec672a"/>
  </g>
</svg>
