<svg xmlns="http://www.w3.org/2000/svg" width="127" height="127" viewBox="0 0 127 127">
  <g id="Group_182" data-name="Group 182" transform="translate(-190 -3955)">
    <g id="Ellipse_31" data-name="Ellipse 31" transform="translate(190 3955)" fill="none" stroke="#dd1a50" stroke-width="5">
      <circle cx="63.5" cy="63.5" r="63.5" stroke="none"/>
      <circle cx="63.5" cy="63.5" r="61" fill="none"/>
    </g>
    <g id="cafe" transform="translate(225 3984)">
      <g id="Group_186" data-name="Group 186">
        <g id="Group_185" data-name="Group 185">
          <path id="Path_596" data-name="Path 596" d="M173.539,15.234a2.539,2.539,0,0,0,2.539-2.539c0-.572.984-1.449,1.936-2.3,1.862-1.658,4.411-3.929,4.411-7.86a2.539,2.539,0,1,0-5.078,0c0,1.573-1.03,2.571-2.711,4.068C173.017,8.05,171,9.846,171,12.7A2.539,2.539,0,0,0,173.539,15.234Z" transform="translate(-149.291)" fill="#dd1a50"/>
          <path id="Path_597" data-name="Path 597" d="M263.539,15.234a2.539,2.539,0,0,0,2.539-2.539c0-.572.984-1.449,1.936-2.3,1.862-1.658,4.411-3.929,4.411-7.86a2.539,2.539,0,1,0-5.078,0c0,1.573-1.03,2.571-2.711,4.068C263.017,8.05,261,9.846,261,12.7A2.539,2.539,0,0,0,263.539,15.234Z" transform="translate(-227.865)" fill="#dd1a50"/>
          <path id="Path_598" data-name="Path 598" d="M83.539,15.234A2.539,2.539,0,0,0,86.078,12.7c0-.572.984-1.449,1.936-2.3,1.862-1.658,4.411-3.929,4.411-7.86a2.539,2.539,0,1,0-5.078,0c0,1.573-1.03,2.571-2.711,4.068C83.017,8.05,81,9.846,81,12.7A2.539,2.539,0,0,0,83.539,15.234Z" transform="translate(-70.717)" fill="#dd1a50"/>
          <path id="Path_599" data-name="Path 599" d="M64.268,168.373a2.539,2.539,0,0,0-1.807-.756H53.99L55,163.095A2.539,2.539,0,0,0,52.527,160H2.539a2.539,2.539,0,0,0-2.476,3.1l5.459,23.99A22.7,22.7,0,0,0,13.3,199.609H2.539a2.539,2.539,0,1,0,0,5.078h50.02a2.539,2.539,0,0,0,0-5.078H41.853q.862-.7,1.663-1.5a2.539,2.539,0,1,0-3.58-3.6,17.535,17.535,0,0,1-29.462-8.542L5.721,165.078H49.355l-4.675,20.836c0,.005,0,.011,0,.016-.011.05-.018.1-.026.152-.006.036-.012.072-.017.108s0,.071-.007.106c0,.053-.008.105-.008.158,0,.005,0,.01,0,.016,0,.022,0,.043,0,.065,0,.059,0,.117.009.175,0,.031.008.062.012.092.007.051.013.1.023.153s.017.075.026.113.02.083.032.124.028.085.043.127.024.069.037.1.038.087.058.13.029.062.044.092.045.081.069.122.036.061.055.091.049.071.075.107.046.063.07.094.051.06.076.089.057.065.088.1.051.049.077.074.068.064.1.094.053.043.08.063.075.058.114.085.061.039.092.059.076.048.115.07.075.039.113.058.069.035.1.05.1.038.144.056c.029.011.058.022.088.032.055.018.112.033.168.047.021.005.042.013.063.018l.015,0c.05.011.1.019.153.026.036.006.072.012.108.017s.07,0,.1.007c.053,0,.107.008.16.008h.015a18.27,18.27,0,0,0,11.759-4.976,17.809,17.809,0,0,0,6.075-13.224L65,170.19A2.539,2.539,0,0,0,64.268,168.373Zm-13.8,14.937L52.851,172.7h6.911C58.9,178.018,54.553,181.871,50.469,183.31Z" transform="translate(0 -139.687)" fill="#dd1a50"/>
        </g>
      </g>
    </g>
  </g>
</svg>
