<svg xmlns="http://www.w3.org/2000/svg" width="127" height="127" viewBox="0 0 127 127">
  <g id="Group_181" data-name="Group 181" transform="translate(-190 -3955)">
    <g id="aircraft" transform="translate(221 3985.991)">
      <g id="Group_180" data-name="Group 180" transform="translate(0 0.011)">
        <path id="Path_595" data-name="Path 595" d="M63.556,11.025c1.905-4.526,1.928-7.764.068-9.624s-5.1-1.855-9.656-.008A26.79,26.79,0,0,0,46.106,6.14l-.023.024-5.346,5.488-6.395-1.221.864-.864a2.539,2.539,0,1,0-3.591-3.591l-3.3,3.3L23.681,8.4l.1-.1a2.539,2.539,0,0,0-3.591-3.591L17.651,7.244l-3.2-.611A7.638,7.638,0,0,0,7.8,8.573l-7,6.6a2.539,2.539,0,0,0,3.484,3.7L5.59,17.634,24.621,27.08,13.592,38.186l-4.718-.211c-.041,0-.082,0-.123,0A11.165,11.165,0,0,0,.7,41.423a2.539,2.539,0,0,0,.766,4.052L13.747,51.2l6.2,12.405a2.539,2.539,0,0,0,4.11.616l.173-.181A11.07,11.07,0,0,0,27.3,56.374V50.439L38.173,39.5l5.065,10.841a2.539,2.539,0,0,0,4.6-2.15l-6.6-14.133a2.539,2.539,0,0,0-4.1-.716L22.957,47.6a2.539,2.539,0,0,0-.739,1.791v6.983q0,.2-.013.392l-4.312-8.627a2.54,2.54,0,0,0-1.2-1.166L8.318,43.066q.194-.014.389-.016l5.781.259a2.53,2.53,0,0,0,1.915-.747L30.666,28.2a2.531,2.531,0,0,0,.283-.323l.013-.018,0-.006A2.537,2.537,0,0,0,31.415,26v-.006l0-.019A2.537,2.537,0,0,0,30.379,24.3l-.012-.009h0a2.51,2.51,0,0,0-.384-.223L9.529,13.919l1.751-1.651a2.546,2.546,0,0,1,2.218-.647L40.776,16.83a2.54,2.54,0,0,0,2.627-.636l6.305-6.473A21.169,21.169,0,0,1,55.214,6.38,11.933,11.933,0,0,1,59.93,5.086a11.889,11.889,0,0,1-1.352,4.648A21.767,21.767,0,0,1,55.168,15.2l-.018.018-6.138,6.264a2.539,2.539,0,0,0-.891,2.446l5.267,27.581a2.547,2.547,0,0,1-.647,2.218l-6.6,7a2.539,2.539,0,1,0,3.7,3.484l6.6-7a7.638,7.638,0,0,0,1.94-6.655l-.611-3.2L60.3,44.821a2.539,2.539,0,0,0-3.591-3.591l-.1.1L55.73,36.7l3.3-3.3A2.539,2.539,0,0,0,55.442,29.8l-.863.863L53.363,24.3l5.407-5.518A27.509,27.509,0,0,0,63.556,11.025Z" transform="translate(0 -0.011)" fill="#064290"/>
      </g>
    </g>
    <g id="Ellipse_31" data-name="Ellipse 31" transform="translate(190 3955)" fill="none" stroke="#064290" stroke-width="5">
      <circle cx="63.5" cy="63.5" r="63.5" stroke="none"/>
      <circle cx="63.5" cy="63.5" r="61" fill="none"/>
    </g>
  </g>
</svg>
