<svg xmlns="http://www.w3.org/2000/svg" width="279.773" height="279.77" viewBox="0 0 279.773 279.77">
  <g id="_026-art" data-name="026-art" transform="translate(102.407 -0.01) rotate(30)">
    <g id="Group_86" data-name="Group 86" transform="translate(0 0.011)">
      <g id="Group_85" data-name="Group 85">
        <path id="Path_522" data-name="Path 522" d="M204.585,57.159c-2.209-20.642-13.819-32.615-26.037-42.479C161.374.816,139.55.04,138.63.014a8,8,0,0,0-7.186,11.945c5.973,10.528,3.193,18.262-.328,28.054-2.669,7.422-5.694,15.835-4.392,25.635A40.326,40.326,0,0,0,141.461,92.1c.178.142.361.274.541.412V116.6c-10.9.637-19.179,2.886-25.171,6.825-7.346,4.831-11.23,12.225-11.23,21.385,0,6.526,1.963,11.855,3.7,16.556,1.666,4.523,3.105,8.43,3.105,13.445,0,2.186-.38,6.324-2.924,9.473-2.427,3-6.556,4.527-12.277,4.527-46.292,0-81.2-37.144-81.2-86.4a86.5,86.5,0,0,1,86.4-86.4c1.829,0,3.68.058,5.5.172a8,8,0,0,0,1-15.969c-2.153-.135-4.341-.2-6.5-.2A102.4,102.4,0,0,0,0,102.412c0,27.58,9.65,53.214,27.174,72.18,18.005,19.488,42.875,30.221,70.028,30.221,13.443,0,20.865-5.7,24.724-10.474a31.041,31.041,0,0,0,6.476-19.526c0-7.868-2.174-13.769-4.091-18.975-1.513-4.108-2.709-7.352-2.709-11.025,0-3.816,1.165-6.138,4.021-8.016,2.485-1.634,7.272-3.523,16.38-4.161v47.2a24.127,24.127,0,0,0,22.824,24.941q.626.032,1.247.032a23.979,23.979,0,0,0,23.918-22.76,8,8,0,1,0-15.98-.813,7.978,7.978,0,0,1-13.888,4.941,8.035,8.035,0,0,1-2.133-5.752l.01-.2V99.736a39.219,39.219,0,0,0,7.535.734,40.269,40.269,0,0,0,4.265-.227,39.761,39.761,0,0,0,4.2-.676v44.046a8,8,0,1,0,16,0V92a39.471,39.471,0,0,0,6.12-6.086A38.881,38.881,0,0,0,204.585,57.159Zm-20.912,18.7a22.989,22.989,0,0,1-15.561,8.472,22.727,22.727,0,0,1-16.682-4.751,24.407,24.407,0,0,1-8.846-16.042c-.789-5.941,1.239-11.582,3.588-18.114,2.761-7.676,6-16.676,4.3-27.247A50.662,50.662,0,0,1,168.5,27.13c11.341,9.157,18.673,17.659,20.179,31.733A22.987,22.987,0,0,1,183.673,75.86Z" transform="translate(0 -0.011)" fill="#064290"/>
        <path id="Path_523" data-name="Path 523" d="M223.99,92.007a12,12,0,1,0,12-12A12.014,12.014,0,0,0,223.99,92.007Z" transform="translate(-134.389 -48.007)" fill="#064290"/>
        <path id="Path_524" data-name="Path 524" d="M138.486,148.495a12.02,12.02,0,0,0,0-16.979h0a12,12,0,1,0,0,16.979Z" transform="translate(-70.795 -76.805)" fill="#064290"/>
        <path id="Path_525" data-name="Path 525" d="M80,245a12,12,0,1,0,12-12A12.014,12.014,0,0,0,80,245Z" transform="translate(-47.996 -139.8)" fill="#064290"/>
        <path id="Path_526" data-name="Path 526" d="M133,356A12,12,0,1,0,124.51,335.5h0A12,12,0,0,0,133,356Z" transform="translate(-72.594 -199.194)" fill="#064290"/>
      </g>
    </g>
  </g>
</svg>
