<svg xmlns="http://www.w3.org/2000/svg" width="230.597" height="230.597" viewBox="0 0 230.597 230.597">
  <g id="_044-sport" data-name="044-sport" transform="translate(84.404) rotate(30)">
    <g id="Group_89" data-name="Group 89">
      <path id="Path_528" data-name="Path 528" d="M144.088,24.721A84.4,84.4,0,0,0,24.721,144.088a84.437,84.437,0,0,0,103.357,12.557,6.594,6.594,0,0,0-6.833-11.28A70.973,70.973,0,0,1,91,155.314V91h23.694a83.622,83.622,0,0,0,6.4,26.311,6.594,6.594,0,0,0,12.143-5.145A70.5,70.5,0,0,1,127.929,91h27.382a71.11,71.11,0,0,1-11.767,32.933,6.594,6.594,0,1,0,10.963,7.33A84.2,84.2,0,0,0,144.088,24.721ZM13.5,91H40.874A71.253,71.253,0,0,1,27.2,126.782,70.823,70.823,0,0,1,13.5,91ZM77.81,155.313a70.97,70.97,0,0,1-41.636-18.56A84.438,84.438,0,0,0,54.108,91h23.7Zm0-77.5H54.116a83.645,83.645,0,0,0-6.251-25.954A6.594,6.594,0,0,0,35.7,56.946,70.511,70.511,0,0,1,40.88,77.81H13.5A71.335,71.335,0,0,1,77.81,13.5Zm36.89,0H91V13.5a70.97,70.97,0,0,1,41.634,18.558A84.339,84.339,0,0,0,114.7,77.81Zm13.233,0A71.155,71.155,0,0,1,141.606,42.03,70.825,70.825,0,0,1,155.313,77.81Z" fill="#ec672a"/>
    </g>
  </g>
</svg>
