<svg xmlns="http://www.w3.org/2000/svg" width="60" height="59.989" viewBox="0 0 60 59.989">
  <path id="shopping-list" d="M38.08,17.5a2.343,2.343,0,0,1-2.343,2.343H27.652a2.343,2.343,0,1,1,0-4.687h8.085A2.343,2.343,0,0,1,38.08,17.5ZM21.737,11.238a2.343,2.343,0,0,0-3.265.567l-3.345,4.749-1.745-1.762a2.343,2.343,0,1,0-3.33,3.3L12.7,20.764l.036.035a3.644,3.644,0,0,0,2.53,1.024c.08,0,.16,0,.239-.008a3.649,3.649,0,0,0,2.614-1.377c.027-.034.053-.069.077-.1L22.3,14.5a2.344,2.344,0,0,0-.567-3.265Zm14,18.1H27.652a2.343,2.343,0,1,0,0,4.687h8.085a2.343,2.343,0,0,0,0-4.687Zm-14-3.914a2.343,2.343,0,0,0-3.265.567l-3.345,4.749-1.745-1.762a2.343,2.343,0,1,0-3.33,3.3L12.7,34.948l.036.035a3.644,3.644,0,0,0,2.53,1.024c.08,0,.16,0,.239-.008a3.649,3.649,0,0,0,2.614-1.377c.027-.034.053-.069.077-.1L22.3,28.687a2.343,2.343,0,0,0-.567-3.265ZM60,9.053v7.5a9.384,9.384,0,0,1-9.373,9.373H47.57V39.282a2.343,2.343,0,1,1-4.687,0V9.053a8.5,8.5,0,0,1,.927-3.867H9.373A4.692,4.692,0,0,0,4.687,9.873V51.116A4.692,4.692,0,0,0,9.373,55.8H38.2a4.692,4.692,0,0,0,4.687-4.687,2.343,2.343,0,0,1,4.687,0A9.384,9.384,0,0,1,38.2,60.489H9.373A9.384,9.384,0,0,1,0,51.116V9.873A9.384,9.384,0,0,1,9.373.5H51.554c.036,0,.072,0,.108.005A8.561,8.561,0,0,1,60,9.053Zm-4.687,0a3.871,3.871,0,0,0-3.867-3.867h-.01A3.871,3.871,0,0,0,47.57,9.053V21.238h3.057a4.692,4.692,0,0,0,4.687-4.687ZM35.736,43.4H27.652a2.344,2.344,0,1,0,0,4.687h8.085a2.344,2.344,0,0,0,0-4.687Zm-14-3.914a2.343,2.343,0,0,0-3.265.566L15.126,44.8l-1.745-1.762a2.343,2.343,0,1,0-3.33,3.3L12.7,49.008l.036.035a3.644,3.644,0,0,0,2.53,1.024c.08,0,.16,0,.239-.008a3.649,3.649,0,0,0,2.614-1.377c.027-.034.053-.069.077-.1L22.3,42.747a2.343,2.343,0,0,0-.567-3.265Zm0,0" transform="translate(0 -0.5)" fill="#dd1a50"/>
</svg>
