<svg xmlns="http://www.w3.org/2000/svg" width="1767.118" height="952.813" viewBox="0 0 1767.118 952.813">
  <g id="Group_134" data-name="Group 134" transform="translate(-50.945 -4543.314)">
    <g id="_010-beta" data-name="010-beta" transform="matrix(0.966, 0.259, -0.259, 0.966, 1248.026, 5180.605)">
      <g id="Group_95" data-name="Group 95" transform="translate(0)">
        <path id="Path_534" data-name="Path 534" d="M100.248,18.193a10.459,10.459,0,1,0-17.5-7.772L82.7,11.5c0,.026,0,.051,0,.077V41.2a2.5,2.5,0,0,1-5,0,1.852,1.852,0,1,0-3.7,0,6.2,6.2,0,1,0,12.406,0V38.5a12.487,12.487,0,0,0,17.3.287,1.852,1.852,0,1,0-2.52-2.713,8.8,8.8,0,0,1-14.78-6.445V11.611l.045-1.072c0-.026,0-.051,0-.077a6.758,6.758,0,1,1,7.35,6.733l-.668.027a1.852,1.852,0,0,0,.076,3.7q.416,0,.823-.032l1.4-.057A8.805,8.805,0,0,1,104,29.625a1.852,1.852,0,0,0,3.7,0A12.516,12.516,0,0,0,100.248,18.193Z" transform="translate(-64.941 33.807)" fill="#d2d1d1"/>
      </g>
    </g>
    <g id="_009-award" data-name="009-award" transform="matrix(0.891, 0.454, -0.454, 0.891, 1409.97, 4931.588)">
      <g id="Group_94" data-name="Group 94" transform="translate(0)">
        <g id="Group_93" data-name="Group 93">
          <path id="Path_532" data-name="Path 532" d="M56.826,5.2a2.243,2.243,0,0,0-1.641-.714h-9.1q.022-1.1.022-2.243A2.243,2.243,0,0,0,43.864,0H13.589a2.243,2.243,0,0,0-2.243,2.243q0,1.146.022,2.243h-9.1a2.243,2.243,0,0,0-2.237,2.4,27.813,27.813,0,0,0,3.22,9.951,36.893,36.893,0,0,0,6.5,8.838,45.643,45.643,0,0,0,11.65,8.4c2.07,2.451,4.015,4.786,5.083,7.84v3.646a31.423,31.423,0,0,0-4.333,1.532c-5.779,2.575-6.992,5.813-6.992,8.075A2.243,2.243,0,0,0,17.4,57.411H39.827a2.243,2.243,0,0,0,2.243-2.243c0-2.2-1.189-5.382-6.852-8a31.654,31.654,0,0,0-4.249-1.576V41.744c1.053-2.993,2.975-5.258,5.016-7.636A43.591,43.591,0,0,0,50.6,22.388a2.243,2.243,0,0,0-3.526-2.772,34.936,34.936,0,0,1-4.6,4.8A45.545,45.545,0,0,0,45.889,8.97h6.6c-.126.49-.286,1.041-.488,1.644a2.243,2.243,0,1,0,4.254,1.422,22.635,22.635,0,0,0,1.17-5.149A2.243,2.243,0,0,0,56.826,5.2ZM7.331,14.968a27.563,27.563,0,0,1-2.367-6h6.6a45.493,45.493,0,0,0,3.422,15.48A33.025,33.025,0,0,1,7.331,14.968ZM36.156,52.925H21.039a13.468,13.468,0,0,1,2.877-1.709,28.024,28.024,0,0,1,4.8-1.6A21.557,21.557,0,0,1,36.156,52.925Zm.116-26.43a43.519,43.519,0,0,1-3.59,4.576,42.756,42.756,0,0,0-4,5.174,45.3,45.3,0,0,0-3.968-5.194A46.127,46.127,0,0,1,21.181,26.5c-3.495-5.359-5.122-12.023-5.328-22.011H41.6C41.393,14.473,39.766,21.137,36.271,26.5Z" transform="translate(-0.021)" fill="#d2d1d1"/>
          <path id="Path_533" data-name="Path 533" d="M209.383,87.54v6.243a2.243,2.243,0,1,0,4.485,0V83.243a2.243,2.243,0,0,0-3.529-1.837l-3.364,2.355a2.243,2.243,0,0,0,2.407,3.78Z" transform="translate(-182.921 -71.918)" fill="#d2d1d1"/>
        </g>
      </g>
    </g>
    <g id="_055-molecule" data-name="055-molecule" transform="translate(267.204 5145.979) rotate(-45)">
      <g id="Group_103" data-name="Group 103" transform="translate(0)">
        <path id="Path_548" data-name="Path 548" d="M49.812,43.2a6.623,6.623,0,0,0-6.233,4.408H38.964A6.606,6.606,0,0,0,31.3,43.357l-2.437-4.086a6.592,6.592,0,0,0,0-8.232l2.381-4.1a6.605,6.605,0,0,0,1.487.171,2.2,2.2,0,1,0,0-4.408,2.2,2.2,0,1,1,2.2-2.2,2.2,2.2,0,0,0,2.2,2.2c.056,0,.111,0,.165-.008s.11.008.165.008h6.11a6.623,6.623,0,0,0,6.233,4.408,2.2,2.2,0,1,0,0-4.408,2.2,2.2,0,1,1,2.2-2.2,2.2,2.2,0,1,0,4.408,0,6.612,6.612,0,0,0-12.845-2.2H38.964A6.606,6.606,0,0,0,30.9,14.145L28.227,10.4a6.612,6.612,0,1,0-3.585,2.564l2.675,3.745a6.591,6.591,0,0,0,.208,7.857l-2.4,4.134a6.605,6.605,0,0,0-7.663,4.251H12.845a6.612,6.612,0,1,0-6.233,8.816,2.2,2.2,0,0,0,0-4.408,2.2,2.2,0,1,1,2.2-2.2,2.2,2.2,0,0,0,2.2,2.2h6.44a6.606,6.606,0,0,0,7.664,4.251L27.562,45.7A6.607,6.607,0,0,0,32.73,56.424a2.2,2.2,0,0,0,0-4.408,2.2,2.2,0,1,1,2.2-2.2,2.2,2.2,0,0,0,2.2,2.2c.056,0,.111,0,.165-.008s.11.008.165.008h6.11a6.623,6.623,0,0,0,6.233,4.408,2.2,2.2,0,1,0,0-4.408,2.2,2.2,0,1,1,2.2-2.2,2.2,2.2,0,1,0,4.408,0A6.62,6.62,0,0,0,49.812,43.2Zm-27-34.384a2.2,2.2,0,1,1,2.2-2.2A2.207,2.207,0,0,1,22.812,8.816Zm.882,28.543a2.2,2.2,0,1,1,2.2-2.2A2.207,2.207,0,0,1,23.694,37.359Z" transform="translate(0)" fill="#d2d1d1"/>
      </g>
    </g>
    <g id="_054-study" data-name="054-study" transform="matrix(0.966, -0.259, 0.259, 0.966, 50.945, 4898.254)">
      <g id="Group_102" data-name="Group 102" transform="translate(0 0)">
        <path id="Path_547" data-name="Path 547" d="M44.844,31.3l-9-8.963L42.707,15.5A9.077,9.077,0,1,0,29.871,2.659L23.043,9.486,14.037.517a1.772,1.772,0,0,0-2.51.009L.513,11.649a1.772,1.772,0,0,0,.009,2.5l8.947,8.91L4.5,28.026a1.772,1.772,0,0,0-.454.778L.065,43.119A1.772,1.772,0,0,0,2.257,45.3l14.315-4.066a1.772,1.772,0,0,0,.771-2.956L8.317,29.225,29.345,8.2l7.82,7.82-16.1,16.053a1.772,1.772,0,0,0,0,2.512L31.416,44.852a1.772,1.772,0,0,0,1.248.514h.008a1.772,1.772,0,0,0,1.252-.525L44.853,33.8A1.772,1.772,0,0,0,44.844,31.3ZM12.706,38.646l-8.379,2.38L6.673,32.6Zm-.731-18.091-7.7-7.669,8.521-8.6,2.812,2.8-3.491,3.548a1.772,1.772,0,0,0,2.526,2.486l3.476-3.533,2.419,2.409ZM31.851,5.692l.526-.526A5.532,5.532,0,0,1,40.2,12.988l-.529.527Zm.8,35.395-7.822-7.764,8.5-8.481,2.391,2.381-3.4,3.427a1.772,1.772,0,0,0,2.515,2.5l3.4-3.423,2.854,2.842Z" transform="translate(0 -0.001)" fill="#d2d1d1"/>
      </g>
    </g>
    <g id="_041-elearning" data-name="041-elearning" transform="translate(833.147 4684.856) rotate(17)">
      <g id="Group_101" data-name="Group 101" transform="translate(0 0)">
        <g id="Group_100" data-name="Group 100">
          <path id="Path_540" data-name="Path 540" d="M292.632,198.065a2,2,0,0,0-2-2H279a2,2,0,1,0,0,4.008h11.624A2,2,0,0,0,292.632,198.065Z" transform="translate(-249.244 -180.028)" fill="#d2d1d1"/>
          <path id="Path_541" data-name="Path 541" d="M279,276.061a2,2,0,1,0,0,4.008h7.615a2,2,0,1,0,0-4.008Z" transform="translate(-249.244 -252.012)" fill="#d2d1d1"/>
          <path id="Path_542" data-name="Path 542" d="M49.3,56.1a2,2,0,0,0,2-2V44.077a8.025,8.025,0,0,0-8.016-8.016H8.016A8.025,8.025,0,0,0,0,44.077V64.118a8.025,8.025,0,0,0,8.016,8.016H23.648v4H16.634a2,2,0,1,0,0,4.008H34.67a2,2,0,1,0,0-4.008H27.656v-4H43.288A8.025,8.025,0,0,0,51.3,64.118a2,2,0,0,0-4.008,0,4.013,4.013,0,0,1-4.008,4.008H8.016a4.013,4.013,0,0,1-4.008-4.008V44.077a4.013,4.013,0,0,1,4.008-4.008H43.288A4.013,4.013,0,0,1,47.3,44.077V54.1A2,2,0,0,0,49.3,56.1Z" transform="translate(0 -36.061)" fill="#d2d1d1"/>
          <path id="Path_543" data-name="Path 543" d="M92.628,196.061H81a2,2,0,1,0,0,4.008H92.628a2,2,0,1,0,0-4.008Z" transform="translate(-71.084 -180.028)" fill="#d2d1d1"/>
          <path id="Path_544" data-name="Path 544" d="M290.628,116.061H279a2,2,0,1,0,0,4.008h11.624a2,2,0,0,0,0-4.008Z" transform="translate(-249.244 -108.045)" fill="#d2d1d1"/>
          <path id="Path_545" data-name="Path 545" d="M92.628,116.061H81a2,2,0,0,0,0,4.008H92.628a2,2,0,0,0,0-4.008Z" transform="translate(-71.084 -108.045)" fill="#d2d1d1"/>
          <path id="Path_546" data-name="Path 546" d="M92.628,276.061H81a2,2,0,1,0,0,4.008H92.628a2,2,0,1,0,0-4.008Z" transform="translate(-71.084 -252.012)" fill="#d2d1d1"/>
        </g>
      </g>
    </g>
    <g id="_037-exam" data-name="037-exam" transform="translate(994.211 4559.83) rotate(-31)">
      <g id="Group_99" data-name="Group 99" transform="translate(0)">
        <g id="Group_98" data-name="Group 98">
          <path id="Path_537" data-name="Path 537" d="M83.542,27.808a1.58,1.58,0,0,0,1.58-1.58V6.32A6.327,6.327,0,0,0,78.8,0H59.376a6.327,6.327,0,0,0-6.32,6.32V34.128a6.327,6.327,0,0,0,6.32,6.32H78.8a6.327,6.327,0,0,0,6.32-6.32,1.58,1.58,0,0,0-3.16,0,3.164,3.164,0,0,1-3.16,3.16H59.376a3.164,3.164,0,0,1-3.16-3.16V6.32a3.164,3.164,0,0,1,3.16-3.16H78.8a3.164,3.164,0,0,1,3.16,3.16V26.228A1.58,1.58,0,0,0,83.542,27.808Z" transform="translate(-53.056)" fill="#d2d1d1"/>
          <path id="Path_538" data-name="Path 538" d="M130.844,187.035a1.58,1.58,0,0,0,1.58-1.58V178.74a4.74,4.74,0,1,0-9.48,0v6.715a1.58,1.58,0,0,0,3.16,0v-2.291h3.16v2.291A1.58,1.58,0,0,0,130.844,187.035ZM126.1,180V178.74a1.58,1.58,0,0,1,3.16,0V180Z" transform="translate(-117.423 -160.254)" fill="#d2d1d1"/>
          <path id="Path_539" data-name="Path 539" d="M273.684,205.48a1.58,1.58,0,0,0,1.58-1.58v-1.58h1.58a1.58,1.58,0,1,0,0-3.16h-1.58v-1.58a1.58,1.58,0,1,0-3.16,0v1.58h-1.58a1.58,1.58,0,0,0,0,3.16h1.58v1.58A1.58,1.58,0,0,0,273.684,205.48Z" transform="translate(-251.889 -180.516)" fill="#d2d1d1"/>
        </g>
      </g>
    </g>
    <g id="_027-magnet" data-name="027-magnet" transform="translate(703.32 5450.149) rotate(22)">
      <g id="Group_97" data-name="Group 97" transform="translate(0)">
        <g id="Group_96" data-name="Group 96">
          <path id="Path_535" data-name="Path 535" d="M193.121,222.159h-3.265l2.58-4.159h-5l-3.249,5.793a1.414,1.414,0,0,0,1.249,2.1h2.832l-1.895,5.252a.43.43,0,0,0-.043.177c0,.222.191.353.438.353a.7.7,0,0,0,.477-.19l6.656-7.615A1.034,1.034,0,0,0,193.121,222.159Z" transform="translate(-172.377 -202.631)" fill="#d2d1d1"/>
          <path id="Path_536" data-name="Path 536" d="M51.59,11.167a16.7,16.7,0,0,0-32.4,6.94l1.415,16.7a1.41,1.41,0,0,0,1.4,1.291h5.71a1.41,1.41,0,0,0,1.409-1.474L28.388,18.2q0-.028,0-.055a7.472,7.472,0,1,1,14.89,0c0,.016,0,.033,0,.049l-.813,16.426a1.41,1.41,0,0,0,1.408,1.48h5.781a1.41,1.41,0,0,0,1.4-1.291l.478-5.64a1.41,1.41,0,0,0-1.4-1.529h-4.5l.459-9.283a10.292,10.292,0,1,0-20.514,0l.42,9.286H22.829L22,17.869a13.878,13.878,0,1,1,27.656,0l-.328,3.866a1.41,1.41,0,0,0,2.81.238l.328-3.866A16.572,16.572,0,0,0,51.59,11.167Zm-6.1,19.289h3.1l-.239,2.82h-3Zm-19.368,0,.127,2.82h-2.94l-.239-2.82Z" transform="translate(-19.13 0)" fill="#d2d1d1"/>
        </g>
      </g>
    </g>
    <g id="_057-mortarboard" data-name="057-mortarboard" transform="translate(1132 5382)">
      <g id="Group_92" data-name="Group 92" transform="translate(0 0)">
        <path id="Path_531" data-name="Path 531" d="M90.533,44.352C75.719,29.538,67.615,26.118,67.277,25.98l-.387-.2,6.694-14.069c1.689-3.569,1.275-7.249-1.08-9.6s-6.035-2.769-9.6-1.084L30.068,16.473A29.322,29.322,0,0,0,16.52,30.021l-.032.069L.358,66.134a3.576,3.576,0,0,0-.312,1.461V87.975a3.576,3.576,0,0,0,7.151,0V75.7l18.855-8.966.125.311c.138.346,3.558,8.637,18.383,23.462a3.575,3.575,0,0,0,4.848.193A69.386,69.386,0,0,1,75.59,78.027a3.575,3.575,0,0,0,2.645-2.645A66.418,66.418,0,0,1,82.5,63.347,3.576,3.576,0,0,0,75.986,60.4a77.058,77.058,0,0,0-4.161,11.209,78.114,78.114,0,0,0-24.4,11.606C35.962,71.338,32.969,64.731,32.812,64.374l-.266-.731,11.925-5.67A29.316,29.316,0,0,0,58.016,44.431l5.812-12.214.738.38-.027-.011c.072.031,7.361,3.247,20.937,16.823a3.576,3.576,0,0,0,5.057-5.057ZM51.556,41.366A21.956,21.956,0,0,1,41.407,51.512L13.716,64.679,39.436,38.267a3.576,3.576,0,1,0-5.123-4.989L13.189,54.969,23,33.047A21.949,21.949,0,0,1,33.119,22.94L65.958,7.493a2.387,2.387,0,0,1,1.48-.318,2.375,2.375,0,0,1-.315,1.473Z" transform="translate(-0.046 0)" fill="#d2d1d1"/>
      </g>
    </g>
    <g id="_050-trigonometry" data-name="050-trigonometry" transform="matrix(0.966, 0.259, -0.259, 0.966, 114.658, 5185.777)">
      <g id="Group_91" data-name="Group 91" transform="translate(0 0)">
        <path id="Path_530" data-name="Path 530" d="M98.529,82.482l-.031-.031L85.356,69.595a3.979,3.979,0,0,0-5.683.12,40.655,40.655,0,0,0-10.7,24.214H29.05V76.817a3.979,3.979,0,0,0-3.979-3.979H7.959V33a35.2,35.2,0,0,0,21.094-8.83L66.436,61.334a3.979,3.979,0,1,0,5.611-5.644L19.4,3.358A11.191,11.191,0,0,0,7.017.894,11.192,11.192,0,0,0,0,11.4V85.969a15.936,15.936,0,0,0,15.918,15.918H90.491a11.367,11.367,0,0,0,8.038-19.4ZM7.959,11.4a3.408,3.408,0,0,1,5.827-2.4l9.61,9.553A27.266,27.266,0,0,1,7.959,25.021V11.4ZM21.091,93.928H15.918a7.968,7.968,0,0,1-7.959-7.959V80.8H21.091V93.928Zm72.549-2.1a3.343,3.343,0,0,1-3.149,2.1H76.964a32.877,32.877,0,0,1,5.922-15.615l10.028,9.81A3.343,3.343,0,0,1,93.64,91.824Z" transform="translate(0 0)" fill="#d2d1d1"/>
      </g>
    </g>
    <g id="_048-drafting" data-name="048-drafting" transform="translate(1629.226 4660.998) rotate(30)">
      <g id="Group_90" data-name="Group 90" transform="translate(0)">
        <path id="Path_529" data-name="Path 529" d="M122.076,68.418h-13.6l-6.409-15.182a3.955,3.955,0,1,0-7.287,3.076l5.111,12.106H87.273V64.464a3.955,3.955,0,0,0-7.91,0v3.955H66.9L76.706,45A17.8,17.8,0,1,0,87.273,11.122V3.955a3.955,3.955,0,0,0-7.91,0v7.167a17.786,17.786,0,0,0-9.287,29.229L58.325,68.418H44.957a3.955,3.955,0,0,0,0,7.91H55.013L46.877,95.761a3.955,3.955,0,1,0,7.3,3.055l9.415-22.488H79.364v3.955a3.955,3.955,0,0,0,7.91,0V76.328h15.958l9.5,22.5a3.955,3.955,0,1,0,7.286-3.076l-8.2-19.422h10.259a3.955,3.955,0,1,0,0-7.91ZM83.319,18.588a9.887,9.887,0,1,1-9.887,9.887A9.9,9.9,0,0,1,83.319,18.588Z" transform="translate(-41.002)" fill="#d2d1d1"/>
      </g>
    </g>
    <g id="_020-rocket" data-name="020-rocket" transform="matrix(0.966, -0.259, 0.259, 0.966, 503.999, 4668.538)">
      <g id="Group_84" data-name="Group 84" transform="translate(0.001 0)">
        <g id="Group_83" data-name="Group 83" transform="translate(0 0)">
          <path id="Path_520" data-name="Path 520" d="M259.086,136.167a7.307,7.307,0,1,0,10.334,0A7.316,7.316,0,0,0,259.086,136.167Zm6.889,6.889a2.435,2.435,0,1,1,0-3.445A2.438,2.438,0,0,1,265.976,143.056Z" transform="translate(-225.656 -117.707)" fill="#d2d1d1"/>
          <path id="Path_521" data-name="Path 521" d="M60.359,2.094A6.907,6.907,0,0,0,54.7.035,54.735,54.735,0,0,0,42.224,2.757a36.936,36.936,0,0,0-13.75,8.282l-.024.024-.494.5-26.269,8.5A2.436,2.436,0,0,0,.715,24.1L12.6,35.982A12.1,12.1,0,0,0,5.79,39.407c-1.957,1.957-3.466,5.914-4.615,12.1C.378,55.8.062,59.561.049,59.719a2.436,2.436,0,0,0,2.427,2.636c.067,0,.134,0,.2-.008.158-.013,3.92-.329,8.215-1.127,6.183-1.149,10.14-2.658,12.1-4.615a12.1,12.1,0,0,0,3.427-6.826L38.291,61.643a2.436,2.436,0,0,0,4.05-1.007L50.435,34.33a2.436,2.436,0,0,0-1.612-3.044c-.041-.013-.082-.021-.123-.031a2.435,2.435,0,0,0-2.691.525L30.744,47.217,15.021,31.51l15.8-15.917a2.425,2.425,0,0,0,.422-.425l.656-.661c7.22-7.066,17.691-9.063,23.292-9.624a2.042,2.042,0,0,1,1.688.616,2.141,2.141,0,0,1,.592,1.769,47.978,47.978,0,0,1-4.256,14.921,2.436,2.436,0,1,0,4.373,2.146A52.888,52.888,0,0,0,62.3,7.865,6.988,6.988,0,0,0,60.359,2.094ZM43.079,41.671,38.873,55.339,34.19,50.66ZM16.9,42.844a1.877,1.877,0,0,1,2.333-.245l.568.567a1.877,1.877,0,0,1-.243,2.333,11.422,11.422,0,0,1-3.8,1.125A11.373,11.373,0,0,1,16.9,42.844Zm0,8.523a17.715,17.715,0,0,0,4.49-1.314,7.243,7.243,0,0,1-1.84,3.108C17.7,55,10.833,56.476,5.213,57.182c.707-5.62,2.181-12.489,4.022-14.33a7.25,7.25,0,0,1,3.106-1.843,17.814,17.814,0,0,0-1.329,4.459c-.372,1.967-.523,3.7-.529,3.77a2.436,2.436,0,0,0,2.427,2.644c.064,0,.128,0,.193-.008S14.916,51.728,16.894,51.366Zm-5.319-23.3-4.6-4.595L20.469,19.1Z" transform="translate(-0.001 0)" fill="#d2d1d1"/>
          <circle id="Ellipse_24" data-name="Ellipse 24" cx="2.374" cy="2.374" r="2.374" transform="translate(45.905 11.872)" fill="#d2d1d1"/>
        </g>
      </g>
    </g>
    <g id="_014-medal" data-name="014-medal" transform="matrix(0.966, -0.259, 0.259, 0.966, 300.966, 4931.98)">
      <g id="Group_80" data-name="Group 80" transform="translate(42.499)">
        <g id="Group_79" data-name="Group 79" transform="translate(0)">
          <path id="Path_516" data-name="Path 516" d="M122.615,22.613,112.686,5.821a3.776,3.776,0,0,0-1.892-1.6C110.348,4.047,99.669,0,83.1,0,66.577,0,55.293,4.021,54.82,4.192a3.776,3.776,0,0,0-1.981,1.657L43.008,22.816a3.777,3.777,0,0,0,.27,4.191L61.994,51.438A27.383,27.383,0,0,0,93.9,94.317a3.777,3.777,0,1,0-3.086-6.9,19.8,19.8,0,1,1,10.651-11.607,3.777,3.777,0,1,0,7.137,2.476,27.382,27.382,0,0,0-4.868-26.526L122.39,26.8A3.777,3.777,0,0,0,122.615,22.613ZM67.681,46.441,50.811,24.418,56.89,13.926,77.747,42.381A27.227,27.227,0,0,0,67.681,46.441ZM74.7,25.448a60.5,60.5,0,0,1,8.968-.708,3.777,3.777,0,1,0,0-7.554A65.933,65.933,0,0,0,71.17,18.4a3.76,3.76,0,0,0-1.251.52l-6.744-9.2A91.931,91.931,0,0,1,83.1,7.554a86.489,86.489,0,0,1,19.763,2.218l-19.575,27.4Zm23.41,21.22a27.248,27.248,0,0,0-9.407-4.083L108.92,14.294l5.911,10Z" transform="translate(-42.499)" fill="#d2d1d1"/>
          <path id="Path_517" data-name="Path 517" d="M220.565,326.552a3.777,3.777,0,0,0,3.777-3.777v-17a3.777,3.777,0,0,0-6.448-2.671l-5.288,5.288a3.778,3.778,0,0,0,4.182,6.134v8.246A3.777,3.777,0,0,0,220.565,326.552Z" transform="translate(-179.583 -244.966)" fill="#d2d1d1"/>
        </g>
      </g>
    </g>
    <g id="_007-paragraph" data-name="007-paragraph" transform="translate(1606.877 5152.297) rotate(-30)">
      <g id="Group_77" data-name="Group 77" transform="translate(116.421)">
        <path id="Path_514" data-name="Path 514" d="M177.142,52.549a22.084,22.084,0,0,0-11.533-12.727,4.441,4.441,0,0,0-.416-.173l-16.458-5.884q-.13-.047-.263-.085l-.28-.083a22.692,22.692,0,0,0-3.148-1.131c-4.227-1.758-10.44-5.351-10.44-11.278A12.5,12.5,0,0,1,147.243,8.869h2.328c7.273,0,12.971,5.454,12.971,12.416a4.434,4.434,0,1,0,8.869,0,20.872,20.872,0,0,0-6.456-15.156A22.032,22.032,0,0,0,149.571,0h-2.328a21.373,21.373,0,0,0-21.507,21.188,17.747,17.747,0,0,0,4.818,12.057,22.287,22.287,0,0,0-11.849,10.84,21.376,21.376,0,0,0-1.11,16.59A22.084,22.084,0,0,0,129.128,73.4a4.456,4.456,0,0,0,.434.179L147.1,79.763c.081.029.162.055.245.078,2.316.668,13.868,4.411,13.868,12.492a12.5,12.5,0,0,1-12.638,12.319h-2.328c-7.273,0-12.971-5.454-12.971-12.416a4.434,4.434,0,0,0-8.869,0,20.872,20.872,0,0,0,6.456,15.156,22.035,22.035,0,0,0,15.383,6.128h2.328A21.373,21.373,0,0,0,170.08,92.333c0-5.479-2.528-10.473-7.312-14.443a36.5,36.5,0,0,0-12.839-6.534L132.747,65.3a13.258,13.258,0,0,1-6.771-7.525,12.573,12.573,0,0,1,.677-9.755,13.752,13.752,0,0,1,15.5-7.14q1.423.567,2.913,1.035a4.426,4.426,0,0,0,.913.284l16,5.72a13.258,13.258,0,0,1,6.779,7.53,12.573,12.573,0,0,1-.677,9.755,4.434,4.434,0,1,0,7.948,3.935A21.374,21.374,0,0,0,177.142,52.549Z" transform="translate(-116.421)" fill="#d2d1d1"/>
      </g>
    </g>
    <g id="Group_89" data-name="Group 89" transform="translate(1226.433 4545.436) rotate(30)">
      <path id="Path_528" data-name="Path 528" d="M144.088,24.721A84.4,84.4,0,0,0,24.721,144.088a84.437,84.437,0,0,0,103.357,12.557,6.594,6.594,0,0,0-6.833-11.28A70.973,70.973,0,0,1,91,155.314V91h23.694a83.622,83.622,0,0,0,6.4,26.311,6.594,6.594,0,0,0,12.143-5.145A70.5,70.5,0,0,1,127.929,91h27.382a71.11,71.11,0,0,1-11.767,32.933,6.594,6.594,0,1,0,10.963,7.33A84.2,84.2,0,0,0,144.088,24.721ZM13.5,91H40.874A71.253,71.253,0,0,1,27.2,126.782,70.823,70.823,0,0,1,13.5,91ZM77.81,155.313a70.97,70.97,0,0,1-41.636-18.56A84.438,84.438,0,0,0,54.108,91h23.7Zm0-77.5H54.116a83.645,83.645,0,0,0-6.251-25.954A6.594,6.594,0,0,0,35.7,56.946,70.511,70.511,0,0,1,40.88,77.81H13.5A71.335,71.335,0,0,1,77.81,13.5Zm36.89,0H91V13.5a70.97,70.97,0,0,1,41.634,18.558A84.339,84.339,0,0,0,114.7,77.81Zm13.233,0A71.155,71.155,0,0,1,141.606,42.03,70.825,70.825,0,0,1,155.313,77.81Z" fill="#ec672a"/>
    </g>
    <g id="_026-art" data-name="026-art" transform="translate(1548.407 5128.308) rotate(30)">
      <g id="Group_86" data-name="Group 86" transform="translate(0 0.011)">
        <g id="Group_85" data-name="Group 85">
          <path id="Path_522" data-name="Path 522" d="M204.585,57.159c-2.209-20.642-13.819-32.615-26.037-42.479C161.374.816,139.55.04,138.63.014a8,8,0,0,0-7.186,11.945c5.973,10.528,3.193,18.262-.328,28.054-2.669,7.422-5.694,15.835-4.392,25.635A40.326,40.326,0,0,0,141.461,92.1c.178.142.361.274.541.412V116.6c-10.9.637-19.179,2.886-25.171,6.825-7.346,4.831-11.23,12.225-11.23,21.385,0,6.526,1.963,11.855,3.7,16.556,1.666,4.523,3.105,8.43,3.105,13.445,0,2.186-.38,6.324-2.924,9.473-2.427,3-6.556,4.527-12.277,4.527-46.292,0-81.2-37.144-81.2-86.4a86.5,86.5,0,0,1,86.4-86.4c1.829,0,3.68.058,5.5.172a8,8,0,0,0,1-15.969c-2.153-.135-4.341-.2-6.5-.2A102.4,102.4,0,0,0,0,102.412c0,27.58,9.65,53.214,27.174,72.18,18.005,19.488,42.875,30.221,70.028,30.221,13.443,0,20.865-5.7,24.724-10.474a31.041,31.041,0,0,0,6.476-19.526c0-7.868-2.174-13.769-4.091-18.975-1.513-4.108-2.709-7.352-2.709-11.025,0-3.816,1.165-6.138,4.021-8.016,2.485-1.634,7.272-3.523,16.38-4.161v47.2a24.127,24.127,0,0,0,22.824,24.941q.626.032,1.247.032a23.979,23.979,0,0,0,23.918-22.76,8,8,0,1,0-15.98-.813,7.978,7.978,0,0,1-13.888,4.941,8.035,8.035,0,0,1-2.133-5.752l.01-.2V99.736a39.219,39.219,0,0,0,7.535.734,40.269,40.269,0,0,0,4.265-.227,39.761,39.761,0,0,0,4.2-.676v44.046a8,8,0,1,0,16,0V92a39.471,39.471,0,0,0,6.12-6.086A38.881,38.881,0,0,0,204.585,57.159Zm-20.912,18.7a22.989,22.989,0,0,1-15.561,8.472,22.727,22.727,0,0,1-16.682-4.751,24.407,24.407,0,0,1-8.846-16.042c-.789-5.941,1.239-11.582,3.588-18.114,2.761-7.676,6-16.676,4.3-27.247A50.662,50.662,0,0,1,168.5,27.13c11.341,9.157,18.673,17.659,20.179,31.733A22.987,22.987,0,0,1,183.673,75.86Z" transform="translate(0 -0.011)" fill="#064290"/>
          <path id="Path_523" data-name="Path 523" d="M223.99,92.007a12,12,0,1,0,12-12A12.014,12.014,0,0,0,223.99,92.007Z" transform="translate(-134.389 -48.007)" fill="#064290"/>
          <path id="Path_524" data-name="Path 524" d="M138.486,148.495a12.02,12.02,0,0,0,0-16.979h0a12,12,0,1,0,0,16.979Z" transform="translate(-70.795 -76.805)" fill="#064290"/>
          <path id="Path_525" data-name="Path 525" d="M80,245a12,12,0,1,0,12-12A12.014,12.014,0,0,0,80,245Z" transform="translate(-47.996 -139.8)" fill="#064290"/>
          <path id="Path_526" data-name="Path 526" d="M133,356A12,12,0,1,0,124.51,335.5h0A12,12,0,0,0,133,356Z" transform="translate(-72.594 -199.194)" fill="#064290"/>
        </g>
      </g>
    </g>
    <g id="_039-physics" data-name="039-physics" transform="matrix(0.966, -0.259, 0.259, 0.966, 138.507, 4708.607)">
      <g id="Group_88" data-name="Group 88" transform="translate(0)">
        <g id="Group_87" data-name="Group 87">
          <circle id="Ellipse_25" data-name="Ellipse 25" cx="6.416" cy="6.416" r="6.416" transform="translate(93.243 30.796)" fill="#7b3886"/>
          <ellipse id="Ellipse_26" data-name="Ellipse 26" cx="6.416" cy="5.988" rx="6.416" ry="5.988" transform="translate(94.098 118.05)" fill="#7b3886"/>
          <path id="Path_527" data-name="Path 527" d="M167.194,43.919c-2.416-5.258-8.565-11.731-24.144-12.709a6.311,6.311,0,0,0-.791,12.6c7.195.452,12.1,2.413,13.466,5.382a8.951,8.951,0,0,1,1.134,4.206c-.157,3.972-3.759,10.3-10.72,18.847a167.21,167.21,0,0,0-33.653-23.432A200.333,200.333,0,0,0,77.147,34.454q.734-1.973,1.535-3.836c4.85-11.269,11.07-18,16.641-18,4.614,0,8.665,4.51,11.251,8.294a6.311,6.311,0,0,0,10.421-7.122C109.2,2.393,100.909,0,95.323,0,84.228,0,74.2,9.1,67.088,25.628q-1.224,2.842-2.305,5.905a82.536,82.536,0,0,0-21.767-.487l-.123.018c-11.359,1.814-16.463,7.26-18.744,11.509a19.573,19.573,0,0,0-2.349,9.1c-.058,4.524,1.331,9.561,4.128,14.97a6.311,6.311,0,0,0,11.212-5.8c-1.809-3.5-2.75-6.616-2.719-9.012a6.976,6.976,0,0,1,.849-3.287c1.675-3.12,6.087-4.442,9.528-5a71.459,71.459,0,0,1,16.419.241,163.046,163.046,0,0,0-4.076,37,169.98,169.98,0,0,0,4.357,36.2q-1.96.276-3.857.457c-11.821,1.114-20.6-.969-22.907-5.438a7.058,7.058,0,0,1-.629-3.189,15.347,15.347,0,0,1,1.079-5.586,6.311,6.311,0,0,0-11.792-4.5,27.881,27.881,0,0,0-1.908,10.191,19.254,19.254,0,0,0,2.036,8.876C27.76,126,37.608,130.36,51.6,130.36q3.446,0,7.222-.355,2.87-.271,5.865-.739a72.928,72.928,0,0,0,9.5,19.282C81.845,159.3,89.9,161.561,95.323,161.561c5.586,0,13.88-2.393,21.672-13.794a6.311,6.311,0,1,0-10.421-7.122c-2.586,3.784-6.637,8.294-11.251,8.294-4.444,0-8.366-4.216-10.874-7.753-.039-.055-.078-.108-.118-.162a58.432,58.432,0,0,1-7.206-14.4,174.029,174.029,0,0,0,34.821-13.66,172.346,172.346,0,0,0,33.214-22.117,6.306,6.306,0,0,0,.756-.786c6.454,7.537,10.059,14.578,9.993,19.666a7.487,7.487,0,0,1-.532,3.287c-1.689,3.146-6.16,4.464-9.614,5.015a6.312,6.312,0,0,0,.987,12.544,6.375,6.375,0,0,0,1-.08c11.36-1.813,16.464-7.26,18.745-11.51a19.3,19.3,0,0,0,2.032-9.1c.109-8.471-4.546-18.3-13.5-28.584,9.776-11.788,14.155-20.175,14.441-27.415A20.9,20.9,0,0,0,167.194,43.919ZM73.524,46.546c1.736.543,3.562,1.13,5.458,1.764l-.34.174q-3.169,1.637-6.257,3.38Q72.9,49.151,73.524,46.546Zm.339,67.9q-.49-2.237-.967-4.626,2.6,1.5,5.263,2.935c.19.1.381.2.571.3Q76.273,113.808,73.863,114.444Zm46.054-20.6c-4.38,2.791-8.993,5.447-13.764,7.911-3.7,1.911-7.414,3.67-11.105,5.267-3.649-1.648-7.319-3.455-10.919-5.387-4.746-2.547-9.353-5.3-13.712-8.175-.408-4.1-.654-8.348-.654-12.677,0-4.382.171-8.7.5-12.918,4.5-2.887,9.262-5.631,14.17-8.165,3.6-1.857,7.253-3.592,10.9-5.17,3.678,1.6,7.434,3.387,11.187,5.4,4.655,2.5,9.153,5.185,13.419,8,.348,4.1.631,8.434.631,12.853C120.566,85.274,120.273,89.677,119.918,93.841ZM136.9,81.3c-1.216,1.051-2.477,2.095-3.772,3.13.035-1.205.058-2.421.058-3.653,0-1.046-.018-2.079-.044-3.105q2.065,1.712,3.988,3.448C137.056,81.184,136.977,81.239,136.9,81.3Z" transform="translate(-21.483)" fill="#7b3886"/>
          <ellipse id="Ellipse_27" data-name="Ellipse 27" cx="6.416" cy="5.988" rx="6.416" ry="5.988" transform="translate(13.687 76.989)" fill="#7b3886"/>
        </g>
      </g>
    </g>
    <g id="_019-brain" data-name="019-brain" transform="matrix(0.966, 0.259, -0.259, 0.966, 383.491, 5268.155)">
      <g id="Group_82" data-name="Group 82" transform="translate(0.003)">
        <g id="Group_81" data-name="Group 81">
          <path id="Path_518" data-name="Path 518" d="M432.729,430.758a5.508,5.508,0,0,0-10.45,3.483,55.991,55.991,0,0,0,6.819,13.876,5.508,5.508,0,1,0,8.93-6.45A45.694,45.694,0,0,1,432.729,430.758Z" transform="translate(-305.782 -309.402)" fill="#dd1a50"/>
          <path id="Path_519" data-name="Path 519" d="M141,61.411a19.686,19.686,0,0,0-6.432-14.656,19.858,19.858,0,0,0-15.891-25.31A19.943,19.943,0,0,0,99.07,5.232,19.473,19.473,0,0,0,87.693,8.894a21.415,21.415,0,0,0-34.624-.168A19.472,19.472,0,0,0,41.934,5.232,19.943,19.943,0,0,0,22.326,21.446,19.858,19.858,0,0,0,5.6,41.03a23.924,23.924,0,0,0,1.457,7.681C2.532,53.17,0,58.636,0,64.165A19.85,19.85,0,0,0,19.831,83.993a61.044,61.044,0,0,0,9.179-.768,45.163,45.163,0,0,1,8.852-.612A19.861,19.861,0,0,0,56.457,95.56c4.389,0,9.25-.1,14.3-.525a5.534,5.534,0,0,0,.544.553c10.458,9.081,21.271,18.471,32.206,42.208a5.508,5.508,0,1,0,10-4.609,133.179,133.179,0,0,0-15.192-25.748,78.132,78.132,0,0,0,18.313,2.441,19.437,19.437,0,0,0,19.415-19.415,19.24,19.24,0,0,0-4.381-12.234A19.831,19.831,0,0,0,141,61.411Zm-19.828,8.812a5.5,5.5,0,0,0-.957.084l-4.682.826a5.508,5.508,0,0,0,.957,10.932,8.4,8.4,0,1,1,.138,16.8c-8.917,0-20.05-2.654-29.057-6.645a63.721,63.721,0,0,0,9.115-3.188,5.508,5.508,0,0,0-4.452-10.076c-11.21,4.953-25.008,5.589-35.777,5.589a8.812,8.812,0,1,1,0-17.625c7.711,0,13.555-1.21,17.866-3.7a14.69,14.69,0,0,0,7.746-13.1A16.542,16.542,0,0,0,65.545,33.6a5.508,5.508,0,1,0,0,11.016,5.514,5.514,0,0,1,5.508,5.508c0,5.032-9.145,5.783-14.6,5.783A19.86,19.86,0,0,0,37.071,71.578a57.669,57.669,0,0,0-9.6.74,50.423,50.423,0,0,1-7.635.66,8.822,8.822,0,0,1-8.812-8.812c0-4.546,4.061-8.051,5.807-9.347a5.508,5.508,0,0,0,2.216-4.727L19,49.266a5.506,5.506,0,0,0-.8-2.562,13.3,13.3,0,0,1-1.586-5.674,8.827,8.827,0,0,1,6.715-8.558,19.972,19.972,0,0,0,18.6,12.692,5.508,5.508,0,1,0,0-11.016A8.882,8.882,0,0,1,33,25.335c0-.047-.006-.091-.007-.138S33,25.106,33,25.06a8.882,8.882,0,0,1,8.93-8.812,8.463,8.463,0,0,1,6.943,3.578c-.051.611-.084,1.226-.084,1.85a5.508,5.508,0,1,0,11.016,0,10.51,10.51,0,0,1,20.831-2.127,5.507,5.507,0,0,0,5.326,4.4l.486.006a5.531,5.531,0,0,0,4.957-2.967,8.546,8.546,0,0,1,7.664-4.744,8.813,8.813,0,1,1,.118,17.625,5.508,5.508,0,0,0,0,11.016,19.855,19.855,0,0,0,18.394-12.439A8.833,8.833,0,0,1,123.126,45.6a5.506,5.506,0,0,0-.8,2.866v.275a5.507,5.507,0,0,0,3.01,4.909,8.51,8.51,0,0,1,4.655,7.759A8.823,8.823,0,0,1,121.173,70.224Z" transform="translate(-0.003)" fill="#dd1a50"/>
        </g>
      </g>
    </g>
  </g>
</svg>
