<svg xmlns="http://www.w3.org/2000/svg" width="60" height="60" viewBox="0 0 60 60">
  <path id="help" d="M15.048,18.749a7.031,7.031,0,1,0-7.031-7.031A7.04,7.04,0,0,0,15.048,18.749Zm0-9.375A2.344,2.344,0,1,1,12.7,11.718,2.347,2.347,0,0,1,15.048,9.374Zm29.132,4.687A7.031,7.031,0,1,0,37.148,7.03,7.04,7.04,0,0,0,44.179,14.062Zm0-9.375A2.344,2.344,0,1,1,41.836,7.03,2.347,2.347,0,0,1,44.179,4.687Zm-.7,16.172v30h2.109V48.866a2.344,2.344,0,0,1,2.344-2.344h4.1V41.143a2.345,2.345,0,0,0-.584-1.549l-3.988-4.531a2.345,2.345,0,0,1-.584-1.548V27.89a2.344,2.344,0,0,1,4.688,0V32.63l3.4,3.867a7.027,7.027,0,0,1,1.753,4.645v5.379h.938a2.344,2.344,0,1,1,0,4.687H50.273V53.2a2.344,2.344,0,0,1-2.344,2.344H38.32v2.109A2.344,2.344,0,0,1,35.976,60h-11.6a2.344,2.344,0,0,1-2.344-2.344V47.826l-5.214-6.384a2.345,2.345,0,0,1-.528-1.483V33.983a2.344,2.344,0,1,1,4.687,0v5.141l5.214,6.384a2.345,2.345,0,0,1,.528,1.482v8.32h6.914V53.2a2.344,2.344,0,0,1,2.344-2.344h2.812V24.279l-6.135,11.51a2.342,2.342,0,0,1-3.17.966c-.02-.011-.038-.024-.058-.035a2.322,2.322,0,0,1-.689-.452L18.14,26.191a2.335,2.335,0,0,0-1.615-.645H12.89V46.535a7.04,7.04,0,0,1-.97,3.565l-.007.012L6.7,58.855a2.344,2.344,0,0,1-4.026-2.4l5.208-8.737a2.347,2.347,0,0,0,.32-1.183v-18.7L5.053,32.8a2.339,2.339,0,0,0-.365,1.256v5.551a2.344,2.344,0,0,1-4.687,0V34.057a7.024,7.024,0,0,1,1.1-3.769l3.972-6.254.028-.043a7.018,7.018,0,0,1,5.851-3.131h5.579a7,7,0,0,1,4.845,1.936l8.559,8.139,5.833-10.942a6.243,6.243,0,0,1,5.486-3.82H48.91l5.764-6.113a2.334,2.334,0,0,0,.639-1.608V2.343a2.344,2.344,0,1,1,4.687,0V8.45a7,7,0,0,1-1.915,4.823l-6.458,6.849a2.343,2.343,0,0,1-1.705.736H43.476Zm0,0" transform="translate(0 0.001)" fill="#064290"/>
</svg>
