<svg xmlns="http://www.w3.org/2000/svg" width="1767.118" height="952.813" viewBox="0 0 1767.118 952.813">
  <g id="Group_134" data-name="Group 134" transform="translate(-50.945 -4543.314)">
    <g id="_010-beta" data-name="010-beta" transform="matrix(0.966, 0.259, -0.259, 0.966, 1248.026, 5180.605)">
      <g id="Group_95" data-name="Group 95" transform="translate(0)">
        <path id="Path_534" data-name="Path 534" d="M100.248,18.193a10.459,10.459,0,1,0-17.5-7.772L82.7,11.5c0,.026,0,.051,0,.077V41.2a2.5,2.5,0,0,1-5,0,1.852,1.852,0,1,0-3.7,0,6.2,6.2,0,1,0,12.406,0V38.5a12.487,12.487,0,0,0,17.3.287,1.852,1.852,0,1,0-2.52-2.713,8.8,8.8,0,0,1-14.78-6.445V11.611l.045-1.072c0-.026,0-.051,0-.077a6.758,6.758,0,1,1,7.35,6.733l-.668.027a1.852,1.852,0,0,0,.076,3.7q.416,0,.823-.032l1.4-.057A8.805,8.805,0,0,1,104,29.625a1.852,1.852,0,0,0,3.7,0A12.516,12.516,0,0,0,100.248,18.193Z" transform="translate(-64.941 33.807)" fill="#d2d1d1"/>
      </g>
    </g>
    <g id="_009-award" data-name="009-award" transform="matrix(0.891, 0.454, -0.454, 0.891, 1409.97, 4931.588)">
      <g id="Group_94" data-name="Group 94" transform="translate(0)">
        <g id="Group_93" data-name="Group 93">
          <path id="Path_532" data-name="Path 532" d="M56.826,5.2a2.243,2.243,0,0,0-1.641-.714h-9.1q.022-1.1.022-2.243A2.243,2.243,0,0,0,43.864,0H13.589a2.243,2.243,0,0,0-2.243,2.243q0,1.146.022,2.243h-9.1a2.243,2.243,0,0,0-2.237,2.4,27.813,27.813,0,0,0,3.22,9.951,36.893,36.893,0,0,0,6.5,8.838,45.643,45.643,0,0,0,11.65,8.4c2.07,2.451,4.015,4.786,5.083,7.84v3.646a31.423,31.423,0,0,0-4.333,1.532c-5.779,2.575-6.992,5.813-6.992,8.075A2.243,2.243,0,0,0,17.4,57.411H39.827a2.243,2.243,0,0,0,2.243-2.243c0-2.2-1.189-5.382-6.852-8a31.654,31.654,0,0,0-4.249-1.576V41.744c1.053-2.993,2.975-5.258,5.016-7.636A43.591,43.591,0,0,0,50.6,22.388a2.243,2.243,0,0,0-3.526-2.772,34.936,34.936,0,0,1-4.6,4.8A45.545,45.545,0,0,0,45.889,8.97h6.6c-.126.49-.286,1.041-.488,1.644a2.243,2.243,0,1,0,4.254,1.422,22.635,22.635,0,0,0,1.17-5.149A2.243,2.243,0,0,0,56.826,5.2ZM7.331,14.968a27.563,27.563,0,0,1-2.367-6h6.6a45.493,45.493,0,0,0,3.422,15.48A33.025,33.025,0,0,1,7.331,14.968ZM36.156,52.925H21.039a13.468,13.468,0,0,1,2.877-1.709,28.024,28.024,0,0,1,4.8-1.6A21.557,21.557,0,0,1,36.156,52.925Zm.116-26.43a43.519,43.519,0,0,1-3.59,4.576,42.756,42.756,0,0,0-4,5.174,45.3,45.3,0,0,0-3.968-5.194A46.127,46.127,0,0,1,21.181,26.5c-3.495-5.359-5.122-12.023-5.328-22.011H41.6C41.393,14.473,39.766,21.137,36.271,26.5Z" transform="translate(-0.021)" fill="#d2d1d1"/>
          <path id="Path_533" data-name="Path 533" d="M209.383,87.54v6.243a2.243,2.243,0,1,0,4.485,0V83.243a2.243,2.243,0,0,0-3.529-1.837l-3.364,2.355a2.243,2.243,0,0,0,2.407,3.78Z" transform="translate(-182.921 -71.918)" fill="#d2d1d1"/>
        </g>
      </g>
    </g>
    <g id="_055-molecule" data-name="055-molecule" transform="translate(267.204 5145.979) rotate(-45)">
      <g id="Group_103" data-name="Group 103" transform="translate(0)">
        <path id="Path_548" data-name="Path 548" d="M49.812,43.2a6.623,6.623,0,0,0-6.233,4.408H38.964A6.606,6.606,0,0,0,31.3,43.357l-2.437-4.086a6.592,6.592,0,0,0,0-8.232l2.381-4.1a6.605,6.605,0,0,0,1.487.171,2.2,2.2,0,1,0,0-4.408,2.2,2.2,0,1,1,2.2-2.2,2.2,2.2,0,0,0,2.2,2.2c.056,0,.111,0,.165-.008s.11.008.165.008h6.11a6.623,6.623,0,0,0,6.233,4.408,2.2,2.2,0,1,0,0-4.408,2.2,2.2,0,1,1,2.2-2.2,2.2,2.2,0,1,0,4.408,0,6.612,6.612,0,0,0-12.845-2.2H38.964A6.606,6.606,0,0,0,30.9,14.145L28.227,10.4a6.612,6.612,0,1,0-3.585,2.564l2.675,3.745a6.591,6.591,0,0,0,.208,7.857l-2.4,4.134a6.605,6.605,0,0,0-7.663,4.251H12.845a6.612,6.612,0,1,0-6.233,8.816,2.2,2.2,0,0,0,0-4.408,2.2,2.2,0,1,1,2.2-2.2,2.2,2.2,0,0,0,2.2,2.2h6.44a6.606,6.606,0,0,0,7.664,4.251L27.562,45.7A6.607,6.607,0,0,0,32.73,56.424a2.2,2.2,0,0,0,0-4.408,2.2,2.2,0,1,1,2.2-2.2,2.2,2.2,0,0,0,2.2,2.2c.056,0,.111,0,.165-.008s.11.008.165.008h6.11a6.623,6.623,0,0,0,6.233,4.408,2.2,2.2,0,1,0,0-4.408,2.2,2.2,0,1,1,2.2-2.2,2.2,2.2,0,1,0,4.408,0A6.62,6.62,0,0,0,49.812,43.2Zm-27-34.384a2.2,2.2,0,1,1,2.2-2.2A2.207,2.207,0,0,1,22.812,8.816Zm.882,28.543a2.2,2.2,0,1,1,2.2-2.2A2.207,2.207,0,0,1,23.694,37.359Z" transform="translate(0)" fill="#d2d1d1"/>
      </g>
    </g>
    <g id="_054-study" data-name="054-study" transform="matrix(0.966, -0.259, 0.259, 0.966, 50.945, 4898.254)">
      <g id="Group_102" data-name="Group 102" transform="translate(0 0)">
        <path id="Path_547" data-name="Path 547" d="M44.844,31.3l-9-8.963L42.707,15.5A9.077,9.077,0,1,0,29.871,2.659L23.043,9.486,14.037.517a1.772,1.772,0,0,0-2.51.009L.513,11.649a1.772,1.772,0,0,0,.009,2.5l8.947,8.91L4.5,28.026a1.772,1.772,0,0,0-.454.778L.065,43.119A1.772,1.772,0,0,0,2.257,45.3l14.315-4.066a1.772,1.772,0,0,0,.771-2.956L8.317,29.225,29.345,8.2l7.82,7.82-16.1,16.053a1.772,1.772,0,0,0,0,2.512L31.416,44.852a1.772,1.772,0,0,0,1.248.514h.008a1.772,1.772,0,0,0,1.252-.525L44.853,33.8A1.772,1.772,0,0,0,44.844,31.3ZM12.706,38.646l-8.379,2.38L6.673,32.6Zm-.731-18.091-7.7-7.669,8.521-8.6,2.812,2.8-3.491,3.548a1.772,1.772,0,0,0,2.526,2.486l3.476-3.533,2.419,2.409ZM31.851,5.692l.526-.526A5.532,5.532,0,0,1,40.2,12.988l-.529.527Zm.8,35.395-7.822-7.764,8.5-8.481,2.391,2.381-3.4,3.427a1.772,1.772,0,0,0,2.515,2.5l3.4-3.423,2.854,2.842Z" transform="translate(0 -0.001)" fill="#d2d1d1"/>
      </g>
    </g>
    <g id="_041-elearning" data-name="041-elearning" transform="translate(833.147 4684.856) rotate(17)">
      <g id="Group_101" data-name="Group 101" transform="translate(0 0)">
        <g id="Group_100" data-name="Group 100">
          <path id="Path_540" data-name="Path 540" d="M292.632,198.065a2,2,0,0,0-2-2H279a2,2,0,1,0,0,4.008h11.624A2,2,0,0,0,292.632,198.065Z" transform="translate(-249.244 -180.028)" fill="#d2d1d1"/>
          <path id="Path_541" data-name="Path 541" d="M279,276.061a2,2,0,1,0,0,4.008h7.615a2,2,0,1,0,0-4.008Z" transform="translate(-249.244 -252.012)" fill="#d2d1d1"/>
          <path id="Path_542" data-name="Path 542" d="M49.3,56.1a2,2,0,0,0,2-2V44.077a8.025,8.025,0,0,0-8.016-8.016H8.016A8.025,8.025,0,0,0,0,44.077V64.118a8.025,8.025,0,0,0,8.016,8.016H23.648v4H16.634a2,2,0,1,0,0,4.008H34.67a2,2,0,1,0,0-4.008H27.656v-4H43.288A8.025,8.025,0,0,0,51.3,64.118a2,2,0,0,0-4.008,0,4.013,4.013,0,0,1-4.008,4.008H8.016a4.013,4.013,0,0,1-4.008-4.008V44.077a4.013,4.013,0,0,1,4.008-4.008H43.288A4.013,4.013,0,0,1,47.3,44.077V54.1A2,2,0,0,0,49.3,56.1Z" transform="translate(0 -36.061)" fill="#d2d1d1"/>
          <path id="Path_543" data-name="Path 543" d="M92.628,196.061H81a2,2,0,1,0,0,4.008H92.628a2,2,0,1,0,0-4.008Z" transform="translate(-71.084 -180.028)" fill="#d2d1d1"/>
          <path id="Path_544" data-name="Path 544" d="M290.628,116.061H279a2,2,0,1,0,0,4.008h11.624a2,2,0,0,0,0-4.008Z" transform="translate(-249.244 -108.045)" fill="#d2d1d1"/>
          <path id="Path_545" data-name="Path 545" d="M92.628,116.061H81a2,2,0,0,0,0,4.008H92.628a2,2,0,0,0,0-4.008Z" transform="translate(-71.084 -108.045)" fill="#d2d1d1"/>
          <path id="Path_546" data-name="Path 546" d="M92.628,276.061H81a2,2,0,1,0,0,4.008H92.628a2,2,0,1,0,0-4.008Z" transform="translate(-71.084 -252.012)" fill="#d2d1d1"/>
        </g>
      </g>
    </g>
    <g id="_037-exam" data-name="037-exam" transform="translate(994.211 4559.83) rotate(-31)">
      <g id="Group_99" data-name="Group 99" transform="translate(0)">
        <g id="Group_98" data-name="Group 98">
          <path id="Path_537" data-name="Path 537" d="M83.542,27.808a1.58,1.58,0,0,0,1.58-1.58V6.32A6.327,6.327,0,0,0,78.8,0H59.376a6.327,6.327,0,0,0-6.32,6.32V34.128a6.327,6.327,0,0,0,6.32,6.32H78.8a6.327,6.327,0,0,0,6.32-6.32,1.58,1.58,0,0,0-3.16,0,3.164,3.164,0,0,1-3.16,3.16H59.376a3.164,3.164,0,0,1-3.16-3.16V6.32a3.164,3.164,0,0,1,3.16-3.16H78.8a3.164,3.164,0,0,1,3.16,3.16V26.228A1.58,1.58,0,0,0,83.542,27.808Z" transform="translate(-53.056)" fill="#d2d1d1"/>
          <path id="Path_538" data-name="Path 538" d="M130.844,187.035a1.58,1.58,0,0,0,1.58-1.58V178.74a4.74,4.74,0,1,0-9.48,0v6.715a1.58,1.58,0,0,0,3.16,0v-2.291h3.16v2.291A1.58,1.58,0,0,0,130.844,187.035ZM126.1,180V178.74a1.58,1.58,0,0,1,3.16,0V180Z" transform="translate(-117.423 -160.254)" fill="#d2d1d1"/>
          <path id="Path_539" data-name="Path 539" d="M273.684,205.48a1.58,1.58,0,0,0,1.58-1.58v-1.58h1.58a1.58,1.58,0,1,0,0-3.16h-1.58v-1.58a1.58,1.58,0,1,0-3.16,0v1.58h-1.58a1.58,1.58,0,0,0,0,3.16h1.58v1.58A1.58,1.58,0,0,0,273.684,205.48Z" transform="translate(-251.889 -180.516)" fill="#d2d1d1"/>
        </g>
      </g>
    </g>
    <g id="_027-magnet" data-name="027-magnet" transform="translate(703.32 5450.149) rotate(22)">
      <g id="Group_97" data-name="Group 97" transform="translate(0)">
        <g id="Group_96" data-name="Group 96">
          <path id="Path_535" data-name="Path 535" d="M193.121,222.159h-3.265l2.58-4.159h-5l-3.249,5.793a1.414,1.414,0,0,0,1.249,2.1h2.832l-1.895,5.252a.43.43,0,0,0-.043.177c0,.222.191.353.438.353a.7.7,0,0,0,.477-.19l6.656-7.615A1.034,1.034,0,0,0,193.121,222.159Z" transform="translate(-172.377 -202.631)" fill="#d2d1d1"/>
          <path id="Path_536" data-name="Path 536" d="M51.59,11.167a16.7,16.7,0,0,0-32.4,6.94l1.415,16.7a1.41,1.41,0,0,0,1.4,1.291h5.71a1.41,1.41,0,0,0,1.409-1.474L28.388,18.2q0-.028,0-.055a7.472,7.472,0,1,1,14.89,0c0,.016,0,.033,0,.049l-.813,16.426a1.41,1.41,0,0,0,1.408,1.48h5.781a1.41,1.41,0,0,0,1.4-1.291l.478-5.64a1.41,1.41,0,0,0-1.4-1.529h-4.5l.459-9.283a10.292,10.292,0,1,0-20.514,0l.42,9.286H22.829L22,17.869a13.878,13.878,0,1,1,27.656,0l-.328,3.866a1.41,1.41,0,0,0,2.81.238l.328-3.866A16.572,16.572,0,0,0,51.59,11.167Zm-6.1,19.289h3.1l-.239,2.82h-3Zm-19.368,0,.127,2.82h-2.94l-.239-2.82Z" transform="translate(-19.13 0)" fill="#d2d1d1"/>
        </g>
      </g>
    </g>
    <g id="_057-mortarboard" data-name="057-mortarboard" transform="translate(1132 5382)">
      <g id="Group_92" data-name="Group 92" transform="translate(0 0)">
        <path id="Path_531" data-name="Path 531" d="M90.533,44.352C75.719,29.538,67.615,26.118,67.277,25.98l-.387-.2,6.694-14.069c1.689-3.569,1.275-7.249-1.08-9.6s-6.035-2.769-9.6-1.084L30.068,16.473A29.322,29.322,0,0,0,16.52,30.021l-.032.069L.358,66.134a3.576,3.576,0,0,0-.312,1.461V87.975a3.576,3.576,0,0,0,7.151,0V75.7l18.855-8.966.125.311c.138.346,3.558,8.637,18.383,23.462a3.575,3.575,0,0,0,4.848.193A69.386,69.386,0,0,1,75.59,78.027a3.575,3.575,0,0,0,2.645-2.645A66.418,66.418,0,0,1,82.5,63.347,3.576,3.576,0,0,0,75.986,60.4a77.058,77.058,0,0,0-4.161,11.209,78.114,78.114,0,0,0-24.4,11.606C35.962,71.338,32.969,64.731,32.812,64.374l-.266-.731,11.925-5.67A29.316,29.316,0,0,0,58.016,44.431l5.812-12.214.738.38-.027-.011c.072.031,7.361,3.247,20.937,16.823a3.576,3.576,0,0,0,5.057-5.057ZM51.556,41.366A21.956,21.956,0,0,1,41.407,51.512L13.716,64.679,39.436,38.267a3.576,3.576,0,1,0-5.123-4.989L13.189,54.969,23,33.047A21.949,21.949,0,0,1,33.119,22.94L65.958,7.493a2.387,2.387,0,0,1,1.48-.318,2.375,2.375,0,0,1-.315,1.473Z" transform="translate(-0.046 0)" fill="#d2d1d1"/>
      </g>
    </g>
    <g id="_050-trigonometry" data-name="050-trigonometry" transform="matrix(0.966, 0.259, -0.259, 0.966, 114.658, 5185.777)">
      <g id="Group_91" data-name="Group 91" transform="translate(0 0)">
        <path id="Path_530" data-name="Path 530" d="M98.529,82.482l-.031-.031L85.356,69.595a3.979,3.979,0,0,0-5.683.12,40.655,40.655,0,0,0-10.7,24.214H29.05V76.817a3.979,3.979,0,0,0-3.979-3.979H7.959V33a35.2,35.2,0,0,0,21.094-8.83L66.436,61.334a3.979,3.979,0,1,0,5.611-5.644L19.4,3.358A11.191,11.191,0,0,0,7.017.894,11.192,11.192,0,0,0,0,11.4V85.969a15.936,15.936,0,0,0,15.918,15.918H90.491a11.367,11.367,0,0,0,8.038-19.4ZM7.959,11.4a3.408,3.408,0,0,1,5.827-2.4l9.61,9.553A27.266,27.266,0,0,1,7.959,25.021V11.4ZM21.091,93.928H15.918a7.968,7.968,0,0,1-7.959-7.959V80.8H21.091V93.928Zm72.549-2.1a3.343,3.343,0,0,1-3.149,2.1H76.964a32.877,32.877,0,0,1,5.922-15.615l10.028,9.81A3.343,3.343,0,0,1,93.64,91.824Z" transform="translate(0 0)" fill="#d2d1d1"/>
      </g>
    </g>
    <g id="_048-drafting" data-name="048-drafting" transform="translate(1629.226 4660.998) rotate(30)">
      <g id="Group_90" data-name="Group 90" transform="translate(0)">
        <path id="Path_529" data-name="Path 529" d="M122.076,68.418h-13.6l-6.409-15.182a3.955,3.955,0,1,0-7.287,3.076l5.111,12.106H87.273V64.464a3.955,3.955,0,0,0-7.91,0v3.955H66.9L76.706,45A17.8,17.8,0,1,0,87.273,11.122V3.955a3.955,3.955,0,0,0-7.91,0v7.167a17.786,17.786,0,0,0-9.287,29.229L58.325,68.418H44.957a3.955,3.955,0,0,0,0,7.91H55.013L46.877,95.761a3.955,3.955,0,1,0,7.3,3.055l9.415-22.488H79.364v3.955a3.955,3.955,0,0,0,7.91,0V76.328h15.958l9.5,22.5a3.955,3.955,0,1,0,7.286-3.076l-8.2-19.422h10.259a3.955,3.955,0,1,0,0-7.91ZM83.319,18.588a9.887,9.887,0,1,1-9.887,9.887A9.9,9.9,0,0,1,83.319,18.588Z" transform="translate(-41.002)" fill="#d2d1d1"/>
      </g>
    </g>
    <g id="_020-rocket" data-name="020-rocket" transform="matrix(0.966, -0.259, 0.259, 0.966, 503.999, 4668.538)">
      <g id="Group_84" data-name="Group 84" transform="translate(0.001 0)">
        <g id="Group_83" data-name="Group 83" transform="translate(0 0)">
          <path id="Path_520" data-name="Path 520" d="M259.086,136.167a7.307,7.307,0,1,0,10.334,0A7.316,7.316,0,0,0,259.086,136.167Zm6.889,6.889a2.435,2.435,0,1,1,0-3.445A2.438,2.438,0,0,1,265.976,143.056Z" transform="translate(-225.656 -117.707)" fill="#d2d1d1"/>
          <path id="Path_521" data-name="Path 521" d="M60.359,2.094A6.907,6.907,0,0,0,54.7.035,54.735,54.735,0,0,0,42.224,2.757a36.936,36.936,0,0,0-13.75,8.282l-.024.024-.494.5-26.269,8.5A2.436,2.436,0,0,0,.715,24.1L12.6,35.982A12.1,12.1,0,0,0,5.79,39.407c-1.957,1.957-3.466,5.914-4.615,12.1C.378,55.8.062,59.561.049,59.719a2.436,2.436,0,0,0,2.427,2.636c.067,0,.134,0,.2-.008.158-.013,3.92-.329,8.215-1.127,6.183-1.149,10.14-2.658,12.1-4.615a12.1,12.1,0,0,0,3.427-6.826L38.291,61.643a2.436,2.436,0,0,0,4.05-1.007L50.435,34.33a2.436,2.436,0,0,0-1.612-3.044c-.041-.013-.082-.021-.123-.031a2.435,2.435,0,0,0-2.691.525L30.744,47.217,15.021,31.51l15.8-15.917a2.425,2.425,0,0,0,.422-.425l.656-.661c7.22-7.066,17.691-9.063,23.292-9.624a2.042,2.042,0,0,1,1.688.616,2.141,2.141,0,0,1,.592,1.769,47.978,47.978,0,0,1-4.256,14.921,2.436,2.436,0,1,0,4.373,2.146A52.888,52.888,0,0,0,62.3,7.865,6.988,6.988,0,0,0,60.359,2.094ZM43.079,41.671,38.873,55.339,34.19,50.66ZM16.9,42.844a1.877,1.877,0,0,1,2.333-.245l.568.567a1.877,1.877,0,0,1-.243,2.333,11.422,11.422,0,0,1-3.8,1.125A11.373,11.373,0,0,1,16.9,42.844Zm0,8.523a17.715,17.715,0,0,0,4.49-1.314,7.243,7.243,0,0,1-1.84,3.108C17.7,55,10.833,56.476,5.213,57.182c.707-5.62,2.181-12.489,4.022-14.33a7.25,7.25,0,0,1,3.106-1.843,17.814,17.814,0,0,0-1.329,4.459c-.372,1.967-.523,3.7-.529,3.77a2.436,2.436,0,0,0,2.427,2.644c.064,0,.128,0,.193-.008S14.916,51.728,16.894,51.366Zm-5.319-23.3-4.6-4.595L20.469,19.1Z" transform="translate(-0.001 0)" fill="#d2d1d1"/>
          <circle id="Ellipse_24" data-name="Ellipse 24" cx="2.374" cy="2.374" r="2.374" transform="translate(45.905 11.872)" fill="#d2d1d1"/>
        </g>
      </g>
    </g>
    <g id="_014-medal" data-name="014-medal" transform="matrix(0.966, -0.259, 0.259, 0.966, 300.966, 4931.98)">
      <g id="Group_80" data-name="Group 80" transform="translate(42.499)">
        <g id="Group_79" data-name="Group 79" transform="translate(0)">
          <path id="Path_516" data-name="Path 516" d="M122.615,22.613,112.686,5.821a3.776,3.776,0,0,0-1.892-1.6C110.348,4.047,99.669,0,83.1,0,66.577,0,55.293,4.021,54.82,4.192a3.776,3.776,0,0,0-1.981,1.657L43.008,22.816a3.777,3.777,0,0,0,.27,4.191L61.994,51.438A27.383,27.383,0,0,0,93.9,94.317a3.777,3.777,0,1,0-3.086-6.9,19.8,19.8,0,1,1,10.651-11.607,3.777,3.777,0,1,0,7.137,2.476,27.382,27.382,0,0,0-4.868-26.526L122.39,26.8A3.777,3.777,0,0,0,122.615,22.613ZM67.681,46.441,50.811,24.418,56.89,13.926,77.747,42.381A27.227,27.227,0,0,0,67.681,46.441ZM74.7,25.448a60.5,60.5,0,0,1,8.968-.708,3.777,3.777,0,1,0,0-7.554A65.933,65.933,0,0,0,71.17,18.4a3.76,3.76,0,0,0-1.251.52l-6.744-9.2A91.931,91.931,0,0,1,83.1,7.554a86.489,86.489,0,0,1,19.763,2.218l-19.575,27.4Zm23.41,21.22a27.248,27.248,0,0,0-9.407-4.083L108.92,14.294l5.911,10Z" transform="translate(-42.499)" fill="#d2d1d1"/>
          <path id="Path_517" data-name="Path 517" d="M220.565,326.552a3.777,3.777,0,0,0,3.777-3.777v-17a3.777,3.777,0,0,0-6.448-2.671l-5.288,5.288a3.778,3.778,0,0,0,4.182,6.134v8.246A3.777,3.777,0,0,0,220.565,326.552Z" transform="translate(-179.583 -244.966)" fill="#d2d1d1"/>
        </g>
      </g>
    </g>
    <g id="_007-paragraph" data-name="007-paragraph" transform="translate(1606.877 5152.297) rotate(-30)">
      <g id="Group_77" data-name="Group 77" transform="translate(116.421)">
        <path id="Path_514" data-name="Path 514" d="M177.142,52.549a22.084,22.084,0,0,0-11.533-12.727,4.441,4.441,0,0,0-.416-.173l-16.458-5.884q-.13-.047-.263-.085l-.28-.083a22.692,22.692,0,0,0-3.148-1.131c-4.227-1.758-10.44-5.351-10.44-11.278A12.5,12.5,0,0,1,147.243,8.869h2.328c7.273,0,12.971,5.454,12.971,12.416a4.434,4.434,0,1,0,8.869,0,20.872,20.872,0,0,0-6.456-15.156A22.032,22.032,0,0,0,149.571,0h-2.328a21.373,21.373,0,0,0-21.507,21.188,17.747,17.747,0,0,0,4.818,12.057,22.287,22.287,0,0,0-11.849,10.84,21.376,21.376,0,0,0-1.11,16.59A22.084,22.084,0,0,0,129.128,73.4a4.456,4.456,0,0,0,.434.179L147.1,79.763c.081.029.162.055.245.078,2.316.668,13.868,4.411,13.868,12.492a12.5,12.5,0,0,1-12.638,12.319h-2.328c-7.273,0-12.971-5.454-12.971-12.416a4.434,4.434,0,0,0-8.869,0,20.872,20.872,0,0,0,6.456,15.156,22.035,22.035,0,0,0,15.383,6.128h2.328A21.373,21.373,0,0,0,170.08,92.333c0-5.479-2.528-10.473-7.312-14.443a36.5,36.5,0,0,0-12.839-6.534L132.747,65.3a13.258,13.258,0,0,1-6.771-7.525,12.573,12.573,0,0,1,.677-9.755,13.752,13.752,0,0,1,15.5-7.14q1.423.567,2.913,1.035a4.426,4.426,0,0,0,.913.284l16,5.72a13.258,13.258,0,0,1,6.779,7.53,12.573,12.573,0,0,1-.677,9.755,4.434,4.434,0,1,0,7.948,3.935A21.374,21.374,0,0,0,177.142,52.549Z" transform="translate(-116.421)" fill="#d2d1d1"/>
      </g>
    </g>
  </g>
</svg>
