<svg xmlns="http://www.w3.org/2000/svg" width="60" height="60" viewBox="0 0 60 60">
  <path id="expand" d="M15.369,12.053a2.344,2.344,0,0,1-3.315,3.314L4.688,8v3.717a2.344,2.344,0,0,1-4.687,0V7.031A7.039,7.039,0,0,1,7.032,0h4.687a2.344,2.344,0,1,1,0,4.687H8ZM12.054,44.632,4.688,52V48.281a2.344,2.344,0,0,0-4.687,0v4.687A7.039,7.039,0,0,0,7.032,60h4.687a2.344,2.344,0,0,0,0-4.687H8l7.366-7.366a2.344,2.344,0,0,0-3.315-3.314ZM52.969,0H48.282a2.344,2.344,0,1,0,0,4.687H52l-7.366,7.366a2.344,2.344,0,0,0,3.315,3.314L55.313,8v3.717a2.344,2.344,0,1,0,4.687,0V7.031A7.039,7.039,0,0,0,52.969,0Zm4.687,45.937a2.344,2.344,0,0,0-2.344,2.344V52l-7.366-7.366a2.344,2.344,0,0,0-3.315,3.314L52,55.312H48.282a2.344,2.344,0,1,0,0,4.687h4.687A7.039,7.039,0,0,0,60,52.968V48.281a2.344,2.344,0,0,0-2.344-2.344ZM34.805,16.289H25.43A7.039,7.039,0,0,0,18.4,23.32V36.211a7.044,7.044,0,0,0,4.687,6.63V57.656a2.344,2.344,0,1,0,4.687,0V40.9a2.344,2.344,0,0,0-2.344-2.344,2.347,2.347,0,0,1-2.344-2.344V23.32a2.347,2.347,0,0,1,2.344-2.344h9.375a2.347,2.347,0,0,1,2.344,2.344V36.211a2.347,2.347,0,0,1-2.344,2.344A2.344,2.344,0,0,0,32.461,40.9V57.656a2.344,2.344,0,1,0,4.687,0V42.84a7.044,7.044,0,0,0,4.687-6.63V23.32A7.039,7.039,0,0,0,34.805,16.289ZM23.086,7.031a7.031,7.031,0,1,1,7.031,7.031A7.039,7.039,0,0,1,23.086,7.031Zm4.687,0a2.344,2.344,0,1,0,2.344-2.344A2.347,2.347,0,0,0,27.774,7.031Zm0,0" transform="translate(0 0)" fill="#064290"/>
</svg>
