<svg xmlns="http://www.w3.org/2000/svg" width="40.313" height="48" viewBox="0 0 40.313 48">
  <g id="signs" transform="translate(-41)">
    <g id="Group_204" data-name="Group 204" transform="translate(41)">
      <g id="Group_203" data-name="Group 203">
        <path id="Path_603" data-name="Path 603" d="M172,96.546a1.875,1.875,0,0,0-.5-3.716,5.158,5.158,0,0,1-.687.046,5.063,5.063,0,1,1,5.063-5.062,5.133,5.133,0,0,1-.066.823,1.875,1.875,0,1,0,3.7.6A8.8,8.8,0,1,0,172,96.546Z" transform="translate(-150.656 -71.594)" fill="#dd1a50"/>
        <path id="Path_604" data-name="Path 604" d="M78.29,377.929a22.738,22.738,0,0,0-5.886-1.895,1.875,1.875,0,1,0-.747,3.675c3.8.772,5.357,1.7,5.807,2.148-.331.332-1.438,1.164-4.69,1.947A51.755,51.755,0,0,1,61.156,385,51.753,51.753,0,0,1,49.538,383.8c-3.252-.783-4.359-1.615-4.69-1.947.449-.449,2.007-1.376,5.807-2.148a1.875,1.875,0,1,0-.747-3.675,22.738,22.738,0,0,0-5.886,1.895C42.017,378.981,41,380.3,41,381.86c0,2.326,2.266,4.127,6.734,5.352a53.009,53.009,0,0,0,13.423,1.535,53.009,53.009,0,0,0,13.423-1.535c4.468-1.225,6.734-3.026,6.734-5.352C81.313,380.3,80.3,378.981,78.29,377.929Z" transform="translate(-41 -340.747)" fill="#dd1a50"/>
        <path id="Path_605" data-name="Path 605" d="M97.634,39.627a1.875,1.875,0,0,0,3.17,0,50.953,50.953,0,0,1,6.121-7.412c4.228-4.508,8.6-9.169,8.607-16.092a15.947,15.947,0,0,0-4.8-11.44,16.432,16.432,0,0,0-22.98.006A16.009,16.009,0,0,0,83,16.127c.007,6.93,4.357,11.6,8.565,16.115A51.519,51.519,0,0,1,97.634,39.627ZM99.219,3.75a12.494,12.494,0,0,1,12.563,12.373c-.005,5.437-3.521,9.186-7.592,13.526a71.356,71.356,0,0,0-4.969,5.694,72.17,72.17,0,0,0-4.911-5.657c-4.053-4.35-7.553-8.107-7.559-13.559A12.3,12.3,0,0,1,99.219,3.75Z" transform="translate(-79.063)" fill="#dd1a50"/>
      </g>
    </g>
  </g>
</svg>
