<svg xmlns="http://www.w3.org/2000/svg" width="1854" height="1382.094" viewBox="0 0 1854 1382.094">
  <g id="Group_112" data-name="Group 112" transform="translate(78.527 -9499.85)">
    <g id="_007-paragraph" data-name="007-paragraph" transform="translate(1695.135 10577.086) rotate(-30)">
      <g id="Group_77" data-name="Group 77" transform="translate(0 0)">
        <path id="Path_514" data-name="Path 514" d="M44.2,38.252a16.076,16.076,0,0,0-8.4-9.265,3.232,3.232,0,0,0-.3-.126l-11.98-4.283q-.095-.034-.192-.062l-.2-.06a16.518,16.518,0,0,0-2.291-.824c-3.077-1.28-7.6-3.9-7.6-8.21a9.1,9.1,0,0,1,9.2-8.967h1.695a9.148,9.148,0,0,1,9.442,9.038,3.228,3.228,0,1,0,6.456,0,15.193,15.193,0,0,0-4.7-11.033A16.038,16.038,0,0,0,24.131,0H22.437A15.558,15.558,0,0,0,6.781,15.423,12.919,12.919,0,0,0,10.288,24.2a16.223,16.223,0,0,0-8.625,7.891A15.561,15.561,0,0,0,.855,44.167a16.076,16.076,0,0,0,8.4,9.265,3.244,3.244,0,0,0,.316.131l12.766,4.5c.059.021.118.04.178.057C24.2,58.606,32.6,61.331,32.6,67.213a9.1,9.1,0,0,1-9.2,8.967H21.71a9.148,9.148,0,0,1-9.442-9.038,3.228,3.228,0,0,0-6.456,0,15.193,15.193,0,0,0,4.7,11.033,16.04,16.04,0,0,0,11.2,4.461H23.4A15.558,15.558,0,0,0,39.061,67.213,13.506,13.506,0,0,0,33.738,56.7a26.567,26.567,0,0,0-9.346-4.756L11.884,47.534a9.651,9.651,0,0,1-4.929-5.478,9.152,9.152,0,0,1,.493-7.1,10.011,10.011,0,0,1,11.285-5.2q1.036.413,2.12.754a3.222,3.222,0,0,0,.665.207l11.647,4.164A9.651,9.651,0,0,1,38.1,40.363a9.153,9.153,0,0,1-.493,7.1,3.228,3.228,0,1,0,5.786,2.865A15.559,15.559,0,0,0,44.2,38.252Z" transform="translate(-61 105.655)" fill="#d2d1d1"/>
      </g>
    </g>
    <g id="_026-art" data-name="026-art" transform="translate(1612.581 10397.317) rotate(30)">
      <g id="Group_86" data-name="Group 86" transform="translate(0 0)">
        <g id="Group_85" data-name="Group 85" transform="translate(0)">
          <path id="Path_522" data-name="Path 522" d="M75.809,21.176c-.819-7.649-5.121-12.086-9.648-15.741C59.8.3,51.71.011,51.369,0a2.965,2.965,0,0,0-2.663,4.426c2.213,3.9,1.183,6.767-.122,10.4-.989,2.75-2.11,5.868-1.628,9.5a14.943,14.943,0,0,0,5.461,9.8c.066.052.134.1.2.153V43.2c-4.04.236-7.107,1.069-9.327,2.529a9.052,9.052,0,0,0-4.161,7.924A17.1,17.1,0,0,0,40.5,59.791a13.682,13.682,0,0,1,1.151,4.982,5.72,5.72,0,0,1-1.083,3.51c-.9,1.113-2.429,1.677-4.549,1.677C18.864,69.961,5.929,56.2,5.929,37.945A32.052,32.052,0,0,1,37.945,5.929c.678,0,1.364.021,2.039.064a2.964,2.964,0,0,0,.37-5.917C39.556.025,38.745,0,37.945,0A37.945,37.945,0,0,0,0,37.945,39.144,39.144,0,0,0,10.069,64.691a34.885,34.885,0,0,0,25.949,11.2c4.981,0,7.731-2.111,9.161-3.881a11.5,11.5,0,0,0,2.4-7.235,19.144,19.144,0,0,0-1.516-7.031,11.721,11.721,0,0,1-1-4.085,3.137,3.137,0,0,1,1.49-2.97c.921-.605,2.695-1.306,6.069-1.542V66.636a8.94,8.94,0,0,0,8.458,9.242q.232.012.462.012A8.885,8.885,0,0,0,70.4,67.456a2.964,2.964,0,1,0-5.921-.3,2.956,2.956,0,0,1-5.146,1.831,2.977,2.977,0,0,1-.79-2.132l0-.075V36.953a14.533,14.533,0,0,0,2.792.272,14.922,14.922,0,0,0,1.58-.084,14.734,14.734,0,0,0,1.557-.251V53.211a2.964,2.964,0,1,0,5.929,0V34.085a14.626,14.626,0,0,0,2.268-2.255A14.407,14.407,0,0,0,75.809,21.176Zm-7.749,6.93a8.519,8.519,0,0,1-5.766,3.139,8.421,8.421,0,0,1-6.181-1.76,9.044,9.044,0,0,1-3.278-5.944c-.292-2.2.459-4.292,1.329-6.712,1.023-2.844,2.222-6.179,1.594-10.1a18.773,18.773,0,0,1,6.678,3.317c4.2,3.393,6.919,6.543,7.477,11.758A8.518,8.518,0,0,1,68.06,28.106Z" fill="#d2d1d1"/>
          <path id="Path_523" data-name="Path 523" d="M0,4.447A4.447,4.447,0,1,0,4.447,0,4.452,4.452,0,0,0,0,4.447Z" transform="translate(33.202 11.858)" fill="#d2d1d1"/>
          <path id="Path_524" data-name="Path 524" d="M7.593,7.592a4.454,4.454,0,0,0,0-6.291h0a4.447,4.447,0,1,0,0,6.292Z" transform="translate(17.49 18.972)" fill="#d2d1d1"/>
          <path id="Path_525" data-name="Path 525" d="M0,4.447A4.447,4.447,0,1,0,4.447,0,4.452,4.452,0,0,0,0,4.447Z" transform="translate(11.858 34.536)" fill="#d2d1d1"/>
          <path id="Path_526" data-name="Path 526" d="M4.447,8.893A4.448,4.448,0,1,0,1.3,1.3h0A4.448,4.448,0,0,0,4.447,8.893Z" transform="translate(17.935 49.209)" fill="#d2d1d1"/>
        </g>
      </g>
    </g>
    <g id="_039-physics" data-name="039-physics" transform="matrix(0.966, -0.259, 0.259, 0.966, 1509.989, 10653.607)">
      <g id="Group_88" data-name="Group 88" transform="translate(0 0)">
        <g id="Group_87" data-name="Group 87">
          <circle id="Ellipse_25" data-name="Ellipse 25" cx="2.628" cy="2.628" r="2.628" transform="translate(38.187 12.612)" fill="#d2d1d1"/>
          <ellipse id="Ellipse_26" data-name="Ellipse 26" cx="2.628" cy="2.452" rx="2.628" ry="2.452" transform="translate(38.538 48.347)" fill="#d2d1d1"/>
          <path id="Path_527" data-name="Path 527" d="M59.676,17.987c-.989-2.153-3.508-4.8-9.888-5.2a2.585,2.585,0,1,0-.324,5.159c2.947.185,4.957.988,5.515,2.2a3.666,3.666,0,0,1,.464,1.723c-.064,1.627-1.54,4.218-4.39,7.719a68.481,68.481,0,0,0-13.783-9.6A82.046,82.046,0,0,0,22.8,14.111q.3-.808.629-1.571c1.986-4.615,4.534-7.37,6.815-7.37,1.89,0,3.549,1.847,4.608,3.4A2.585,2.585,0,1,0,39.117,5.65C35.926.98,32.529,0,30.241,0,25.7,0,21.59,3.727,18.677,10.5q-.5,1.164-.944,2.418a33.8,33.8,0,0,0-8.915-.2l-.05.007c-4.652.743-6.742,2.973-7.676,4.714a8.016,8.016,0,0,0-.962,3.725,13.2,13.2,0,0,0,1.69,6.131,2.585,2.585,0,0,0,4.592-2.374A8.362,8.362,0,0,1,5.3,21.227a2.857,2.857,0,0,1,.348-1.346c.686-1.278,2.493-1.819,3.9-2.048a29.266,29.266,0,0,1,6.724.1A66.775,66.775,0,0,0,14.6,33.084,69.615,69.615,0,0,0,16.388,47.91q-.8.113-1.579.187c-4.841.456-8.436-.4-9.381-2.227a2.891,2.891,0,0,1-.258-1.306,6.285,6.285,0,0,1,.442-2.288,2.585,2.585,0,0,0-4.83-1.843A11.419,11.419,0,0,0,0,44.607a7.885,7.885,0,0,0,.834,3.635c1.736,3.362,5.77,5.147,11.5,5.147q1.411,0,2.958-.145,1.175-.111,2.4-.3a29.868,29.868,0,0,0,3.892,7.9c3.133,4.4,6.434,5.33,8.653,5.33,2.288,0,5.685-.98,8.876-5.649A2.585,2.585,0,1,0,34.849,57.6c-1.059,1.55-2.718,3.4-4.608,3.4-1.82,0-3.426-1.727-4.454-3.175l-.048-.066a23.931,23.931,0,0,1-2.951-5.9,71.273,71.273,0,0,0,14.261-5.595,70.584,70.584,0,0,0,13.6-9.058,2.583,2.583,0,0,0,.31-.322c2.643,3.087,4.12,5.97,4.093,8.054a3.066,3.066,0,0,1-.218,1.346c-.692,1.289-2.523,1.828-3.937,2.054a2.585,2.585,0,0,0,.4,5.137,2.611,2.611,0,0,0,.411-.033c4.653-.743,6.743-2.973,7.677-4.714a7.9,7.9,0,0,0,.832-3.725c.044-3.469-1.862-7.494-5.528-11.707,4-4.828,5.8-8.263,5.914-11.228A8.56,8.56,0,0,0,59.676,17.987ZM21.313,19.063c.711.222,1.459.463,2.235.722l-.139.071q-1.3.67-2.562,1.384Q21.059,20.13,21.313,19.063Zm.139,27.808q-.2-.916-.4-1.894,1.066.615,2.155,1.2l.234.124Q22.439,46.61,21.452,46.87Zm18.862-8.438c-1.794,1.143-3.683,2.231-5.637,3.24-1.516.783-3.036,1.5-4.548,2.157-1.494-.675-3-1.415-4.472-2.206-1.944-1.043-3.831-2.169-5.616-3.348-.167-1.68-.268-3.419-.268-5.192,0-1.795.07-3.563.205-5.291,1.845-1.182,3.793-2.306,5.8-3.344,1.473-.761,2.971-1.471,4.462-2.117,1.506.655,3.044,1.387,4.582,2.212,1.906,1.023,3.749,2.123,5.5,3.276.142,1.68.259,3.454.259,5.264C40.579,34.924,40.459,36.727,40.314,38.432ZM47.27,33.3c-.5.431-1.014.858-1.545,1.282.014-.494.024-.991.024-1.5,0-.428-.007-.851-.018-1.272q.846.7,1.633,1.412C47.333,33.249,47.3,33.271,47.27,33.3Z" transform="translate(0)" fill="#d2d1d1"/>
          <ellipse id="Ellipse_27" data-name="Ellipse 27" cx="2.628" cy="2.452" rx="2.628" ry="2.452" transform="translate(5.606 31.531)" fill="#d2d1d1"/>
        </g>
      </g>
    </g>
    <g id="_044-sport" data-name="044-sport" transform="translate(1335.138 10150.299) rotate(30)">
      <g id="Group_89" data-name="Group 89" transform="translate(0 0)">
        <path id="Path_528" data-name="Path 528" d="M52.349,8.981A30.665,30.665,0,0,0,8.981,52.349a30.677,30.677,0,0,0,37.551,4.562,2.4,2.4,0,0,0-2.483-4.1,25.785,25.785,0,0,1-10.989,3.615V33.061h8.608a30.381,30.381,0,0,0,2.326,9.559,2.4,2.4,0,0,0,4.412-1.869,25.614,25.614,0,0,1-1.928-7.69h9.948a25.835,25.835,0,0,1-4.275,11.965,2.4,2.4,0,1,0,3.983,2.663A30.59,30.59,0,0,0,52.349,8.981ZM4.9,33.061H14.85a25.887,25.887,0,0,1-4.966,13A25.731,25.731,0,0,1,4.9,33.061ZM28.269,56.427a25.784,25.784,0,0,1-15.127-6.743,30.677,30.677,0,0,0,6.515-16.623h8.611Zm0-28.157H19.661A30.389,30.389,0,0,0,17.39,18.84a2.4,2.4,0,0,0-4.42,1.849,25.617,25.617,0,0,1,1.882,7.58H4.9A25.917,25.917,0,0,1,28.269,4.9Zm13.4,0H33.061V4.9a25.784,25.784,0,0,1,15.126,6.742A30.641,30.641,0,0,0,41.672,28.269Zm4.808,0a25.851,25.851,0,0,1,4.967-13,25.731,25.731,0,0,1,4.98,13Z" fill="#d2d1d1"/>
      </g>
    </g>
    <g id="_048-drafting" data-name="048-drafting" transform="translate(1620.583 10163.137) rotate(30)">
      <g id="Group_90" data-name="Group 90" transform="translate(0)">
        <path id="Path_529" data-name="Path 529" d="M61.325,51.752H51.039L46.191,40.268A2.991,2.991,0,1,0,40.679,42.6l3.866,9.157H35V48.761a2.991,2.991,0,1,0-5.983,0v2.991H19.589l7.418-17.716A13.462,13.462,0,1,0,35,8.412V2.991a2.991,2.991,0,0,0-5.983,0V8.412a13.454,13.454,0,0,0-7.025,22.109L13.1,51.752H2.991a2.991,2.991,0,0,0,0,5.983H10.6l-6.155,14.7a2.991,2.991,0,1,0,5.519,2.31l7.122-17.01H29.017v2.991a2.991,2.991,0,0,0,5.983,0V57.735h12.07l7.184,17.018a2.991,2.991,0,1,0,5.512-2.327l-6.2-14.691h7.76a2.991,2.991,0,0,0,0-5.983ZM32.009,14.06a7.479,7.479,0,1,1-7.479,7.479A7.487,7.487,0,0,1,32.009,14.06Z" transform="translate(0 0)" fill="#d2d1d1"/>
      </g>
    </g>
    <g id="_050-trigonometry" data-name="050-trigonometry" transform="matrix(0.966, 0.259, -0.259, 0.966, 1529.098, 9777.777)">
      <g id="Group_91" data-name="Group 91" transform="translate(0 0)">
        <path id="Path_530" data-name="Path 530" d="M37.8,31.648l-.012-.012L32.75,26.7a1.527,1.527,0,0,0-2.18.046,15.6,15.6,0,0,0-4.107,9.291H11.146V29.474a1.527,1.527,0,0,0-1.527-1.527H3.054V12.663a13.505,13.505,0,0,0,8.094-3.388L25.491,23.533a1.527,1.527,0,1,0,2.153-2.166L7.445,1.289A4.294,4.294,0,0,0,2.692.343,4.294,4.294,0,0,0,0,4.373V32.985a6.114,6.114,0,0,0,6.107,6.107H34.72A4.361,4.361,0,0,0,37.8,31.648ZM3.054,4.373a1.308,1.308,0,0,1,2.236-.922L8.976,7.116A10.462,10.462,0,0,1,3.054,9.6V4.373ZM8.092,36.039H6.107a3.057,3.057,0,0,1-3.054-3.054V31H8.092v5.039Zm27.836-.807a1.283,1.283,0,0,1-1.208.807H29.53A12.614,12.614,0,0,1,31.8,30.048l3.848,3.764A1.283,1.283,0,0,1,35.929,35.232Z" transform="translate(0)" fill="#d2d1d1"/>
      </g>
    </g>
    <g id="_057-mortarboard" data-name="057-mortarboard" transform="translate(1361.066 10827)">
      <g id="Group_92" data-name="Group 92" transform="translate(0 0)">
        <path id="Path_531" data-name="Path 531" d="M54.351,26.618C45.46,17.727,40.6,15.675,40.394,15.592l-.232-.119L44.18,7.03a4.953,4.953,0,0,0-.648-5.764,4.951,4.951,0,0,0-5.76-.651L18.064,9.886a17.6,17.6,0,0,0-8.131,8.131l-.019.041L.233,39.69a2.146,2.146,0,0,0-.187.877V52.8a2.146,2.146,0,0,0,4.292,0V45.429l11.316-5.381.075.187c.083.208,2.135,5.183,11.032,14.08a2.146,2.146,0,0,0,2.91.116,41.642,41.642,0,0,1,15.713-7.6A2.146,2.146,0,0,0,46.97,45.24a39.86,39.86,0,0,1,2.561-7.223,2.146,2.146,0,0,0-3.91-1.768,46.246,46.246,0,0,0-2.5,6.727A46.88,46.88,0,0,0,28.48,49.941C21.6,42.813,19.8,38.848,19.711,38.634l-.16-.439,7.157-3.4a17.594,17.594,0,0,0,8.129-8.127l3.488-7.33.443.228-.016-.007c.043.019,4.418,1.949,12.565,10.1a2.146,2.146,0,0,0,3.035-3.035ZM30.959,24.826a13.177,13.177,0,0,1-6.091,6.089L8.25,38.816,23.686,22.966a2.146,2.146,0,1,0-3.075-2.994L7.934,32.99l5.888-13.156a13.172,13.172,0,0,1,6.074-6.066L39.6,4.5a1.433,1.433,0,0,1,.888-.191,1.425,1.425,0,0,1-.189.884Z" transform="translate(-0.046 0)" fill="#d2d1d1"/>
      </g>
    </g>
    <g id="_027-magnet" data-name="027-magnet" transform="translate(1512.232 10086.342) rotate(22)">
      <g id="Group_97" data-name="Group 97" transform="translate(0 0)">
        <g id="Group_96" data-name="Group 96" transform="translate(0 0)">
          <path id="Path_535" data-name="Path 535" d="M12.654,5.77H8.124L11.7,0H4.761L.253,8.036a1.962,1.962,0,0,0,1.733,2.918H5.916L3.287,18.239a.6.6,0,0,0-.06.245c0,.308.265.49.607.489A.969.969,0,0,0,4.5,18.71L13.73,8.146A1.434,1.434,0,0,0,12.654,5.77Z" transform="translate(16.125 21.321)" fill="#d2d1d1"/>
          <path id="Path_536" data-name="Path 536" d="M45.031,15.492a23.179,23.179,0,0,0-43.729,0A22.989,22.989,0,0,0,.085,25.12L2.048,48.284A1.956,1.956,0,0,0,4,50.075h7.922a1.956,1.956,0,0,0,1.954-2.044l-1.03-22.788q0-.038,0-.077a10.272,10.272,0,0,1,10.328-11.18,10.272,10.272,0,0,1,10.328,11.18c0,.023,0,.046,0,.069L32.362,48.022a1.956,1.956,0,0,0,1.954,2.053h8.02a1.956,1.956,0,0,0,1.949-1.791l.663-7.824A1.956,1.956,0,0,0,43,38.339h-6.24L37.4,25.461A14.184,14.184,0,0,0,23.167,10.074,14.184,14.184,0,0,0,8.937,25.456l.582,12.883H5.131L3.983,24.79A19.252,19.252,0,0,1,23.167,3.912,19.252,19.252,0,0,1,42.35,24.79L41.9,30.154a1.956,1.956,0,0,0,3.9.33l.455-5.364A22.99,22.99,0,0,0,45.031,15.492ZM36.565,42.251H40.87l-.332,3.912H36.371Zm-26.869,0,.177,3.912H5.795l-.332-3.912Z" fill="#d2d1d1"/>
        </g>
      </g>
    </g>
    <g id="_037-exam" data-name="037-exam" transform="translate(1367.682 9891.83) rotate(-31)">
      <g id="Group_99" data-name="Group 99" transform="translate(0)">
        <g id="Group_98" data-name="Group 98" transform="translate(0 0)">
          <path id="Path_537" data-name="Path 537" d="M30.486,27.808a1.58,1.58,0,0,0,1.58-1.58V6.32A6.327,6.327,0,0,0,25.745,0H6.32A6.327,6.327,0,0,0,0,6.32V34.128a6.327,6.327,0,0,0,6.32,6.32H25.745a6.327,6.327,0,0,0,6.32-6.32,1.58,1.58,0,0,0-3.16,0,3.164,3.164,0,0,1-3.16,3.16H6.32a3.164,3.164,0,0,1-3.16-3.16V6.32A3.164,3.164,0,0,1,6.32,3.16H25.745a3.164,3.164,0,0,1,3.16,3.16V26.228A1.58,1.58,0,0,0,30.486,27.808Z" fill="#d2d1d1"/>
          <path id="Path_538" data-name="Path 538" d="M7.9,13.035a1.58,1.58,0,0,0,1.58-1.58V4.74A4.74,4.74,0,0,0,0,4.74v6.715a1.58,1.58,0,0,0,3.16,0V9.164H6.32v2.291A1.58,1.58,0,0,0,7.9,13.035ZM3.16,6V4.74a1.58,1.58,0,0,1,3.16,0V6Z" transform="translate(5.521 13.746)" fill="#d2d1d1"/>
          <path id="Path_539" data-name="Path 539" d="M4.74,9.48A1.58,1.58,0,0,0,6.32,7.9V6.32H7.9a1.58,1.58,0,1,0,0-3.16H6.32V1.58a1.58,1.58,0,1,0-3.16,0V3.16H1.58a1.58,1.58,0,0,0,0,3.16H3.16V7.9A1.58,1.58,0,0,0,4.74,9.48Z" transform="translate(17.055 15.484)" fill="#d2d1d1"/>
        </g>
      </g>
    </g>
    <g id="_037-exam-2" data-name="037-exam" transform="translate(1570.155 10825.83) rotate(-31)">
      <g id="Group_99-2" data-name="Group 99" transform="translate(0)">
        <g id="Group_98-2" data-name="Group 98" transform="translate(0 0)">
          <path id="Path_537-2" data-name="Path 537" d="M30.486,27.808a1.58,1.58,0,0,0,1.58-1.58V6.32A6.327,6.327,0,0,0,25.745,0H6.32A6.327,6.327,0,0,0,0,6.32V34.128a6.327,6.327,0,0,0,6.32,6.32H25.745a6.327,6.327,0,0,0,6.32-6.32,1.58,1.58,0,0,0-3.16,0,3.164,3.164,0,0,1-3.16,3.16H6.32a3.164,3.164,0,0,1-3.16-3.16V6.32A3.164,3.164,0,0,1,6.32,3.16H25.745a3.164,3.164,0,0,1,3.16,3.16V26.228A1.58,1.58,0,0,0,30.486,27.808Z" fill="#d2d1d1"/>
          <path id="Path_538-2" data-name="Path 538" d="M7.9,13.035a1.58,1.58,0,0,0,1.58-1.58V4.74A4.74,4.74,0,0,0,0,4.74v6.715a1.58,1.58,0,0,0,3.16,0V9.164H6.32v2.291A1.58,1.58,0,0,0,7.9,13.035ZM3.16,6V4.74a1.58,1.58,0,0,1,3.16,0V6Z" transform="translate(5.521 13.746)" fill="#d2d1d1"/>
          <path id="Path_539-2" data-name="Path 539" d="M4.74,9.48A1.58,1.58,0,0,0,6.32,7.9V6.32H7.9a1.58,1.58,0,1,0,0-3.16H6.32V1.58a1.58,1.58,0,1,0-3.16,0V3.16H1.58a1.58,1.58,0,0,0,0,3.16H3.16V7.9A1.58,1.58,0,0,0,4.74,9.48Z" transform="translate(17.055 15.484)" fill="#d2d1d1"/>
        </g>
      </g>
    </g>
    <g id="_054-study" data-name="054-study" transform="matrix(0.966, -0.259, 0.259, 0.966, 1601.491, 9996.254)">
      <g id="Group_102" data-name="Group 102" transform="translate(0 0)">
        <path id="Path_547" data-name="Path 547" d="M55.241,38.559,44.156,27.518l8.453-8.43A11.181,11.181,0,1,0,36.8,3.275l-8.41,8.41L17.292.636A2.183,2.183,0,0,0,14.2.647L.632,14.348a2.183,2.183,0,0,0,.011,3.083L11.664,28.408,5.548,34.524a2.183,2.183,0,0,0-.559.958L.08,53.116a2.183,2.183,0,0,0,2.7,2.685l17.634-5.009a2.183,2.183,0,0,0,.949-3.641L10.246,36l25.9-25.9,9.633,9.633L25.952,39.506a2.183,2.183,0,0,0,0,3.1L38.7,55.25a2.183,2.183,0,0,0,1.538.634h.009a2.183,2.183,0,0,0,1.542-.647l13.463-13.6A2.183,2.183,0,0,0,55.241,38.559Zm-39.59,9.047L5.329,50.538,8.22,40.152Zm-.9-22.285L5.266,15.874l10.5-10.6,3.464,3.45-4.3,4.371a2.183,2.183,0,0,0,3.112,3.062l4.282-4.352,2.98,2.967ZM39.235,7.01l.648-.648A6.815,6.815,0,0,1,49.524,16l-.651.649Zm.989,43.6-9.636-9.564L41.064,30.6l2.945,2.933-4.191,4.221a2.183,2.183,0,0,0,3.1,3.076L47.1,36.615l3.516,3.5Z" fill="#d2d1d1"/>
      </g>
    </g>
    <g id="_009-award" data-name="009-award" transform="matrix(0.891, 0.454, -0.454, 0.891, 1432.115, 10384.588)">
      <g id="Group_94" data-name="Group 94" transform="translate(0 0)">
        <g id="Group_93" data-name="Group 93" transform="translate(0 0)">
          <path id="Path_532" data-name="Path 532" d="M56.8,5.2a2.243,2.243,0,0,0-1.641-.714h-9.1q.022-1.1.022-2.243A2.243,2.243,0,0,0,43.843,0H13.568a2.243,2.243,0,0,0-2.243,2.243q0,1.146.022,2.243h-9.1a2.243,2.243,0,0,0-2.237,2.4,27.813,27.813,0,0,0,3.22,9.951,36.893,36.893,0,0,0,6.5,8.838,45.643,45.643,0,0,0,11.65,8.4c2.07,2.451,4.015,4.786,5.083,7.84v3.646a31.423,31.423,0,0,0-4.333,1.532c-5.779,2.575-6.992,5.813-6.992,8.075a2.243,2.243,0,0,0,2.243,2.243H39.806a2.243,2.243,0,0,0,2.243-2.243c0-2.2-1.189-5.382-6.852-8a31.653,31.653,0,0,0-4.249-1.576V41.744c1.053-2.993,2.975-5.258,5.016-7.636A43.591,43.591,0,0,0,50.583,22.388a2.243,2.243,0,0,0-3.526-2.772,34.936,34.936,0,0,1-4.6,4.8A45.545,45.545,0,0,0,45.868,8.97h6.6c-.126.49-.286,1.041-.488,1.644a2.243,2.243,0,1,0,4.254,1.422A22.635,22.635,0,0,0,57.4,6.888,2.243,2.243,0,0,0,56.8,5.2ZM7.31,14.968a27.563,27.563,0,0,1-2.367-6h6.6a45.493,45.493,0,0,0,3.422,15.48A33.025,33.025,0,0,1,7.31,14.968ZM36.134,52.925H21.018A13.468,13.468,0,0,1,23.9,51.217a28.024,28.024,0,0,1,4.8-1.6A21.557,21.557,0,0,1,36.134,52.925ZM36.25,26.5a43.519,43.519,0,0,1-3.59,4.576,42.756,42.756,0,0,0-4,5.174A45.3,45.3,0,0,0,24.7,31.051,46.127,46.127,0,0,1,21.16,26.5c-3.495-5.359-5.122-12.023-5.328-22.011H41.578C41.372,14.473,39.745,21.137,36.25,26.5Z" fill="#d2d1d1"/>
          <path id="Path_533" data-name="Path 533" d="M3.364,6.54v6.243a2.243,2.243,0,1,0,4.485,0V2.243A2.243,2.243,0,0,0,4.321.405L.957,2.76A2.243,2.243,0,0,0,3.364,6.54Z" transform="translate(23.099 9.083)" fill="#d2d1d1"/>
        </g>
      </g>
    </g>
    <g id="_010-beta" data-name="010-beta" transform="matrix(0.966, 0.259, -0.259, 0.966, 1355.307, 10582.605)">
      <g id="Group_95" data-name="Group 95" transform="translate(0)">
        <path id="Path_534" data-name="Path 534" d="M26.248,18.193a10.459,10.459,0,1,0-17.5-7.772L8.7,11.5c0,.026,0,.051,0,.077V41.2a2.5,2.5,0,1,1-5,0,1.852,1.852,0,1,0-3.7,0,6.2,6.2,0,1,0,12.406,0V38.5a12.487,12.487,0,0,0,17.3.287,1.852,1.852,0,1,0-2.52-2.713,8.8,8.8,0,0,1-14.78-6.445V11.611l.045-1.072c0-.026,0-.051,0-.077a6.758,6.758,0,1,1,7.35,6.733l-.668.027a1.852,1.852,0,0,0,.076,3.7q.416,0,.823-.032l1.4-.057A8.805,8.805,0,0,1,30,29.625a1.852,1.852,0,0,0,3.7,0A12.516,12.516,0,0,0,26.248,18.193Z" transform="translate(0 0)" fill="#d2d1d1"/>
      </g>
    </g>
    <g id="_027-magnet-2" data-name="027-magnet" transform="translate(1063.037 9605.342) rotate(22)">
      <g id="Group_97-2" data-name="Group 97" transform="translate(0)">
        <g id="Group_96-2" data-name="Group 96">
          <path id="Path_535-2" data-name="Path 535" d="M192.982,222.1h-3.215l2.541-4.1h-4.928l-3.2,5.7a1.393,1.393,0,0,0,1.23,2.071H188.2l-1.866,5.171a.424.424,0,0,0-.043.174c0,.218.188.348.431.347a.687.687,0,0,0,.469-.187l6.554-7.5A1.018,1.018,0,0,0,192.982,222.1Z" transform="translate(-172.555 -202.866)" fill="#d2d1d1"/>
          <path id="Path_536-2" data-name="Path 536" d="M51.093,11a16.443,16.443,0,0,0-31.9,6.834l1.393,16.442a1.388,1.388,0,0,0,1.383,1.271H27.59a1.388,1.388,0,0,0,1.387-1.451l-.731-16.175q0-.027,0-.055a7.357,7.357,0,1,1,14.662,0c0,.016,0,.032,0,.049l-.8,16.175a1.389,1.389,0,0,0,1.387,1.457H49.18a1.388,1.388,0,0,0,1.383-1.271l.471-5.554a1.388,1.388,0,0,0-1.383-1.506H45.221l.452-9.141a10.134,10.134,0,1,0-20.2,0l.413,9.144H22.772L21.957,17.6a13.665,13.665,0,1,1,27.232,0L48.867,21.4a1.388,1.388,0,0,0,2.767.235l.323-3.807A16.318,16.318,0,0,0,51.093,11ZM45.083,29.989h3.056L47.9,32.766H44.946Zm-19.071,0,.126,2.777H23.243l-.235-2.777Z" transform="translate(-19.13 0)" fill="#d2d1d1"/>
        </g>
      </g>
    </g>
    <g id="_044-sport-2" data-name="044-sport" transform="translate(586.481 9499.85) rotate(30)">
      <g id="Group_89-2" data-name="Group 89" transform="translate(0 0)">
        <path id="Path_528-2" data-name="Path 528" d="M41.95,7.2A24.574,24.574,0,0,0,7.2,41.95a24.584,24.584,0,0,0,30.092,3.656A1.92,1.92,0,0,0,35.3,42.322a20.663,20.663,0,0,1-8.806,2.9V26.494h6.9a24.346,24.346,0,0,0,1.864,7.66,1.92,1.92,0,0,0,3.535-1.5,20.526,20.526,0,0,1-1.545-6.162h7.972a20.7,20.7,0,0,1-3.426,9.588,1.92,1.92,0,1,0,3.192,2.134A24.513,24.513,0,0,0,41.95,7.2ZM3.929,26.494H11.9a20.745,20.745,0,0,1-3.98,10.418A20.62,20.62,0,0,1,3.929,26.494ZM22.654,45.219a20.662,20.662,0,0,1-12.122-5.4,24.584,24.584,0,0,0,5.221-13.321h6.9Zm0-22.564h-6.9a24.353,24.353,0,0,0-1.82-7.556,1.92,1.92,0,0,0-3.542,1.482A20.529,20.529,0,0,1,11.9,22.654H3.929A20.769,20.769,0,0,1,22.654,3.929Zm10.74,0h-6.9V3.929a20.662,20.662,0,0,1,12.122,5.4A24.555,24.555,0,0,0,33.395,22.654Zm3.853,0a20.716,20.716,0,0,1,3.981-10.417,20.62,20.62,0,0,1,3.991,10.417Z" transform="translate(0 0)" fill="#d2d1d1"/>
      </g>
    </g>
    <g id="Group_113" data-name="Group 113" transform="translate(-154.398 -34)">
      <g id="_007-paragraph-2" data-name="007-paragraph" transform="translate(328.922 10273.401) rotate(30)">
        <g id="Group_77-2" data-name="Group 77" transform="translate(0 0)">
          <path id="Path_514-2" data-name="Path 514" d="M24.534,21.232a8.923,8.923,0,0,0-4.66-5.142,1.793,1.793,0,0,0-.168-.07l-6.65-2.377q-.053-.019-.106-.034l-.113-.033a9.169,9.169,0,0,0-1.272-.457c-1.708-.71-4.218-2.162-4.218-4.557a5.049,5.049,0,0,1,5.106-4.977h.941A5.078,5.078,0,0,1,18.635,8.6a1.792,1.792,0,1,0,3.583,0A8.433,8.433,0,0,0,19.61,2.476,8.9,8.9,0,0,0,13.394,0h-.941a8.636,8.636,0,0,0-8.69,8.561A7.171,7.171,0,0,0,5.71,13.432a9,9,0,0,0-4.788,4.38,8.637,8.637,0,0,0-.448,6.7,8.923,8.923,0,0,0,4.66,5.142,1.8,1.8,0,0,0,.175.072l7.086,2.5c.033.012.066.022.1.032.936.27,5.6,1.782,5.6,5.047a5.049,5.049,0,0,1-5.106,4.977H12.05A5.078,5.078,0,0,1,6.81,37.268a1.792,1.792,0,0,0-3.583,0,8.433,8.433,0,0,0,2.609,6.124,8.9,8.9,0,0,0,6.215,2.476h.941a8.636,8.636,0,0,0,8.69-8.561,7.5,7.5,0,0,0-2.954-5.836,14.746,14.746,0,0,0-5.187-2.64L6.6,26.384a5.357,5.357,0,0,1-2.736-3.041A5.08,5.08,0,0,1,4.134,19.4,5.557,5.557,0,0,1,10.4,16.517q.575.229,1.177.418a1.788,1.788,0,0,0,.369.115l6.465,2.311A5.357,5.357,0,0,1,21.148,22.4a5.08,5.08,0,0,1-.273,3.941,1.792,1.792,0,1,0,3.211,1.59A8.636,8.636,0,0,0,24.534,21.232Z" transform="translate(0 0)" fill="#d2d1d1"/>
        </g>
      </g>
      <g id="_014-medal" data-name="014-medal" transform="matrix(0.966, -0.259, 0.259, 0.966, 294.822, 10113.98)">
        <g id="Group_80" data-name="Group 80">
          <g id="Group_79" data-name="Group 79" transform="translate(0)">
            <path id="Path_516" data-name="Path 516" d="M47.564,13.425,41.67,3.456A2.242,2.242,0,0,0,40.547,2.5,49.332,49.332,0,0,0,24.106,0,53.426,53.426,0,0,0,7.315,2.489a2.242,2.242,0,0,0-1.176.984L.3,13.546a2.242,2.242,0,0,0,.16,2.488L11.574,30.539A16.257,16.257,0,0,0,30.516,56,2.242,2.242,0,0,0,28.685,51.9a11.756,11.756,0,1,1,6.323-6.891,2.242,2.242,0,0,0,4.237,1.47,16.257,16.257,0,0,0-2.89-15.748L47.431,15.908A2.242,2.242,0,0,0,47.564,13.425ZM14.95,27.572,4.935,14.5,8.544,8.268,20.926,25.161A16.164,16.164,0,0,0,14.95,27.572Zm4.168-12.463a35.92,35.92,0,0,1,5.324-.42,2.242,2.242,0,0,0,0-4.485,39.144,39.144,0,0,0-7.421.722,2.233,2.233,0,0,0-.743.309l-4-5.463A54.579,54.579,0,0,1,24.106,4.485,51.348,51.348,0,0,1,35.84,5.8L24.218,22.066Zm13.9,12.6a16.177,16.177,0,0,0-5.585-2.424l12-16.8,3.509,5.935Z" fill="#d2d1d1"/>
            <path id="Path_517" data-name="Path 517" d="M5.382,14.576a2.242,2.242,0,0,0,2.242-2.242V2.243A2.243,2.243,0,0,0,3.8.657L.657,3.8A2.243,2.243,0,0,0,3.14,7.438v4.9A2.243,2.243,0,0,0,5.382,14.576Z" transform="translate(18.949 33.861)" fill="#d2d1d1"/>
          </g>
        </g>
      </g>
      <g id="_019-brain" data-name="019-brain" transform="matrix(0.966, 0.259, -0.259, 0.966, 435.698, 10766.155)">
        <g id="Group_82" data-name="Group 82" transform="translate(0 0)">
          <g id="Group_81" data-name="Group 81" transform="translate(0 0)">
            <path id="Path_518" data-name="Path 518" d="M4.655,1.634A2.389,2.389,0,1,0,.123,3.145,24.282,24.282,0,0,0,3.08,9.162a2.389,2.389,0,1,0,3.873-2.8A19.817,19.817,0,0,1,4.655,1.634Z" transform="translate(50.399 50.997)" fill="#d2d1d1"/>
            <path id="Path_519" data-name="Path 519" d="M61.149,26.633a8.537,8.537,0,0,0-2.789-6.356A8.612,8.612,0,0,0,51.467,9.3a8.649,8.649,0,0,0-8.5-7.031A8.445,8.445,0,0,0,38.03,3.857a9.288,9.288,0,0,0-15.016-.073,8.445,8.445,0,0,0-4.829-1.515A8.649,8.649,0,0,0,9.681,9.3a8.612,8.612,0,0,0-7.254,8.493,10.375,10.375,0,0,0,.632,3.331A9.505,9.505,0,0,0,0,27.828a8.609,8.609,0,0,0,8.6,8.6,26.474,26.474,0,0,0,3.981-.333,19.587,19.587,0,0,1,3.839-.265,8.613,8.613,0,0,0,8.064,5.615c1.9,0,4.012-.045,6.2-.228a2.4,2.4,0,0,0,.236.24,47.247,47.247,0,0,1,13.967,18.3,2.389,2.389,0,1,0,4.339-2,57.758,57.758,0,0,0-6.588-11.166,33.885,33.885,0,0,0,7.942,1.059A8.429,8.429,0,0,0,59,39.233a8.344,8.344,0,0,0-1.9-5.306A8.6,8.6,0,0,0,61.149,26.633Zm-8.6,3.822a2.384,2.384,0,0,0-.415.036l-2.03.358a2.389,2.389,0,0,0,.415,4.741,3.643,3.643,0,1,1,.06,7.285,33.484,33.484,0,0,1-12.6-2.882,27.635,27.635,0,0,0,3.953-1.383A2.389,2.389,0,0,0,40,34.242c-4.862,2.148-10.846,2.424-15.516,2.424a3.822,3.822,0,0,1,0-7.644,15.445,15.445,0,0,0,7.748-1.6,6.371,6.371,0,0,0,3.359-5.681,7.174,7.174,0,0,0-7.166-7.166,2.389,2.389,0,1,0,0,4.777,2.391,2.391,0,0,1,2.389,2.389c0,2.182-3.966,2.508-6.33,2.508a8.613,8.613,0,0,0-8.408,6.8,25.01,25.01,0,0,0-4.165.321,21.868,21.868,0,0,1-3.311.286,3.826,3.826,0,0,1-3.822-3.822c0-1.971,1.761-3.491,2.518-4.054a2.389,2.389,0,0,0,.961-2.05l-.02-.358a2.388,2.388,0,0,0-.345-1.111A5.769,5.769,0,0,1,7.2,17.794a3.828,3.828,0,0,1,2.912-3.712,8.662,8.662,0,0,0,8.068,5.5,2.389,2.389,0,1,0,0-4.777,3.852,3.852,0,0,1-3.873-3.822c0-.02,0-.04,0-.06s0-.04,0-.06a3.852,3.852,0,0,1,3.873-3.822A3.67,3.67,0,0,1,21.2,8.6c-.022.265-.036.532-.036.8a2.389,2.389,0,1,0,4.777,0,4.558,4.558,0,0,1,9.034-.922,2.388,2.388,0,0,0,2.31,1.909l.211,0A2.4,2.4,0,0,0,39.641,9.1a3.706,3.706,0,0,1,3.324-2.057,3.822,3.822,0,1,1,.051,7.644,2.389,2.389,0,0,0,0,4.777,8.611,8.611,0,0,0,7.977-5.394,3.831,3.831,0,0,1,2.4,5.7,2.388,2.388,0,0,0-.349,1.243v.119a2.388,2.388,0,0,0,1.305,2.129,3.691,3.691,0,0,1,2.019,3.365A3.827,3.827,0,0,1,52.55,30.455Z" fill="#d2d1d1"/>
          </g>
        </g>
      </g>
      <g id="_020-rocket" data-name="020-rocket" transform="matrix(0.966, -0.259, 0.259, 0.966, 496.362, 10204.538)">
        <g id="Group_84" data-name="Group 84" transform="translate(0 0)">
          <g id="Group_83" data-name="Group 83" transform="translate(0 0)">
            <path id="Path_520" data-name="Path 520" d="M1.413,1.413a4.833,4.833,0,1,0,6.835,0A4.838,4.838,0,0,0,1.413,1.413ZM5.97,5.97a1.61,1.61,0,1,1,0-2.278A1.613,1.613,0,0,1,5.97,5.97Z" transform="translate(20.697 10.796)" fill="#d2d1d1"/>
            <path id="Path_521" data-name="Path 521" d="M39.92,1.385A4.568,4.568,0,0,0,36.178.023a36.2,36.2,0,0,0-8.253,1.8A24.429,24.429,0,0,0,18.832,7.3l-.016.016-.327.33L1.115,13.27a1.611,1.611,0,0,0-.642,2.672L8.336,23.8a8,8,0,0,0-4.507,2.265c-1.294,1.294-2.293,3.911-3.052,8C.249,36.9.04,39.392.032,39.5a1.611,1.611,0,0,0,1.605,1.744c.044,0,.088,0,.133-.005.1-.009,2.593-.218,5.433-.745,4.089-.76,6.706-1.758,8-3.052a8,8,0,0,0,2.267-4.515l7.854,7.846A1.611,1.611,0,0,0,28,40.1l5.353-17.4a1.611,1.611,0,0,0-1.066-2.013c-.027-.008-.054-.014-.081-.021a1.61,1.61,0,0,0-1.78.347l-10.1,10.21L9.934,20.84,20.381,10.313a1.6,1.6,0,0,0,.279-.281l.434-.437C25.87,4.921,32.795,3.6,36.5,3.229a1.35,1.35,0,0,1,1.117.408,1.416,1.416,0,0,1,.391,1.17,31.732,31.732,0,0,1-2.815,9.868,1.611,1.611,0,1,0,2.892,1.42A34.979,34.979,0,0,0,41.2,5.2,4.622,4.622,0,0,0,39.92,1.385ZM28.491,27.56,25.71,36.6l-3.1-3.094Zm-17.317.776a1.241,1.241,0,0,1,1.543-.162l.376.375a1.241,1.241,0,0,1-.161,1.543,7.554,7.554,0,0,1-2.516.744A7.522,7.522,0,0,1,11.174,28.336Zm0,5.637a11.716,11.716,0,0,0,2.969-.869,4.79,4.79,0,0,1-1.217,2.055c-1.217,1.218-5.761,2.193-9.478,2.66.467-3.717,1.442-8.26,2.66-9.478a4.8,4.8,0,0,1,2.054-1.219,11.782,11.782,0,0,0-.879,2.949c-.246,1.3-.346,2.445-.35,2.493a1.611,1.611,0,0,0,1.6,1.749c.042,0,.085,0,.128-.005S9.865,34.212,11.173,33.973ZM7.655,18.563,4.613,15.524l8.924-2.889Z" fill="#d2d1d1"/>
            <circle id="Ellipse_24" data-name="Ellipse 24" cx="1.57" cy="1.57" r="1.57" transform="translate(30.361 7.852)" fill="#d2d1d1"/>
          </g>
        </g>
      </g>
      <g id="_039-physics-2" data-name="039-physics" transform="matrix(0.966, -0.259, 0.259, 0.966, 90.031, 10144.607)">
        <g id="Group_88-2" data-name="Group 88" transform="translate(0 0)">
          <g id="Group_87-2" data-name="Group 87" transform="translate(0 0)">
            <circle id="Ellipse_25-2" data-name="Ellipse 25" cx="2.048" cy="2.048" r="2.048" transform="translate(29.757 9.828)" fill="#d2d1d1"/>
            <ellipse id="Ellipse_26-2" data-name="Ellipse 26" cx="2.048" cy="1.911" rx="2.048" ry="1.911" transform="translate(30.03 37.674)" fill="#d2d1d1"/>
            <path id="Path_527-2" data-name="Path 527" d="M46.5,14.016c-.771-1.678-2.733-3.744-7.705-4.056a2.014,2.014,0,0,0-.252,4.02c2.3.144,3.862.77,4.3,1.718A2.857,2.857,0,0,1,43.2,17.04c-.05,1.268-1.2,3.287-3.421,6.015a53.363,53.363,0,0,0-10.74-7.478A63.934,63.934,0,0,0,17.765,11q.234-.63.49-1.224c1.548-3.6,3.533-5.743,5.311-5.743,1.473,0,2.765,1.439,3.591,2.647A2.014,2.014,0,0,0,30.482,4.4C27.995.764,25.348,0,23.565,0c-3.541,0-6.741,2.9-9.011,8.179q-.39.907-.736,1.885a26.34,26.34,0,0,0-6.947-.155l-.039.006c-3.625.579-5.254,2.317-5.982,3.673a6.246,6.246,0,0,0-.75,2.9,10.284,10.284,0,0,0,1.317,4.778A2.014,2.014,0,0,0,5,19.417a6.516,6.516,0,0,1-.868-2.876A2.226,2.226,0,0,1,4.4,15.492c.535-1,1.942-1.418,3.041-1.6a22.805,22.805,0,0,1,5.24.077,52.034,52.034,0,0,0-1.3,11.807A54.247,54.247,0,0,0,12.77,37.333q-.625.088-1.231.146c-3.773.356-6.574-.309-7.31-1.735a2.253,2.253,0,0,1-.2-1.018,4.9,4.9,0,0,1,.344-1.783A2.014,2.014,0,0,0,.609,31.507,8.9,8.9,0,0,0,0,34.76a6.145,6.145,0,0,0,.65,2.833C2,40.212,5.146,41.6,9.613,41.6q1.1,0,2.3-.113.916-.086,1.872-.236a23.274,23.274,0,0,0,3.033,6.154c2.441,3.432,5.013,4.153,6.743,4.153,1.783,0,4.43-.764,6.916-4.4a2.014,2.014,0,1,0-3.326-2.273c-.825,1.208-2.118,2.647-3.591,2.647-1.418,0-2.67-1.346-3.47-2.474l-.038-.052a18.648,18.648,0,0,1-2.3-4.595A55.539,55.539,0,0,0,28.87,36.052a55,55,0,0,0,10.6-7.058,2.012,2.012,0,0,0,.241-.251c2.06,2.405,3.21,4.652,3.189,6.276a2.389,2.389,0,0,1-.17,1.049c-.539,1-1.966,1.425-3.068,1.6a2.014,2.014,0,0,0,.315,4,2.035,2.035,0,0,0,.32-.025c3.625-.579,5.254-2.317,5.982-3.673a6.16,6.16,0,0,0,.649-2.9c.035-2.7-1.451-5.84-4.308-9.122,3.12-3.762,4.517-6.439,4.609-8.749A6.67,6.67,0,0,0,46.5,14.016Zm-29.894.838c.554.173,1.137.361,1.742.563l-.109.055q-1.011.522-2,1.079Q16.41,15.686,16.608,14.855Zm.108,21.669q-.156-.714-.308-1.476.83.48,1.68.937l.182.1Q17.485,36.321,16.716,36.524Zm14.7-6.575c-1.4.891-2.87,1.738-4.393,2.525-1.181.61-2.366,1.171-3.544,1.681-1.165-.526-2.336-1.1-3.485-1.719-1.514-.813-2.985-1.69-4.376-2.609-.13-1.309-.209-2.664-.209-4.046,0-1.4.055-2.777.16-4.123,1.438-.921,2.956-1.8,4.522-2.606,1.148-.593,2.315-1.146,3.477-1.65,1.174.51,2.372,1.081,3.57,1.724,1.485.8,2.921,1.655,4.282,2.553.111,1.309.2,2.692.2,4.1C31.621,27.214,31.528,28.62,31.414,29.948Zm5.42-4c-.388.336-.791.668-1.2,1,.011-.385.019-.773.019-1.166,0-.334-.006-.663-.014-.991q.659.546,1.273,1.1C36.884,25.909,36.858,25.927,36.835,25.947Z" fill="#d2d1d1"/>
            <ellipse id="Ellipse_27-2" data-name="Ellipse 27" cx="2.048" cy="1.911" rx="2.048" ry="1.911" transform="translate(4.368 24.57)" fill="#d2d1d1"/>
          </g>
        </g>
      </g>
      <g id="_044-sport-3" data-name="044-sport" transform="translate(374.581 10408.299) rotate(30)">
        <g id="Group_89-3" data-name="Group 89" transform="translate(0 0)">
          <path id="Path_528-3" data-name="Path 528" d="M52.349,8.981A30.665,30.665,0,0,0,8.981,52.349a30.677,30.677,0,0,0,37.551,4.562,2.4,2.4,0,0,0-2.483-4.1,25.785,25.785,0,0,1-10.989,3.615V33.061h8.608a30.381,30.381,0,0,0,2.326,9.559,2.4,2.4,0,0,0,4.412-1.869,25.614,25.614,0,0,1-1.928-7.69h9.948a25.835,25.835,0,0,1-4.275,11.965,2.4,2.4,0,1,0,3.983,2.663A30.59,30.59,0,0,0,52.349,8.981ZM4.9,33.061H14.85a25.887,25.887,0,0,1-4.966,13A25.731,25.731,0,0,1,4.9,33.061ZM28.269,56.427a25.784,25.784,0,0,1-15.127-6.743,30.677,30.677,0,0,0,6.515-16.623h8.611Zm0-28.157H19.661A30.389,30.389,0,0,0,17.39,18.84a2.4,2.4,0,0,0-4.42,1.849,25.617,25.617,0,0,1,1.882,7.58H4.9A25.917,25.917,0,0,1,28.269,4.9Zm13.4,0H33.061V4.9a25.784,25.784,0,0,1,15.126,6.742A30.641,30.641,0,0,0,41.672,28.269Zm4.808,0a25.851,25.851,0,0,1,4.967-13,25.731,25.731,0,0,1,4.98,13Z" transform="translate(0)" fill="#d2d1d1"/>
        </g>
      </g>
      <g id="_048-drafting-2" data-name="048-drafting" transform="translate(143.355 9882.112) rotate(30)">
        <g id="Group_90-2" data-name="Group 90" transform="translate(0 0)">
          <path id="Path_529-2" data-name="Path 529" d="M47.477,40.066H39.514l-3.753-8.891a2.316,2.316,0,1,0-4.267,1.8l2.993,7.089H27.1V37.75a2.316,2.316,0,1,0-4.632,0v2.316h-7.3L20.909,26.35A10.422,10.422,0,1,0,27.1,6.513v-4.2a2.316,2.316,0,1,0-4.632,0v4.2A10.416,10.416,0,0,0,17.026,23.63L10.145,40.066H2.316a2.316,2.316,0,0,0,0,4.632H8.205L3.44,56.078a2.316,2.316,0,1,0,4.273,1.789L13.227,44.7h9.238v2.316a2.316,2.316,0,1,0,4.632,0V44.7h9.345L42,57.873a2.316,2.316,0,1,0,4.267-1.8L41.469,44.7h6.008a2.316,2.316,0,0,0,0-4.632Zm-22.7-29.181a5.79,5.79,0,1,1-5.79,5.79A5.8,5.8,0,0,1,24.781,10.885Z" transform="translate(0 0)" fill="#d2d1d1"/>
        </g>
      </g>
      <g id="_050-trigonometry-2" data-name="050-trigonometry" transform="matrix(0.966, 0.259, -0.259, 0.966, 93.649, 10641.777)">
        <g id="Group_91-2" data-name="Group 91">
          <path id="Path_530-2" data-name="Path 530" d="M66.428,55.609l-.021-.021-8.86-8.668A2.683,2.683,0,0,0,53.715,47,27.409,27.409,0,0,0,46.5,63.326H19.585V51.789A2.683,2.683,0,0,0,16.9,49.107H5.366V22.25A23.73,23.73,0,0,0,19.587,16.3l25.2,25.054a2.683,2.683,0,1,0,3.783-3.805L13.083,2.264A7.545,7.545,0,0,0,4.731.6,7.545,7.545,0,0,0,0,7.683V57.96A10.744,10.744,0,0,0,10.732,68.692H61.009a7.664,7.664,0,0,0,5.419-13.083ZM5.366,7.683A2.3,2.3,0,0,1,9.294,6.064L15.773,12.5A18.383,18.383,0,0,1,5.366,16.869V7.683Zm8.854,55.643H10.732A5.372,5.372,0,0,1,5.366,57.96V54.472h8.854v8.853Zm48.912-1.419a2.254,2.254,0,0,1-2.123,1.419h-9.12A22.165,22.165,0,0,1,55.881,52.8l6.761,6.614A2.254,2.254,0,0,1,63.132,61.907Z" fill="#d2d1d1"/>
        </g>
      </g>
      <g id="_027-magnet-3" data-name="027-magnet" transform="translate(221.629 10492.342) rotate(22)">
        <g id="Group_97-3" data-name="Group 97" transform="translate(0 0)">
          <g id="Group_96-3" data-name="Group 96" transform="translate(0)">
            <path id="Path_535-3" data-name="Path 535" d="M8.791,4.009H5.644L8.13,0H3.307L.176,5.583A1.363,1.363,0,0,0,1.38,7.61H4.11L2.284,12.671a.415.415,0,0,0-.042.17c0,.214.184.341.422.34A.673.673,0,0,0,3.123,13L9.538,5.659A1,1,0,0,0,8.791,4.009Z" transform="translate(11.202 14.812)" fill="#d2d1d1"/>
            <path id="Path_536-3" data-name="Path 536" d="M31.283,10.762a16.1,16.1,0,0,0-30.379,0,15.971,15.971,0,0,0-.845,6.689L1.423,33.543a1.359,1.359,0,0,0,1.354,1.244h5.5a1.359,1.359,0,0,0,1.357-1.42L8.922,17.536q0-.027,0-.053a7.136,7.136,0,0,1,7.175-7.767,7.136,7.136,0,0,1,7.175,7.767c0,.016,0,.032,0,.048l-.784,15.831a1.359,1.359,0,0,0,1.357,1.426h5.571a1.359,1.359,0,0,0,1.354-1.244l.461-5.436a1.359,1.359,0,0,0-1.354-1.474H25.536l.443-8.946A9.854,9.854,0,0,0,16.094,7,9.854,9.854,0,0,0,6.208,17.684l.4,8.95H3.565l-.8-9.412a13.374,13.374,0,0,1,13.327-14.5,13.374,13.374,0,0,1,13.327,14.5L29.1,20.948a1.359,1.359,0,0,0,2.708.23l.316-3.726A15.971,15.971,0,0,0,31.283,10.762ZM25.4,29.352h2.991l-.23,2.718H25.267Zm-18.666,0,.123,2.718H4.025L3.8,29.352Z" transform="translate(0 0)" fill="#d2d1d1"/>
          </g>
        </g>
      </g>
      <g id="_041-elearning" data-name="041-elearning" transform="translate(455.018 9916.855) rotate(17)">
        <g id="Group_101" data-name="Group 101" transform="translate(0 0)">
          <g id="Group_100" data-name="Group 100" transform="translate(0)">
            <path id="Path_540" data-name="Path 540" d="M15.632,2a2,2,0,0,0-2-2H2A2,2,0,1,0,2,4.008H13.628A2,2,0,0,0,15.632,2Z" transform="translate(27.756 16.033)" fill="#d2d1d1"/>
            <path id="Path_541" data-name="Path 541" d="M2,0A2,2,0,1,0,2,4.008H9.62A2,2,0,1,0,9.62,0Z" transform="translate(27.756 24.049)" fill="#d2d1d1"/>
            <path id="Path_542" data-name="Path 542" d="M49.3,20.041a2,2,0,0,0,2-2V8.016A8.025,8.025,0,0,0,43.288,0H8.016A8.025,8.025,0,0,0,0,8.016V28.057a8.025,8.025,0,0,0,8.016,8.016H23.648v4H16.634a2,2,0,1,0,0,4.008H34.67a2,2,0,1,0,0-4.008H27.656v-4H43.288A8.025,8.025,0,0,0,51.3,28.057a2,2,0,0,0-4.008,0,4.013,4.013,0,0,1-4.008,4.008H8.016a4.013,4.013,0,0,1-4.008-4.008V8.016A4.013,4.013,0,0,1,8.016,4.008H43.288A4.013,4.013,0,0,1,47.3,8.016v10.02A2,2,0,0,0,49.3,20.041Z" fill="#d2d1d1"/>
            <path id="Path_543" data-name="Path 543" d="M13.628,0H2A2,2,0,1,0,2,4.008H13.628a2,2,0,1,0,0-4.008Z" transform="translate(7.916 16.033)" fill="#d2d1d1"/>
            <path id="Path_544" data-name="Path 544" d="M13.628,0H2A2,2,0,1,0,2,4.008H13.628a2,2,0,0,0,0-4.008Z" transform="translate(27.756 8.016)" fill="#d2d1d1"/>
            <path id="Path_545" data-name="Path 545" d="M13.628,0H2A2,2,0,0,0,2,4.008H13.628a2,2,0,0,0,0-4.008Z" transform="translate(7.916 8.016)" fill="#d2d1d1"/>
            <path id="Path_546" data-name="Path 546" d="M13.628,0H2A2,2,0,1,0,2,4.008H13.628a2,2,0,1,0,0-4.008Z" transform="translate(7.916 24.049)" fill="#d2d1d1"/>
          </g>
        </g>
      </g>
      <g id="_041-elearning-2" data-name="041-elearning" transform="matrix(0.966, -0.259, 0.259, 0.966, 236.257, 10846.783)">
        <g id="Group_101-2" data-name="Group 101" transform="translate(0 0)">
          <g id="Group_100-2" data-name="Group 100" transform="translate(0 0)">
            <path id="Path_540-2" data-name="Path 540" d="M15.632,2a2,2,0,0,0-2-2H2A2,2,0,1,0,2,4.008H13.628A2,2,0,0,0,15.632,2Z" transform="translate(27.756 16.033)" fill="#d2d1d1"/>
            <path id="Path_541-2" data-name="Path 541" d="M2,0A2,2,0,1,0,2,4.008H9.62A2,2,0,1,0,9.62,0Z" transform="translate(27.756 24.049)" fill="#d2d1d1"/>
            <path id="Path_542-2" data-name="Path 542" d="M49.3,20.041a2,2,0,0,0,2-2V8.016A8.025,8.025,0,0,0,43.288,0H8.016A8.025,8.025,0,0,0,0,8.016V28.057a8.025,8.025,0,0,0,8.016,8.016H23.648v4H16.634a2,2,0,1,0,0,4.008H34.67a2,2,0,1,0,0-4.008H27.656v-4H43.288A8.025,8.025,0,0,0,51.3,28.057a2,2,0,0,0-4.008,0,4.013,4.013,0,0,1-4.008,4.008H8.016a4.013,4.013,0,0,1-4.008-4.008V8.016A4.013,4.013,0,0,1,8.016,4.008H43.288A4.013,4.013,0,0,1,47.3,8.016v10.02A2,2,0,0,0,49.3,20.041Z" fill="#d2d1d1"/>
            <path id="Path_543-2" data-name="Path 543" d="M13.628,0H2A2,2,0,1,0,2,4.008H13.628a2,2,0,1,0,0-4.008Z" transform="translate(7.916 16.033)" fill="#d2d1d1"/>
            <path id="Path_544-2" data-name="Path 544" d="M13.628,0H2A2,2,0,1,0,2,4.008H13.628a2,2,0,0,0,0-4.008Z" transform="translate(27.756 8.016)" fill="#d2d1d1"/>
            <path id="Path_545-2" data-name="Path 545" d="M13.628,0H2A2,2,0,0,0,2,4.008H13.628a2,2,0,0,0,0-4.008Z" transform="translate(7.916 8.016)" fill="#d2d1d1"/>
            <path id="Path_546-2" data-name="Path 546" d="M13.628,0H2A2,2,0,1,0,2,4.008H13.628a2,2,0,1,0,0-4.008Z" transform="translate(7.916 24.049)" fill="#d2d1d1"/>
          </g>
        </g>
      </g>
      <g id="_054-study-2" data-name="054-study" transform="matrix(0.966, -0.259, 0.259, 0.966, 76.945, 10381.254)">
        <g id="Group_102-2" data-name="Group 102" transform="translate(0)">
          <path id="Path_547-2" data-name="Path 547" d="M44.844,31.3l-9-8.963L42.707,15.5A9.077,9.077,0,1,0,29.87,2.659L23.043,9.486,14.037.516a1.772,1.772,0,0,0-2.51.009L.513,11.648a1.772,1.772,0,0,0,.009,2.5l8.947,8.91L4.5,28.026a1.772,1.772,0,0,0-.454.778L.065,43.118A1.772,1.772,0,0,0,2.256,45.3l14.315-4.066a1.772,1.772,0,0,0,.771-2.956L8.317,29.224,29.344,8.2l7.82,7.82L21.067,32.07a1.772,1.772,0,0,0,0,2.512L31.416,44.851a1.772,1.772,0,0,0,1.248.514h.008a1.772,1.772,0,0,0,1.252-.525L44.852,33.8A1.772,1.772,0,0,0,44.844,31.3ZM12.705,38.645l-8.379,2.38,2.347-8.431Zm-.731-18.091-7.7-7.669,8.521-8.6,2.812,2.8L12.116,10.63a1.772,1.772,0,0,0,2.526,2.486l3.476-3.533,2.419,2.409ZM31.85,5.691l.526-.526A5.532,5.532,0,0,1,40.2,12.987l-.529.527Zm.8,35.395-7.822-7.764,8.5-8.481,2.391,2.381-3.4,3.427a1.772,1.772,0,0,0,2.515,2.5l3.4-3.423,2.854,2.842Z" transform="translate(0 0)" fill="#d2d1d1"/>
        </g>
      </g>
      <g id="_055-molecule" data-name="055-molecule" transform="translate(254.425 10640.979) rotate(-45)">
        <g id="Group_103" data-name="Group 103" transform="translate(0 0)">
          <path id="Path_548" data-name="Path 548" d="M49.812,43.2a6.623,6.623,0,0,0-6.233,4.408H38.964A6.606,6.606,0,0,0,31.3,43.357l-2.437-4.086a6.592,6.592,0,0,0,0-8.232l2.381-4.1a6.605,6.605,0,0,0,1.487.171,2.2,2.2,0,1,0,0-4.408,2.2,2.2,0,1,1,2.2-2.2,2.2,2.2,0,0,0,2.2,2.2c.056,0,.111,0,.165-.008s.11.008.165.008h6.11a6.623,6.623,0,0,0,6.233,4.408,2.2,2.2,0,1,0,0-4.408,2.2,2.2,0,1,1,2.2-2.2,2.2,2.2,0,1,0,4.408,0,6.612,6.612,0,0,0-12.845-2.2H38.964A6.606,6.606,0,0,0,30.9,14.145L28.227,10.4a6.612,6.612,0,1,0-3.585,2.564l2.675,3.745a6.591,6.591,0,0,0,.208,7.857l-2.4,4.134a6.605,6.605,0,0,0-7.663,4.251H12.845a6.612,6.612,0,1,0-6.233,8.816,2.2,2.2,0,0,0,0-4.408,2.2,2.2,0,1,1,2.2-2.2,2.2,2.2,0,0,0,2.2,2.2h6.44a6.606,6.606,0,0,0,7.664,4.251L27.562,45.7A6.607,6.607,0,0,0,32.73,56.424a2.2,2.2,0,1,0,0-4.408,2.2,2.2,0,1,1,2.2-2.2,2.2,2.2,0,0,0,2.2,2.2c.056,0,.111,0,.165-.008s.11.008.165.008h6.11a6.623,6.623,0,0,0,6.233,4.408,2.2,2.2,0,1,0,0-4.408,2.2,2.2,0,1,1,2.2-2.2,2.2,2.2,0,1,0,4.408,0A6.62,6.62,0,0,0,49.812,43.2Zm-27-34.384a2.2,2.2,0,1,1,2.2-2.2A2.207,2.207,0,0,1,22.812,8.816Zm.882,28.543a2.2,2.2,0,1,1,2.2-2.2A2.207,2.207,0,0,1,23.694,37.359Z" transform="translate(0 0)" fill="#d2d1d1"/>
        </g>
      </g>
      <g id="_055-molecule-2" data-name="055-molecule" transform="translate(258.497 9656.768) rotate(90)">
        <g id="Group_103-2" data-name="Group 103" transform="translate(0 0)">
          <path id="Path_548-2" data-name="Path 548" d="M49.812,43.2a6.623,6.623,0,0,0-6.233,4.408H38.964A6.606,6.606,0,0,0,31.3,43.357l-2.437-4.086a6.592,6.592,0,0,0,0-8.232l2.381-4.1a6.605,6.605,0,0,0,1.487.171,2.2,2.2,0,1,0,0-4.408,2.2,2.2,0,1,1,2.2-2.2,2.2,2.2,0,0,0,2.2,2.2c.056,0,.111,0,.165-.008s.11.008.165.008h6.11a6.623,6.623,0,0,0,6.233,4.408,2.2,2.2,0,1,0,0-4.408,2.2,2.2,0,1,1,2.2-2.2,2.2,2.2,0,1,0,4.408,0,6.612,6.612,0,0,0-12.845-2.2H38.964A6.606,6.606,0,0,0,30.9,14.145L28.227,10.4a6.612,6.612,0,1,0-3.585,2.564l2.675,3.745a6.591,6.591,0,0,0,.208,7.857l-2.4,4.134a6.605,6.605,0,0,0-7.663,4.251H12.845a6.612,6.612,0,1,0-6.233,8.816,2.2,2.2,0,0,0,0-4.408,2.2,2.2,0,1,1,2.2-2.2,2.2,2.2,0,0,0,2.2,2.2h6.44a6.606,6.606,0,0,0,7.664,4.251L27.562,45.7A6.607,6.607,0,0,0,32.73,56.424a2.2,2.2,0,1,0,0-4.408,2.2,2.2,0,1,1,2.2-2.2,2.2,2.2,0,0,0,2.2,2.2c.056,0,.111,0,.165-.008s.11.008.165.008h6.11a6.623,6.623,0,0,0,6.233,4.408,2.2,2.2,0,1,0,0-4.408,2.2,2.2,0,1,1,2.2-2.2,2.2,2.2,0,1,0,4.408,0A6.62,6.62,0,0,0,49.812,43.2Zm-27-34.384a2.2,2.2,0,1,1,2.2-2.2A2.207,2.207,0,0,1,22.812,8.816Zm.882,28.543a2.2,2.2,0,1,1,2.2-2.2A2.207,2.207,0,0,1,23.694,37.359Z" transform="translate(0 0)" fill="#d2d1d1"/>
        </g>
      </g>
    </g>
    <g id="_041-elearning-3" data-name="041-elearning" transform="matrix(0.966, -0.259, 0.259, 0.966, 1273.509, 9512.783)">
      <g id="Group_101-3" data-name="Group 101" transform="translate(0 0)">
        <g id="Group_100-3" data-name="Group 100">
          <path id="Path_540-3" data-name="Path 540" d="M288.221,197.5a1.439,1.439,0,0,0-1.439-1.439h-8.344a1.439,1.439,0,1,0,0,2.877h8.344A1.439,1.439,0,0,0,288.221,197.5Z" transform="translate(-257.075 -184.552)" fill="#d2d1d1"/>
          <path id="Path_541-3" data-name="Path 541" d="M278.439,276.061a1.439,1.439,0,1,0,0,2.877h5.467a1.439,1.439,0,1,0,0-2.877Z" transform="translate(-257.075 -258.798)" fill="#d2d1d1"/>
          <path id="Path_542-3" data-name="Path 542" d="M35.39,50.447a1.439,1.439,0,0,0,1.439-1.439V41.815a5.761,5.761,0,0,0-5.754-5.754H5.754A5.761,5.761,0,0,0,0,41.815V56.2a5.761,5.761,0,0,0,5.754,5.754H16.976v2.868H11.941a1.439,1.439,0,0,0,0,2.877H24.888a1.439,1.439,0,0,0,0-2.877H19.853V61.956H31.074A5.761,5.761,0,0,0,36.829,56.2a1.439,1.439,0,0,0-2.877,0,2.881,2.881,0,0,1-2.877,2.877H5.754A2.881,2.881,0,0,1,2.877,56.2V41.815a2.88,2.88,0,0,1,2.877-2.877h25.32a2.881,2.881,0,0,1,2.877,2.877v7.193A1.439,1.439,0,0,0,35.39,50.447Z" transform="translate(0 -36.061)" fill="#d2d1d1"/>
          <path id="Path_543-3" data-name="Path 543" d="M88.783,196.061H80.439a1.439,1.439,0,1,0,0,2.877h8.344a1.439,1.439,0,1,0,0-2.877Z" transform="translate(-73.317 -184.552)" fill="#d2d1d1"/>
          <path id="Path_544-3" data-name="Path 544" d="M286.783,116.061h-8.344a1.439,1.439,0,1,0,0,2.877h8.344a1.439,1.439,0,1,0,0-2.877Z" transform="translate(-257.075 -110.307)" fill="#d2d1d1"/>
          <path id="Path_545-3" data-name="Path 545" d="M88.783,116.061H80.439a1.439,1.439,0,0,0,0,2.877h8.344a1.439,1.439,0,0,0,0-2.877Z" transform="translate(-73.317 -110.307)" fill="#d2d1d1"/>
          <path id="Path_546-3" data-name="Path 546" d="M88.783,276.061H80.439a1.439,1.439,0,1,0,0,2.877h8.344a1.439,1.439,0,1,0,0-2.877Z" transform="translate(-73.317 -258.798)" fill="#d2d1d1"/>
        </g>
      </g>
    </g>
  </g>
</svg>
