<svg xmlns="http://www.w3.org/2000/svg" width="48" height="37.125" viewBox="0 0 48 37.125">
  <path id="multimedia" d="M40.5.5H7.5A7.508,7.508,0,0,0,0,8V30.125a7.508,7.508,0,0,0,7.5,7.5h33a7.464,7.464,0,0,0,5.874-2.837,1.889,1.889,0,0,0-.2-2.552l-.093-.088-.325-.3L44.6,30.775l-3.482-3.233c-2.532-2.35-5.066-4.7-5.066-4.7a1.875,1.875,0,1,0-2.55,2.75c2.745,2.545,6.487,6.016,8.558,7.941a3.75,3.75,0,0,1-1.565.34H7.5a3.728,3.728,0,0,1-1.561-.342l8.555-7.94a1.875,1.875,0,1,0-2.551-2.749L3.764,30.436c-.008-.1-.014-.207-.014-.311V8c0-.11.006-.219.015-.327l14.178,13.05a1.874,1.874,0,0,0,1.27.5h9.575a1.876,1.876,0,0,0,1.27-.5L44.235,7.676c.009.107.015.214.015.323V22.625a1.875,1.875,0,0,0,3.75,0V8A7.508,7.508,0,0,0,40.5.5ZM28.057,17.469H19.945l-14-12.882A3.729,3.729,0,0,1,7.5,4.25h33a3.723,3.723,0,0,1,1.553.338Zm0,0" transform="translate(0 -0.5)" fill="#dd1a50"/>
</svg>
