<svg xmlns="http://www.w3.org/2000/svg" width="60" height="57.187" viewBox="0 0 60 57.187">
  <path id="chat_1_" data-name="chat (1)" d="M3.89,26.75H18.846a3.894,3.894,0,0,0,3.807-4.693,11.488,11.488,0,0,0-5.323-7.483,7.383,7.383,0,1,0-11.923,0A11.488,11.488,0,0,0,.084,22.057,3.894,3.894,0,0,0,3.89,26.75ZM11.368,7.531a2.7,2.7,0,1,1-2.7,2.7A2.7,2.7,0,0,1,11.368,7.531Zm-.061,10.078h.123a6.81,6.81,0,0,1,6.363,4.453H4.944a6.808,6.808,0,0,1,6.363-4.453Zm45.84,33.567A2.344,2.344,0,0,0,55.327,53H42.209a6.809,6.809,0,0,1,6.363-4.453h.123c.021,0,.042,0,.062,0a7.39,7.39,0,1,0-6.085-3.032,11.488,11.488,0,0,0-5.323,7.483,3.894,3.894,0,0,0,3.806,4.693H56.112a3.894,3.894,0,0,0,3.806-4.693,2.344,2.344,0,0,0-2.771-1.818ZM48.633,38.468a2.7,2.7,0,1,1-2.7,2.7A2.7,2.7,0,0,1,48.633,38.468ZM50.625.5H36.212a9.385,9.385,0,0,0-9.375,9.375v4.8A9.349,9.349,0,0,0,28.864,20.5l-1.428,2.855a2.344,2.344,0,0,0,3.029,3.2l5.765-2.5h14.4A9.385,9.385,0,0,0,60,14.679v-4.8A9.385,9.385,0,0,0,50.625.5Zm4.688,14.18a4.692,4.692,0,0,1-4.688,4.687H35.743a2.349,2.349,0,0,0-.933.194l-.772.335a2.341,2.341,0,0,0-.832-1.62,4.681,4.681,0,0,1-1.681-3.6v-4.8a4.692,4.692,0,0,1,4.688-4.687H50.625a4.692,4.692,0,0,1,4.688,4.687ZM23.79,31.437H9.376A9.385,9.385,0,0,0,0,40.812v4.8a9.386,9.386,0,0,0,9.375,9.375h14.4l5.765,2.5a2.344,2.344,0,0,0,3.029-3.2L31.137,51.44a9.351,9.351,0,0,0,2.028-5.823v-4.8a9.385,9.385,0,0,0-9.375-9.375Zm4.688,14.18a4.679,4.679,0,0,1-1.681,3.6,2.344,2.344,0,0,0-.833,1.621l-.772-.335a2.344,2.344,0,0,0-.933-.194H9.376a4.693,4.693,0,0,1-4.688-4.688v-4.8a4.693,4.693,0,0,1,4.688-4.688H23.79a4.693,4.693,0,0,1,4.688,4.688Zm0,0" transform="translate(-0.001 -0.5)" fill="#dd1a50"/>
</svg>
