<svg xmlns="http://www.w3.org/2000/svg" width="59.997" height="60" viewBox="0 0 59.997 60">
  <path id="basketball" d="M9.755,40.209l-5.74,5.76A2.344,2.344,0,0,1,.695,42.661l5.74-5.76a2.344,2.344,0,1,1,3.321,3.308Zm9.925,10.165L14.054,56a2.344,2.344,0,1,0,3.315,3.315l5.625-5.625a2.344,2.344,0,0,0-3.315-3.315ZM15,45.078a2.344,2.344,0,0,0-3.314.045L7.469,49.459a2.344,2.344,0,1,0,3.36,3.269l4.219-4.336A2.344,2.344,0,0,0,15,45.078Zm45.006-20.7a24.313,24.313,0,0,1-3.531,12.591L56.459,37a2.344,2.344,0,0,1-2.913,1.1,14.624,14.624,0,0,1-9.238-11.5H37.977v17.32a19.662,19.662,0,0,0,7.036-2.232,2.344,2.344,0,1,1,2.237,4.119A24.378,24.378,0,1,1,60.008,24.375ZM49.14,21.914h6.026a19.529,19.529,0,0,0-1.794-6.076A10.481,10.481,0,0,0,49.14,21.914ZM17.993,15.641A19.528,19.528,0,0,0,16.1,21.914h6.335A9.981,9.981,0,0,0,17.993,15.641ZM22.384,26.6H16.073a19.533,19.533,0,0,0,1.788,6.238A10.22,10.22,0,0,0,22.384,26.6Zm10.906,0H27.165a14.853,14.853,0,0,1-2.476,6.067A15.026,15.026,0,0,1,20.371,36.8,19.68,19.68,0,0,0,33.29,43.922V26.6Zm4.688-15.469V21.914h6.378a15.185,15.185,0,0,1,6.489-10.025,19.662,19.662,0,0,0-30.281-.167A14.661,14.661,0,0,1,27.2,21.914H33.29V11.133a2.344,2.344,0,1,1,4.687,0ZM55.192,26.6H49.07A9.835,9.835,0,0,0,53.4,32.81,19.631,19.631,0,0,0,55.192,26.6Z" transform="translate(-0.011)" fill="#ec672a"/>
</svg>
