<svg xmlns="http://www.w3.org/2000/svg" width="148.003" height="161.561" viewBox="0 0 148.003 161.561">
  <g id="Group_88" data-name="Group 88" transform="translate(0)">
    <g id="Group_87" data-name="Group 87">
      <circle id="Ellipse_25" data-name="Ellipse 25" cx="6.416" cy="6.416" r="6.416" transform="translate(93.243 30.796)" fill="#7b3886"/>
      <ellipse id="Ellipse_26" data-name="Ellipse 26" cx="6.416" cy="5.988" rx="6.416" ry="5.988" transform="translate(94.098 118.05)" fill="#7b3886"/>
      <path id="Path_527" data-name="Path 527" d="M167.194,43.919c-2.416-5.258-8.565-11.731-24.144-12.709a6.311,6.311,0,0,0-.791,12.6c7.195.452,12.1,2.413,13.466,5.382a8.951,8.951,0,0,1,1.134,4.206c-.157,3.972-3.759,10.3-10.72,18.847a167.21,167.21,0,0,0-33.653-23.432A200.333,200.333,0,0,0,77.147,34.454q.734-1.973,1.535-3.836c4.85-11.269,11.07-18,16.641-18,4.614,0,8.665,4.51,11.251,8.294a6.311,6.311,0,0,0,10.421-7.122C109.2,2.393,100.909,0,95.323,0,84.228,0,74.2,9.1,67.088,25.628q-1.224,2.842-2.305,5.905a82.536,82.536,0,0,0-21.767-.487l-.123.018c-11.359,1.814-16.463,7.26-18.744,11.509a19.573,19.573,0,0,0-2.349,9.1c-.058,4.524,1.331,9.561,4.128,14.97a6.311,6.311,0,0,0,11.212-5.8c-1.809-3.5-2.75-6.616-2.719-9.012a6.976,6.976,0,0,1,.849-3.287c1.675-3.12,6.087-4.442,9.528-5a71.459,71.459,0,0,1,16.419.241,163.046,163.046,0,0,0-4.076,37,169.98,169.98,0,0,0,4.357,36.2q-1.96.276-3.857.457c-11.821,1.114-20.6-.969-22.907-5.438a7.058,7.058,0,0,1-.629-3.189,15.347,15.347,0,0,1,1.079-5.586,6.311,6.311,0,0,0-11.792-4.5,27.881,27.881,0,0,0-1.908,10.191,19.254,19.254,0,0,0,2.036,8.876C27.76,126,37.608,130.36,51.6,130.36q3.446,0,7.222-.355,2.87-.271,5.865-.739a72.928,72.928,0,0,0,9.5,19.282C81.845,159.3,89.9,161.561,95.323,161.561c5.586,0,13.88-2.393,21.672-13.794a6.311,6.311,0,1,0-10.421-7.122c-2.586,3.784-6.637,8.294-11.251,8.294-4.444,0-8.366-4.216-10.874-7.753-.039-.055-.078-.108-.118-.162a58.432,58.432,0,0,1-7.206-14.4,174.029,174.029,0,0,0,34.821-13.66,172.346,172.346,0,0,0,33.214-22.117,6.306,6.306,0,0,0,.756-.786c6.454,7.537,10.059,14.578,9.993,19.666a7.487,7.487,0,0,1-.532,3.287c-1.689,3.146-6.16,4.464-9.614,5.015a6.312,6.312,0,0,0,.987,12.544,6.375,6.375,0,0,0,1-.08c11.36-1.813,16.464-7.26,18.745-11.51a19.3,19.3,0,0,0,2.032-9.1c.109-8.471-4.546-18.3-13.5-28.584,9.776-11.788,14.155-20.175,14.441-27.415A20.9,20.9,0,0,0,167.194,43.919ZM73.524,46.546c1.736.543,3.562,1.13,5.458,1.764l-.34.174q-3.169,1.637-6.257,3.38Q72.9,49.151,73.524,46.546Zm.339,67.9q-.49-2.237-.967-4.626,2.6,1.5,5.263,2.935c.19.1.381.2.571.3Q76.273,113.808,73.863,114.444Zm46.054-20.6c-4.38,2.791-8.993,5.447-13.764,7.911-3.7,1.911-7.414,3.67-11.105,5.267-3.649-1.648-7.319-3.455-10.919-5.387-4.746-2.547-9.353-5.3-13.712-8.175-.408-4.1-.654-8.348-.654-12.677,0-4.382.171-8.7.5-12.918,4.5-2.887,9.262-5.631,14.17-8.165,3.6-1.857,7.253-3.592,10.9-5.17,3.678,1.6,7.434,3.387,11.187,5.4,4.655,2.5,9.153,5.185,13.419,8,.348,4.1.631,8.434.631,12.853C120.566,85.274,120.273,89.677,119.918,93.841ZM136.9,81.3c-1.216,1.051-2.477,2.095-3.772,3.13.035-1.205.058-2.421.058-3.653,0-1.046-.018-2.079-.044-3.105q2.065,1.712,3.988,3.448C137.056,81.184,136.977,81.239,136.9,81.3Z" transform="translate(-21.483)" fill="#7b3886"/>
      <ellipse id="Ellipse_27" data-name="Ellipse 27" cx="6.416" cy="5.988" rx="6.416" ry="5.988" transform="translate(13.687 76.989)" fill="#7b3886"/>
    </g>
  </g>
</svg>
