<svg xmlns="http://www.w3.org/2000/svg" width="48" height="48" viewBox="0 0 48 48">
  <g id="phone-call" transform="translate(0 -0.001)">
    <g id="Group_202" data-name="Group 202" transform="translate(0 0.002)">
      <path id="Path_602" data-name="Path 602" d="M48,38.678A7.1,7.1,0,0,0,45.818,33.8c-2.619-2.525-4.812-3.983-6.9-4.587a7.728,7.728,0,0,0-7.935,2.252l-.011.011-2.535,2.516a37.99,37.99,0,0,1-7.993-6.182l-.247-.247a37.993,37.993,0,0,1-6.182-7.993l2.516-2.535.011-.011a7.728,7.728,0,0,0,2.252-7.935C18.185,7,16.727,4.8,14.2,2.184a7.135,7.135,0,0,0-9.9-.357l-.054.048q-.037.034-.073.069A15.213,15.213,0,0,0,0,13.088C.039,20.8,4.275,29.611,11.333,36.669a45.7,45.7,0,0,0,4.5,3.915,1.875,1.875,0,0,0,2.282-2.976,41.985,41.985,0,0,1-4.125-3.59C7.61,27.643,3.784,19.812,3.75,13.069A11.584,11.584,0,0,1,6.791,4.63l.014-.013a3.373,3.373,0,0,1,4.7.17c4.854,5.034,4.5,7.411,2.358,9.61l-3.476,3.5A1.875,1.875,0,0,0,10,19.983a37.887,37.887,0,0,0,7.539,10.231l.247.246A37.882,37.882,0,0,0,28.019,38a1.875,1.875,0,0,0,2.084-.382l3.5-3.476c2.2-2.145,4.577-2.5,9.61,2.358a3.373,3.373,0,0,1,.17,4.7l-.013.015a11.549,11.549,0,0,1-8.353,3.041h-.086a24.313,24.313,0,0,1-9.252-2.19A1.875,1.875,0,0,0,24.2,45.5,27.661,27.661,0,0,0,34.914,48h.105a15.18,15.18,0,0,0,11.038-4.173c.024-.024.047-.048.069-.073l.049-.054A7.1,7.1,0,0,0,48,38.678Z" transform="translate(0 -0.002)" fill="#dd1a50"/>
    </g>
  </g>
</svg>
