<svg xmlns="http://www.w3.org/2000/svg" width="55.313" height="60" viewBox="0 0 55.313 60">
  <g id="stopwatch" transform="translate(-20)">
    <g id="Group_63" data-name="Group 63" transform="translate(20)">
      <g id="Group_62" data-name="Group 62">
        <path id="Path_505" data-name="Path 505" d="M385.491,17.653l6.364,5.307a2.344,2.344,0,1,0,3-3.6l-6.364-5.307a2.344,2.344,0,1,0-3,3.6Z" transform="translate(-341.916 -11.926)" fill="#7b3886"/>
        <path id="Path_506" data-name="Path 506" d="M35.39,23.5a2.334,2.334,0,0,0,1.5-.544l6.364-5.307a2.344,2.344,0,1,0-3-3.6l-6.364,5.307a2.344,2.344,0,0,0,1.5,4.144Z" transform="translate(-31.516 -11.927)" fill="#7b3886"/>
        <path id="Path_507" data-name="Path 507" d="M67.212,12.788A27.448,27.448,0,0,0,50,4.787V2.344a2.344,2.344,0,0,0-4.687,0V4.787A27.656,27.656,0,0,0,28.1,51.9a27.66,27.66,0,0,0,35.946,2.722,2.344,2.344,0,1,0-2.781-3.774A22.937,22.937,0,1,1,67.794,43.4a2.344,2.344,0,0,0,4.107,2.26,27.671,27.671,0,0,0-4.688-32.873Z" transform="translate(-20)" fill="#7b3886"/>
        <path id="Path_508" data-name="Path 508" d="M232.106,151.669a2.344,2.344,0,0,0-3.3.347l-7.39,9.132a4.692,4.692,0,1,0,3.643,2.95l7.391-9.133A2.344,2.344,0,0,0,232.106,151.669Z" transform="translate(-193.031 -133.435)" fill="#7b3886"/>
      </g>
    </g>
  </g>
</svg>
