<svg xmlns="http://www.w3.org/2000/svg" width="172.687" height="172.688" viewBox="0 0 172.687 172.688">
  <g id="_019-brain" data-name="019-brain" transform="matrix(0.966, 0.259, -0.259, 0.966, 36.491, -0.001)">
    <g id="Group_82" data-name="Group 82" transform="translate(0.003)">
      <g id="Group_81" data-name="Group 81">
        <path id="Path_518" data-name="Path 518" d="M432.729,430.758a5.508,5.508,0,0,0-10.45,3.483,55.991,55.991,0,0,0,6.819,13.876,5.508,5.508,0,1,0,8.93-6.45A45.694,45.694,0,0,1,432.729,430.758Z" transform="translate(-305.782 -309.402)" fill="#dd1a50"/>
        <path id="Path_519" data-name="Path 519" d="M141,61.411a19.686,19.686,0,0,0-6.432-14.656,19.858,19.858,0,0,0-15.891-25.31A19.943,19.943,0,0,0,99.07,5.232,19.473,19.473,0,0,0,87.693,8.894a21.415,21.415,0,0,0-34.624-.168A19.472,19.472,0,0,0,41.934,5.232,19.943,19.943,0,0,0,22.326,21.446,19.858,19.858,0,0,0,5.6,41.03a23.924,23.924,0,0,0,1.457,7.681C2.532,53.17,0,58.636,0,64.165A19.85,19.85,0,0,0,19.831,83.993a61.044,61.044,0,0,0,9.179-.768,45.163,45.163,0,0,1,8.852-.612A19.861,19.861,0,0,0,56.457,95.56c4.389,0,9.25-.1,14.3-.525a5.534,5.534,0,0,0,.544.553c10.458,9.081,21.271,18.471,32.206,42.208a5.508,5.508,0,1,0,10-4.609,133.179,133.179,0,0,0-15.192-25.748,78.132,78.132,0,0,0,18.313,2.441,19.437,19.437,0,0,0,19.415-19.415,19.24,19.24,0,0,0-4.381-12.234A19.831,19.831,0,0,0,141,61.411Zm-19.828,8.812a5.5,5.5,0,0,0-.957.084l-4.682.826a5.508,5.508,0,0,0,.957,10.932,8.4,8.4,0,1,1,.138,16.8c-8.917,0-20.05-2.654-29.057-6.645a63.721,63.721,0,0,0,9.115-3.188,5.508,5.508,0,0,0-4.452-10.076c-11.21,4.953-25.008,5.589-35.777,5.589a8.812,8.812,0,1,1,0-17.625c7.711,0,13.555-1.21,17.866-3.7a14.69,14.69,0,0,0,7.746-13.1A16.542,16.542,0,0,0,65.545,33.6a5.508,5.508,0,1,0,0,11.016,5.514,5.514,0,0,1,5.508,5.508c0,5.032-9.145,5.783-14.6,5.783A19.86,19.86,0,0,0,37.071,71.578a57.669,57.669,0,0,0-9.6.74,50.423,50.423,0,0,1-7.635.66,8.822,8.822,0,0,1-8.812-8.812c0-4.546,4.061-8.051,5.807-9.347a5.508,5.508,0,0,0,2.216-4.727L19,49.266a5.506,5.506,0,0,0-.8-2.562,13.3,13.3,0,0,1-1.586-5.674,8.827,8.827,0,0,1,6.715-8.558,19.972,19.972,0,0,0,18.6,12.692,5.508,5.508,0,1,0,0-11.016A8.882,8.882,0,0,1,33,25.335c0-.047-.006-.091-.007-.138S33,25.106,33,25.06a8.882,8.882,0,0,1,8.93-8.812,8.463,8.463,0,0,1,6.943,3.578c-.051.611-.084,1.226-.084,1.85a5.508,5.508,0,1,0,11.016,0,10.51,10.51,0,0,1,20.831-2.127,5.507,5.507,0,0,0,5.326,4.4l.486.006a5.531,5.531,0,0,0,4.957-2.967,8.546,8.546,0,0,1,7.664-4.744,8.813,8.813,0,1,1,.118,17.625,5.508,5.508,0,0,0,0,11.016,19.855,19.855,0,0,0,18.394-12.439A8.833,8.833,0,0,1,123.126,45.6a5.506,5.506,0,0,0-.8,2.866v.275a5.507,5.507,0,0,0,3.01,4.909,8.51,8.51,0,0,1,4.655,7.759A8.823,8.823,0,0,1,121.173,70.224Z" transform="translate(-0.003)" fill="#dd1a50"/>
      </g>
    </g>
  </g>
</svg>
