<svg xmlns="http://www.w3.org/2000/svg" width="15.828" height="15.831" viewBox="0 0 15.828 15.831">
  <path id="Union_2" data-name="Union 2" d="M9213.652-110.219a5.813,5.813,0,0,1-1.925-.366,3.891,3.891,0,0,1-1.4-.912,3.932,3.932,0,0,1-.912-1.4,5.769,5.769,0,0,1-.368-1.924c-.034-.84-.046-1.109-.046-3.264s.012-2.424.046-3.264a5.781,5.781,0,0,1,.368-1.924,3.9,3.9,0,0,1,.912-1.4,3.9,3.9,0,0,1,1.4-.914,5.813,5.813,0,0,1,1.925-.366c.84-.035,1.106-.049,3.262-.049s2.424.014,3.265.049a5.828,5.828,0,0,1,1.924.366,3.949,3.949,0,0,1,1.4.914,3.9,3.9,0,0,1,.912,1.4,5.814,5.814,0,0,1,.365,1.924c.037.84.049,1.121.049,3.264s-.012,2.424-.049,3.264a5.8,5.8,0,0,1-.365,1.924,3.932,3.932,0,0,1-.912,1.4,3.942,3.942,0,0,1-1.4.912,5.828,5.828,0,0,1-1.924.366c-.841.037-1.121.049-3.265.049S9214.492-110.182,9213.652-110.219Zm.06-14.307a4.113,4.113,0,0,0-1.475.266,2.472,2.472,0,0,0-.912.6,2.56,2.56,0,0,0-.6.914,4.461,4.461,0,0,0-.266,1.472c-.037.84-.049,1.083-.049,3.2s.012,2.364.049,3.2a4.107,4.107,0,0,0,.266,1.472,2.436,2.436,0,0,0,.6.912,2.541,2.541,0,0,0,.912.6,4.46,4.46,0,0,0,1.475.269c.841.037,1.084.049,3.2.049s2.361-.012,3.2-.049a4.1,4.1,0,0,0,1.473-.269,2.451,2.451,0,0,0,.914-.6,2.511,2.511,0,0,0,.595-.912,4.44,4.44,0,0,0,.269-1.472c.035-.84.049-1.086.049-3.2s-.014-2.361-.049-3.2a4.077,4.077,0,0,0-.269-1.472,2.444,2.444,0,0,0-.595-.914,2.6,2.6,0,0,0-.914-.6,4.525,4.525,0,0,0-1.473-.266c-.843-.037-1.086-.049-3.2-.049S9214.541-124.563,9213.712-124.526Zm-.863,6.452a4.065,4.065,0,0,1,4.065-4.065,4.074,4.074,0,0,1,4.067,4.065,4.074,4.074,0,0,1-4.067,4.068A4.073,4.073,0,0,1,9212.849-118.074Zm1.424,0a2.641,2.641,0,0,0,2.642,2.644,2.641,2.641,0,0,0,2.644-2.644,2.639,2.639,0,0,0-2.644-2.642A2.639,2.639,0,0,0,9214.272-118.074Zm5.917-4.237a.95.95,0,0,1,.952-.949.95.95,0,0,1,.949.949.95.95,0,0,1-.949.949A.95.95,0,0,1,9220.189-122.311Z" transform="translate(-9209.001 126.001)" fill="#fff"/>
</svg>
