<svg xmlns="http://www.w3.org/2000/svg" width="217.469" height="289.577" viewBox="0 0 217.469 289.577">
  <g id="Group_43" data-name="Group 43" transform="translate(-1129.01 -425.542)">
    <path id="Path_3" data-name="Path 3" d="M1117.788,921.8l-77.757,32.316v129.619l77.757,32.316,77.755-32.316V954.115Zm-72.622,78.727,34.063-14.1,35.989,14.634v35.719l-35.993,14.637-34.059-14.094Zm70.052-47.439-29.989-12.2,29.989-12.463Zm5.136-24.66,29.992,12.465-29.992,12.2Zm0,156.543,29.736,12.092-29.736,12.359Zm-5.136,24.45-29.737-12.359,29.737-12.093Zm5.136-108.354,35.993-14.637,34.06,14.094v36.8l-34.064,14.1-35.989-14.634Zm70.053-6.1-34.043-14.087-36.01,14.644V958.634l36.735-14.939,33.318,13.848Zm-111.92-51.271,36.732,14.937v36.887l-36.006-14.641-34.046,14.09V957.543Zm-33.321,99.188,34.042,14.087,36.01-14.644v37.1l-36.48,14.836-33.572-13.953Zm111.667,51.377-36.479-14.834v-37.1l36.006,14.641,34.047-14.09v37.427Z" transform="translate(123.006 -496.257)" fill="#fff"/>
    <g id="Group_4" data-name="Group 4" transform="translate(1129.01 647.07)">
      <path id="Path_142" data-name="Path 142" d="M713.925,3064.563v9.031l7.418-9.333h1.814v13.748h-2.621v-9.072l-7.419,9.334H711.3v-13.708Z" transform="translate(-711.304 -3064.019)" fill="#fff"/>
      <path id="Path_143" data-name="Path 143" d="M873.615,3072.384H879.3v-5.2h2.621v13.446H879.3v-5.987h-5.685v5.987h-2.62v-13.446h2.62Z" transform="translate(-854.465 -3066.639)" fill="#fff"/>
      <path id="Path_144" data-name="Path 144" d="M1017.768,3074.06h-.363a6.616,6.616,0,0,1-3.79-1.008,5.538,5.538,0,0,1,0-8.547,6.613,6.613,0,0,1,3.79-1.008h.363v-1.572h2.621v1.572h.363a6.612,6.612,0,0,1,3.79,1.008,5.538,5.538,0,0,1,0,8.547,6.615,6.615,0,0,1-3.79,1.008h-.363v1.854h-2.621Zm0-8.306h-.4a3.343,3.343,0,0,0-1.976.564,3.031,3.031,0,0,0,1.976,5.483h.4Zm2.621,6.048h.4a3.017,3.017,0,0,0,2-.564,3.365,3.365,0,0,0,0-4.919,3.353,3.353,0,0,0-2-.564h-.4Z" transform="translate(-980.516 -3061.924)" fill="#fff"/>
      <path id="Path_145" data-name="Path 145" d="M1195.38,3071.3a7.178,7.178,0,1,1-7.177-7.035A6.807,6.807,0,0,1,1195.38,3071.3Zm-2.7,0a4.478,4.478,0,1,0-4.475,4.636A4.39,4.39,0,0,0,1192.679,3071.3Z" transform="translate(-1132.405 -3064.019)" fill="#fff"/>
      <path id="Path_146" data-name="Path 146" d="M1358.651,3067.183a4.819,4.819,0,0,1,3.548,1.028,4.572,4.572,0,0,1,.262,6.249,4.609,4.609,0,0,1-3.407,1.189h-1.693v4.979h-2.621v-13.446Zm-1.29,6.209h1.068a2.682,2.682,0,0,0,1.714-.423,2.007,2.007,0,0,0,.726-1.572,1.851,1.851,0,0,0-.746-1.532,3.155,3.155,0,0,0-1.854-.424h-.907Z" transform="translate(-1288.137 -3066.639)" fill="#fff"/>
      <path id="Path_147" data-name="Path 147" d="M1462.4,3064.846h1.814l3.649,8.789,3.81-8.789h1.814l2.258,13.688h-2.661l-1.209-8.285-3.689,8.467h-.726l-3.528-8.467-1.371,8.285H1459.9Z" transform="translate(-1382.413 -3064.543)" fill="#fff"/>
      <path id="Path_148" data-name="Path 148" d="M1646.576,3075.362h-5.423l-1.189,2.823h-2.842l5.826-13.728h1.975l5.665,13.728h-2.822Zm-.766-2.137-1.9-4.838-1.935,4.838Z" transform="translate(-1541.289 -3064.194)" fill="#fff"/>
      <path id="Path_149" data-name="Path 149" d="M1797.982,3067.183h2.621v11.188h5.322v-11.188h2.621v11.188h1.613v5.281h-2.419v-3.024h-9.757Z" transform="translate(-1685.498 -3066.639)" fill="#fff"/>
      <path id="Path_150" data-name="Path 150" d="M1950.557,3064.563v9.031l7.418-9.333h1.814v13.748h-2.621v-9.072l-7.418,9.334h-1.814v-13.708Z" transform="translate(-1819.93 -3064.019)" fill="#fff"/>
      <path id="Path_151" data-name="Path 151" d="M2107.957,3071.3a7.178,7.178,0,1,1-7.177-7.035A6.807,6.807,0,0,1,2107.957,3071.3Zm-2.7,0a4.478,4.478,0,1,0-4.475,4.636A4.39,4.39,0,0,0,2105.256,3071.3Z" transform="translate(-1950.52 -3064.019)" fill="#fff"/>
      <path id="Path_152" data-name="Path 152" d="M2269.938,3072.384h5.685v-5.2h2.621v13.446h-2.621v-5.987h-5.685v5.987h-2.621v-13.446h2.621Z" transform="translate(-2106.251 -3066.639)" fill="#fff"/>
      <path id="Path_153" data-name="Path 153" d="M2420.669,3072.384h5.685v-5.2h2.621v13.446h-2.621v-5.987h-5.685v5.987h-2.621v-13.446h2.621Z" transform="translate(-2241.38 -3066.639)" fill="#fff"/>
      <path id="Path_154" data-name="Path 154" d="M2568.78,3067.183h2.621v5.261h2.1a4.655,4.655,0,0,1,3.306,1.109,3.989,3.989,0,0,1,1.25,3,3.987,3.987,0,0,1-4.536,4.072h-4.737Zm2.621,11.188h1.532c.464,0,2.419,0,2.419-1.814,0-.847-.443-1.855-2.379-1.855H2571.4Zm10.442-11.188v13.446h-2.621v-13.446Z" transform="translate(-2376.509 -3066.639)" fill="#fff"/>
      <path id="Path_155" data-name="Path 155" d="M2747.614,3069.441h-4.838v3h4.637v2.258h-4.637v3.669h4.838v2.258h-7.459v-13.446h7.459Z" transform="translate(-2530.145 -3066.639)" fill="#fff"/>
      <path id="Path_156" data-name="Path 156" d="M1092.416,3329.1v11.188H1089.8V3329.1h-3.024v-2.257h8.668v2.257Z" transform="translate(-1047.907 -3299.423)" fill="#fff"/>
      <path id="Path_157" data-name="Path 157" d="M1205.624,3329.1h-4.838v3h4.636v2.258h-4.636v3.669h4.838v2.258h-7.459v-13.446h7.459Z" transform="translate(-1147.769 -3299.423)" fill="#fff"/>
      <path id="Path_158" data-name="Path 158" d="M1297.956,3333.2l-4.012-6.35h3.145l2.359,4.173,2.479-4.173h3.145l-4.132,6.35,4.6,7.1h-3.145l-2.943-4.919-3.1,4.919H1293.2Z" transform="translate(-1232.966 -3299.423)" fill="#fff"/>
      <path id="Path_159" data-name="Path 159" d="M1445.386,3332.046h5.685v-5.2h2.62v13.446h-2.62V3334.3h-5.685v5.987h-2.621v-13.446h2.621Z" transform="translate(-1367.05 -3299.423)" fill="#fff"/>
      <path id="Path_160" data-name="Path 160" d="M1593.827,3330.959a7.178,7.178,0,1,1-7.176-7.035A6.807,6.807,0,0,1,1593.827,3330.959Zm-2.7,0a4.478,4.478,0,1,0-4.475,4.636A4.39,4.39,0,0,0,1591.126,3330.959Z" transform="translate(-1489.608 -3296.804)" fill="#fff"/>
      <path id="Path_161" data-name="Path 161" d="M1744.316,3326.846v13.446H1741.7V3329.1h-3.911v5.967c0,1.391.041,3.226-1.451,4.455a4.008,4.008,0,0,1-2.681.887,5.055,5.055,0,0,1-1.109-.121v-2.258a2.62,2.62,0,0,0,.746.121,1.654,1.654,0,0,0,1.21-.484c.685-.686.665-1.855.665-3.125v-7.7Z" transform="translate(-1626.833 -3299.423)" fill="#fff"/>
      <path id="Path_162" data-name="Path 162" d="M1895.683,3330.959a7.178,7.178,0,1,1-7.177-7.035A6.807,6.807,0,0,1,1895.683,3330.959Zm-2.7,0a4.478,4.478,0,1,0-4.475,4.636A4.39,4.39,0,0,0,1892.982,3330.959Z" transform="translate(-1760.218 -3296.804)" fill="#fff"/>
      <path id="Path_163" data-name="Path 163" d="M2062.178,3329.1h-4.516v11.188h-2.621v-13.446h7.136Z" transform="translate(-1915.949 -3299.423)" fill="#fff"/>
      <path id="Path_164" data-name="Path 164" d="M2154.256,3324.227v9.031l7.418-9.333h1.814v13.748h-2.621V3328.6l-7.418,9.333h-1.814v-13.708Z" transform="translate(-2002.544 -3296.804)" fill="#fff"/>
      <path id="Path_165" data-name="Path 165" d="M2310.052,3324.227v9.031l7.418-9.333h1.814v13.748h-2.621V3328.6l-7.418,9.333h-1.814v-13.708Z" transform="translate(-2142.213 -3296.804)" fill="#fff"/>
      <path id="Path_166" data-name="Path 166" d="M1430.729,3586.509l3.588,9.031,3.588-9.031h2.862L1435,3600.257h-1.411l-5.725-13.748Z" transform="translate(-1353.694 -3532.208)" fill="#fff"/>
      <path id="Path_167" data-name="Path 167" d="M1587.166,3586.509a4.946,4.946,0,0,1,3.427,1.008,3.819,3.819,0,0,1,1.33,3.024,3.672,3.672,0,0,1-1.572,3.165,3.728,3.728,0,0,1-1.472.584l4.193,5.665h-3.266l-3.588-5.4h-.323v5.4h-2.621v-13.446Zm-1.27,6.189h.746c.5,0,2.58-.06,2.58-2.036,0-2-2.056-2.016-2.54-2.016h-.786Z" transform="translate(-1493.016 -3532.208)" fill="#fff"/>
      <path id="Path_168" data-name="Path 168" d="M1747.893,3592.316a15.067,15.067,0,0,1-1.452,1.633l-.3.3,2.721,3.084h-3.246l-1.31-1.512a6.65,6.65,0,0,1-4.334,1.814,3.9,3.9,0,0,1-4.213-3.85,4.043,4.043,0,0,1,2.157-3.407l1.048-.625a4.24,4.24,0,0,1-1.351-2.823,3.376,3.376,0,0,1,3.709-3.346,3.288,3.288,0,0,1,3.609,3.205,3.476,3.476,0,0,1-1.9,2.983l-.564.343,2.217,2.54a15.544,15.544,0,0,0,1.673-1.855Zm-7.6-1.069c-1.028.544-1.915,1.29-1.915,2.318a1.842,1.842,0,0,0,1.976,1.774,3.792,3.792,0,0,0,2.48-1.169Zm.927-2.52.6-.424a1.816,1.816,0,0,0,.927-1.492,1.342,1.342,0,0,0-2.681-.081,2.05,2.05,0,0,0,.564,1.27Z" transform="translate(-1629.714 -3529.589)" fill="#fff"/>
      <path id="Path_169" data-name="Path 169" d="M1903.537,3594.688h-5.423l-1.189,2.823h-2.842l5.826-13.728h1.976l5.665,13.728h-2.822Zm-.766-2.137-1.895-4.838-1.935,4.838Z" transform="translate(-1771.651 -3529.764)" fill="#fff"/>
      <path id="Path_170" data-name="Path 170" d="M2058.834,3586.509a4.945,4.945,0,0,1,3.427,1.008,3.819,3.819,0,0,1,1.331,3.024,3.672,3.672,0,0,1-1.572,3.165,3.731,3.731,0,0,1-1.472.584l4.193,5.665h-3.266l-3.588-5.4h-.323v5.4h-2.621v-13.446Zm-1.27,6.189h.746c.5,0,2.58-.06,2.58-2.036,0-2-2.056-2.016-2.54-2.016h-.786Z" transform="translate(-1915.861 -3532.208)" fill="#fff"/>
    </g>
  </g>
</svg>
