<svg xmlns="http://www.w3.org/2000/svg" xmlns:xlink="http://www.w3.org/1999/xlink" width="252" height="90" viewBox="0 0 252 90">
  <defs>
    <linearGradient id="linear-gradient" x1="0.24" y1="0.5" x2="1.959" y2="0.5" gradientUnits="objectBoundingBox">
      <stop offset="0" stop-color="#0a428f"/>
      <stop offset="0.004" stop-color="#0a428f"/>
      <stop offset="1" stop-color="#7a3986"/>
    </linearGradient>
    <linearGradient id="linear-gradient-2" x1="0.11" x2="0.896" xlink:href="#linear-gradient"/>
    <linearGradient id="linear-gradient-3" x1="0.084" y1="0.5" x2="0.926" y2="0.5" gradientUnits="objectBoundingBox">
      <stop offset="0" stop-color="#dd1c51"/>
      <stop offset="1" stop-color="#ec682c"/>
    </linearGradient>
  </defs>
  <g id="Group_17" data-name="Group 17" transform="translate(-150 -140)">
    <g id="Group_16" data-name="Group 16" transform="translate(150 140)">
      <path id="Path_411" data-name="Path 411" d="M85.563,82.386l1.334-7.7,3.663,8.287,3.7-8.268,1.3,7.677h1.984l-2.4-13.69-4.462,9.89L86.249,68.7l-2.67,13.69Zm20.215,0h1.946v-1.8h.344c3.967,0,5.645-2.235,5.645-4.965s-1.678-4.965-5.645-4.965h-.344V69.134h-1.946v1.527h-.342c-3.967,0-5.646,2.235-5.646,4.965s1.679,4.965,5.646,4.965h.342v1.8Zm0-3.591h-.38c-2.536,0-3.663-1.374-3.663-3.169s1.126-3.169,3.663-3.169h.38V78.8Zm1.946-6.338h.382c2.536,0,3.661,1.375,3.661,3.169S110.641,78.8,108.1,78.8h-.382V72.457Zm10.566,2.252v-5.06h-1.946V82.386h1.946V76.543h1.906a6.445,6.445,0,0,0,1.374,3.857,6.182,6.182,0,0,0,4.978,2.233,6.738,6.738,0,1,0-6.351-7.924Zm8.258,6.129a4.824,4.824,0,1,1,4.482-4.811,4.472,4.472,0,0,1-4.482,4.811Zm17.3,1.548h2.1l-6.027-13.48-6.331,13.48h2.1l1.393-3.074h5.434l1.335,3.074Zm-5.97-4.907,1.965-4.316,1.888,4.316Z" transform="translate(-3.209 -7.398)" fill="#fff"/>
      <path id="Path_412" data-name="Path 412" d="M84.166,58.107v2.435a3.922,3.922,0,0,1-.251,1.638,1.384,1.384,0,0,1-1.134.812v3.1h1.326V64.318h4.333v1.771h1.326v-3.1h-.943V58.107Zm3.212,4.884H84.829a2.2,2.2,0,0,0,.721-1.9V59.435h1.827v3.555Zm8.9-.974a2.137,2.137,0,0,1-.634.856,1.555,1.555,0,0,1-.986.339,1.644,1.644,0,0,1-1.681-1.651h4.451v-.222a4.146,4.146,0,0,0-.575-2.258,2.744,2.744,0,0,0-2.329-1.136A3.291,3.291,0,0,0,94.6,64.51a3.258,3.258,0,0,0,2.079-.752,3.785,3.785,0,0,0,.81-1.062l-1.208-.679Zm-3.2-1.638a1.481,1.481,0,0,1,1.444-1.137,1.425,1.425,0,0,1,1.429,1.137Zm11.362-.944V58.107H99.374v1.329h1.812v4.883h1.444V59.435Zm6.573-1.049a3.194,3.194,0,0,0-1.754-.442,3.123,3.123,0,0,0-2.373.841,3.266,3.266,0,0,0-1,2.45,3.231,3.231,0,0,0,.884,2.331,3.3,3.3,0,0,0,2.535.944,3.233,3.233,0,0,0,1.709-.457v-1.9a2.09,2.09,0,0,1-1.814,1.062,1.989,1.989,0,0,1,.015-3.969,2.063,2.063,0,0,1,1.8,1.049v-1.9Zm2.564-.28v6.212h1.444V62l.236-.237,2.062,2.553h1.827l-2.858-3.5L119,58.107h-1.916l-2.064,2.213V58.107Zm7.692,0V64.79l4.244-4.087v3.615h1.444V57.546l-4.244,4.087V58.107Zm8.7,0V64.79l4.244-4.087v3.615h1.444V57.546l-4.244,4.087V58.107Zm.471-2.685a2.508,2.508,0,0,0,4.775,0l-1.179-.339a1.156,1.156,0,0,1-1.209.959,1.178,1.178,0,0,1-1.208-.959l-1.179.339Zm17.11,4.014V58.107h-5.07v1.329h1.812v4.883h1.444V59.435Zm6.66,2.582a2.135,2.135,0,0,1-.633.856,1.559,1.559,0,0,1-.988.339,1.643,1.643,0,0,1-1.679-1.651h4.449v-.222a4.134,4.134,0,0,0-.575-2.258,2.741,2.741,0,0,0-2.329-1.136,3.291,3.291,0,0,0,.075,6.565,3.254,3.254,0,0,0,2.077-.752,3.763,3.763,0,0,0,.811-1.062l-1.209-.679Zm-3.2-1.638a1.482,1.482,0,0,1,1.444-1.137,1.428,1.428,0,0,1,1.431,1.137Zm5.822,3.939H158.6L160.443,62l1.782,2.316h1.739l-2.652-3.364,2.284-2.848h-1.769l-1.384,1.814-1.371-1.814h-1.709l2.21,2.848-2.742,3.364Zm9.313,0h1.444V61.737h2.565v2.582H171.6V58.107h-1.444v2.3h-2.565v-2.3h-1.444v6.212Zm11.009-6.374a3.283,3.283,0,1,0,3.316,3.275,3.2,3.2,0,0,0-3.316-3.275Zm0,5.266A1.99,1.99,0,1,1,179,61.235a1.787,1.787,0,0,1-1.842,1.976Zm5.26-5.1v6.212h1.446V59.435h2.505v4.883h1.444V58.107Zm12.5.724a2.262,2.262,0,0,0-1.842-.885,3.035,3.035,0,0,0-3.022,3.26,3.072,3.072,0,0,0,3.007,3.305,2.385,2.385,0,0,0,1.857-.841v.649h1.444V58.107h-1.444v.724Zm-1.666.412a2,2,0,0,1,0,3.969,2,2,0,0,1,0-3.969Zm7.266,4.352a2.461,2.461,0,0,0,1.856.915,3.141,3.141,0,0,0,3.007-3.335,3.034,3.034,0,0,0-3.02-3.23,2.333,2.333,0,0,0-1.842.841v-.679h-1.444V67.7h1.444v-4.1Zm1.664-4.352a2,2,0,0,1,0,3.969,2,2,0,0,1,0-3.969Zm5.144-1.136v6.212h1.444V62l.236-.237,2.062,2.553h1.827l-2.859-3.5,2.712-2.715h-1.916l-2.064,2.213V58.107Z" transform="translate(-3.496 -12.301)" fill="#fff"/>
      <path id="Path_413" data-name="Path 413" d="M87.479,35.12H84.472V54.8h3.007V45.624h8.43V54.8h3.005V35.12H95.909v7.673h-8.43V35.12ZM119.016,54.8h3.242l-9.313-20.832L103.158,54.8H106.4l2.151-4.751h8.4l2.064,4.751Zm-9.226-7.583,3.036-6.669,2.918,6.669Zm13.647-12.1,7.1,13.81L127.887,54.8h3.123l8.872-19.681h-3.123l-4.511,10.209L127.091,35.12Zm24.345,0h-3.007V54.8h3.007V46.656l.59-.59,7.014,8.735h4.009l-8.931-10.77,8.872-8.912h-3.949l-7.6,7.848V35.12Zm24.14-.354a9.978,9.978,0,0,0-10.228,10.209,10.228,10.228,0,0,0,20.455,0,9.978,9.978,0,0,0-10.227-10.209Zm0,17.645a7.04,7.04,0,0,1-7.221-7.436,7.224,7.224,0,1,1,14.442,0,7.041,7.041,0,0,1-7.221,7.436Zm14.589,2.39h3.007V37.953h6.838V35.12h-9.844V54.8ZM202.072,35.12V54.8h3.007v-8h1.356a7.092,7.092,0,0,0,4.8-1.534,5.518,5.518,0,0,0,1.916-4.309,5.7,5.7,0,0,0-2.447-4.78,7.677,7.677,0,0,0-4.3-1.062Zm3.007,2.773H206.4c3.42,0,3.861,1.948,3.861,3.04,0,1.829-1.238,3.1-3.831,3.1h-1.356V37.893ZM230.426,54.8h3.242l-9.313-20.832L214.568,54.8h3.243l2.151-4.751h8.4l2.064,4.751ZM221.2,47.218l3.035-6.669,2.918,6.669Zm19.186-12.1v9.029a13.991,13.991,0,0,1-.706,5.164c-.59,1.476-1.71,2.715-3.125,2.655v7.259h2.83V54.8h12.673v4.426h2.83V51.968h-2.24V35.12Zm3.007,2.833h6.248V51.968h-8.459a6.034,6.034,0,0,0,1.533-2.331,15.63,15.63,0,0,0,.678-5.488v-6.2Z" transform="translate(-2.889 -19.905)" fill="#fff"/>
      <path id="Path_414" data-name="Path 414" d="M49.861,65.755" transform="translate(-15.3 -8.458)" fill="none"/>
      <line id="Line_1" data-name="Line 1" x1="29.584" y2="12.295" transform="translate(4.976 32.705)" fill="none"/>
      <path id="Path_415" data-name="Path 415" d="M52.014,72.265,81.6,59.969l-29.584-12.3" transform="translate(-14.528 -14.97)" fill="none"/>
      <path id="Path_416" data-name="Path 416" d="M83.009,61.438V37.16L53.8,49.3Z" transform="translate(-13.887 -18.756)" fill="none"/>
      <path id="Path_417" data-name="Path 417" d="M83.007,82.691V58.416l-29.2,12.137Z" transform="translate(-13.885 -11.101)" fill="none"/>
      <path id="Path_418" data-name="Path 418" d="M57.669,51.01V26.417l-29.584,12.3Z" transform="translate(-23.109 -22.625)" fill="none"/>
      <path id="Path_419" data-name="Path 419" d="M52.014,26.416V51.009L81.6,38.713Z" transform="translate(-14.528 -22.625)" fill="none"/>
      <g id="Group_15" data-name="Group 15" transform="translate(2.926 0)">
        <path id="Path_420" data-name="Path 420" d="M26.576,79.48v4.637L58.21,97.278V94.091L28.626,81.8,58.21,69.5V68.353l-2.435-1.012Z" transform="translate(-26.576 -7.886)" fill="url(#linear-gradient)"/>
        <path id="Path_421" data-name="Path 421" d="M59.824,23.692l-.151-.063L26.576,37.4v4.637l29.2,12.137-29.2,12.141v1.464l2.05.851,29.585-12.3v-4.32l-29.585-12.3,29.585-12.3V52.014h2.925V27.42l29.583,12.3-29.583,12.3v4.32l29.585,12.3-29.585,12.3v4.316l29.585,12.3-29.585,12.3v3.188l34.318-14.28.242-.1V38.618ZM92.772,95.219l-29.2-12.137,29.2-12.138Zm0-28.908L63.565,54.172,92.772,42.033Z" transform="translate(-26.576 -23.629)" fill="url(#linear-gradient-2)"/>
      </g>
      <path id="Path_422" data-name="Path 422" d="M58.983,48.368V77.28L27.348,64.131V33.754l-2.926,1.217V95l2.926,1.218h0V67.3L58.983,80.449v28.925l1.462.608,1.463-.607V48.366Z" transform="translate(-24.422 -19.982)" fill="url(#linear-gradient-3)"/>
    </g>
  </g>
</svg>
