<svg id="coins" xmlns="http://www.w3.org/2000/svg" width="64" height="64" viewBox="0 0 64 64">
  <g id="Group_59" data-name="Group 59">
    <g id="Group_58" data-name="Group 58">
      <path id="Path_504" data-name="Path 504" d="M56.8,1.959A46.138,46.138,0,0,0,42.75,0,46.137,46.137,0,0,0,28.7,1.959c-5.543,1.848-7.007,4.407-7.182,6.368a2.5,2.5,0,0,0-.02.3V18.75a4.731,4.731,0,0,0,.062.762,22.25,22.25,0,1,0,11.111,41.9A2.5,2.5,0,1,0,30.327,57a17.231,17.231,0,1,1,7.7-8.26A2.5,2.5,0,0,0,42.6,50.764a22.147,22.147,0,0,0,1.156-3.273,52.368,52.368,0,0,0,8.712-.847,2.5,2.5,0,0,0-.931-4.913,46.45,46.45,0,0,1-7.047.741c.008-.24.013-.481.013-.722a22.272,22.272,0,0,0-.412-4.265,52.067,52.067,0,0,0,8.377-.84,2.5,2.5,0,1,0-.931-4.913,48.136,48.136,0,0,1-8.785.768l-.267,0a22.305,22.305,0,0,0-3.249-5.1c1.151.069,2.326.107,3.516.107a53.206,53.206,0,0,0,9.715-.856,2.5,2.5,0,1,0-.931-4.913,48.136,48.136,0,0,1-8.785.768,43,43,0,0,1-11.726-1.469c-3.236-.957-4.353-2.006-4.524-2.345V14.677a21.33,21.33,0,0,0,2.2.864A46.138,46.138,0,0,0,42.75,17.5a53.387,53.387,0,0,0,9.582-.831,2.5,2.5,0,1,0-.915-4.916,48.31,48.31,0,0,1-8.668.747,43,43,0,0,1-11.726-1.469c-3.052-.9-4.219-1.887-4.486-2.281.267-.394,1.434-1.378,4.486-2.281A43,43,0,0,1,42.75,5,43,43,0,0,1,54.476,6.469c3.237.957,4.354,2.007,4.524,2.345v40c-.347.729-3.532,2.829-11.242,3.577A2.5,2.5,0,0,0,48,57.377c.081,0,.162,0,.244-.012C58.109,56.408,64,53.234,64,48.875V8.75C64,6.747,62.751,3.943,56.8,1.959Z" fill="#fff"/>
    </g>
  </g>
</svg>
