<svg xmlns="http://www.w3.org/2000/svg" width="385.806" height="385.797" viewBox="0 0 385.806 385.797">
  <path id="Union_3" data-name="Union 3" d="M110.84,307.109A157.075,157.075,0,0,1,45.977,45.953l.075.075A157.249,157.249,0,0,1,157.1,0V11.726A145.246,145.246,0,1,0,302.068,149.345l11.711-.615a155.968,155.968,0,0,1-40.067,113.235l.081.073a155.978,155.978,0,0,1-108.45,51.74q-4.222.221-8.423.22A156.538,156.538,0,0,1,110.84,307.109Z" transform="matrix(-0.966, 0.259, -0.259, -0.966, 385.187, 303.914)" fill="#fff" stroke="rgba(0,0,0,0)" stroke-miterlimit="10" stroke-width="1"/>
</svg>
