<svg xmlns="http://www.w3.org/2000/svg" width="271.888" height="271.876" viewBox="0 0 271.888 271.876">
  <path id="Path_473" data-name="Path 473" d="M1698.2,491.035l-.019-1.536c1.922-.023,3.862-.089,5.76-.194l.084,1.535C1702.1,490.946,1700.143,491.011,1698.2,491.035Zm-5.824-.051c-1.927-.056-3.884-.157-5.819-.3l.108-1.531c1.915.136,3.851.236,5.754.293Zm17.461-.59-.149-1.528c1.912-.185,3.836-.416,5.717-.681l.215,1.52C1713.714,489.976,1711.769,490.208,1709.835,490.395Zm-29.081-.244c-1.9-.22-3.842-.485-5.768-.789l.238-1.519c1.906.3,3.827.566,5.707.78Zm40.614-1.381-.279-1.512c1.883-.349,3.781-.742,5.639-1.17l.345,1.5C1725.194,488.017,1723.275,488.415,1721.369,488.769Zm-52.122-.447c-1.875-.382-3.787-.813-5.682-1.285l.372-1.489c1.873.466,3.764.892,5.618,1.266Zm63.478-2.168-.41-1.48c1.837-.506,3.694-1.061,5.52-1.651l.47,1.463C1736.457,485.079,1734.58,485.643,1732.725,486.154Zm-74.782-.646c-1.856-.545-3.723-1.14-5.553-1.767l.5-1.452c1.81.618,3.656,1.206,5.488,1.747Zm85.865-2.936-.534-1.438c1.786-.663,3.584-1.376,5.34-2.116l.6,1.414C1747.434,481.182,1745.617,481.9,1743.808,482.572Zm-96.9-.843c-1.8-.7-3.61-1.459-5.391-2.247l.62-1.4c1.761.777,3.554,1.524,5.329,2.219Zm107.612-3.668-.658-1.388c1.737-.822,3.468-1.686,5.145-2.57l.715,1.362C1758.026,476.355,1756.275,477.23,1754.518,478.061Zm-118.29-1.054c-1.742-.862-3.483-1.77-5.171-2.7l.738-1.346c1.671.918,3.392,1.817,5.115,2.669Zm128.582-4.366-.775-1.325c1.634-.951,3.284-1.961,4.909-3l.828,1.292C1768.13,470.659,1766.459,471.68,1764.81,472.641ZM1626,471.384c-1.677-1.018-3.331-2.074-4.917-3.134l.852-1.28c1.569,1.051,3.205,2.093,4.864,3.1Zm148.6-5.024-.883-1.255c1.569-1.105,3.128-2.254,4.636-3.413l.938,1.217C1777.766,464.081,1776.188,465.242,1774.6,466.36Zm-158.3-1.451c-1.559-1.142-3.118-2.332-4.629-3.542l.958-1.2c1.5,1.194,3.036,2.372,4.579,3.5Zm167.529-5.651-.988-1.175c1.463-1.229,2.919-2.505,4.329-3.8l1.037,1.131C1786.785,456.725,1785.311,458.017,1783.833,459.258ZM1607.2,457.634c-1.438-1.253-2.889-2.571-4.312-3.921l1.056-1.116c1.409,1.336,2.844,2.639,4.265,3.877Zm185.225-6.239-1.084-1.088c1.343-1.336,2.685-2.734,3.994-4.153l1.13,1.04C1795.14,448.63,1793.78,450.044,1792.423,451.4Zm-193.676-1.784c-1.337-1.383-2.671-2.819-3.959-4.27l1.149-1.019c1.276,1.433,2.593,2.853,3.916,4.223Zm201.574-6.786-1.173-.992c1.227-1.452,2.447-2.959,3.625-4.48l1.214.943C1802.795,439.831,1801.562,441.355,1800.321,442.825Zm-209.309-1.92c-1.215-1.493-2.421-3.038-3.58-4.593l1.231-.918c1.149,1.538,2.339,3.065,3.54,4.539Zm216.448-7.3-1.254-.887c1.11-1.569,2.2-3.177,3.233-4.776l1.288.834C1809.683,430.4,1808.584,432.023,1807.46,433.61Zm-223.408-2.037c-1.079-1.582-2.149-3.224-3.175-4.878l1.306-.812c1.014,1.638,2.071,3.259,3.137,4.823Zm229.736-7.756-1.322-.779c.964-1.643,1.91-3.338,2.811-5.036l1.357.719C1815.724,420.438,1814.765,422.152,1813.788,423.816Zm-235.876-2.13c-.957-1.7-1.878-3.425-2.743-5.129l1.37-.695c.854,1.685,1.767,3.388,2.713,5.07Zm241.345-8.182-1.388-.662c.822-1.72,1.62-3.49,2.371-5.26l1.414.6C1820.895,409.974,1820.088,411.765,1819.257,413.5Zm-246.607-2.187c-.8-1.765-1.573-3.563-2.29-5.342l1.425-.574c.711,1.76,1.471,3.535,2.264,5.281Zm251.17-8.561-1.438-.538c.67-1.791,1.311-3.626,1.908-5.454l1.459.478C1825.147,399.091,1824.5,400.945,1823.82,402.756Zm-255.527-2.229c-.637-1.8-1.252-3.661-1.826-5.532l1.468-.45c.569,1.85,1.177,3.69,1.807,5.468Zm259.141-8.861-1.48-.414c.517-1.852.995-3.729,1.426-5.579l1.5.347C1828.441,387.891,1827.956,389.79,1827.434,391.665Zm-262.554-2.28c-.485-1.866-.937-3.774-1.342-5.67l1.5-.321c.4,1.873.846,3.76,1.327,5.606Zm265.2-9.071-1.51-.283c.353-1.882.668-3.792.939-5.682l1.521.218C1830.753,376.477,1830.433,378.413,1830.076,380.314Zm-267.636-2.32c-.33-1.936-.616-3.876-.849-5.766l1.524-.189c.231,1.868.515,3.783.838,5.7Zm269.285-9.209-1.527-.154c.19-1.9.342-3.827.452-5.743l1.532.089C1832.073,364.913,1831.917,366.869,1831.725,368.785Zm-270.738-2.352c-.157-1.9-.277-3.86-.356-5.817l1.535-.061c.078,1.934.2,3.869.353,5.752Zm271.407-9.279-1.538-.024q.016-1.011.016-2.029,0-1.872-.051-3.732l1.534-.042q.055,1.883.052,3.774Q1832.408,356.132,1832.394,357.155Zm-270.336-2.36-1.538,0c.005-1.931.052-3.889.138-5.825l1.534.068C1562.106,350.949,1562.062,352.889,1562.057,354.8Zm268.484-9.179c-.136-1.917-.312-3.846-.525-5.738l1.527-.171c.215,1.913.393,3.863.529,5.8Zm-267.972-2.327-1.531-.133c.167-1.906.379-3.856.629-5.792l1.526.2C1562.942,339.476,1562.733,341.4,1562.569,343.289Zm266.683-9.12c-.3-1.9-.637-3.8-1.013-5.67l1.507-.3c.379,1.889.723,3.82,1.023,5.735Zm-265.194-2.3-1.516-.264c.328-1.878.706-3.8,1.123-5.716l1.5.326C1564.753,328.108,1564.381,330.009,1564.058,331.867Zm262.924-8.994c-.447-1.828-.95-3.7-1.493-5.56l1.472-.429c.551,1.882,1.061,3.774,1.513,5.625Zm-260.459-2.257-1.487-.391c.492-1.857,1.035-3.741,1.613-5.6l1.466.456C1567.544,316.918,1567.008,318.783,1566.523,320.616Zm257.224-8.795c-.608-1.8-1.271-3.619-1.967-5.412l1.431-.557c.705,1.814,1.376,3.656,1.992,5.475ZM1569.953,309.6l-1.447-.518c.651-1.805,1.355-3.64,2.1-5.454l1.421.583C1571.29,306,1570.594,307.818,1569.953,309.6Zm249.629-8.5c-.762-1.739-1.578-3.493-2.423-5.213l1.377-.677c.855,1.741,1.681,3.512,2.453,5.272Zm-245.257-2.177-1.393-.646c.81-1.76,1.672-3.525,2.556-5.244l1.367.7C1575.979,295.435,1575.127,297.179,1574.324,298.921Zm240.186-8.139c-.92-1.681-1.883-3.361-2.863-4.989l1.316-.791c.99,1.644,1.966,3.341,2.895,5.043ZM1579.6,288.658l-1.337-.761c.955-1.674,1.962-3.359,3-5l1.3.819C1581.541,285.336,1580.545,287,1579.6,288.658Zm228.968-7.73c-1.049-1.585-2.154-3.175-3.28-4.726l1.241-.9c1.14,1.569,2.257,3.177,3.32,4.782Zm-222.833-2.035-1.265-.873c1.1-1.589,2.243-3.179,3.411-4.729l1.227.927C1587.955,275.747,1586.822,277.322,1585.738,278.893Zm216.069-7.274c-1.177-1.486-2.413-2.976-3.673-4.432l1.162-1.006c1.275,1.473,2.524,2.982,3.715,4.485Zm-209.126-1.927-1.187-.976c1.236-1.5,2.516-2.987,3.8-4.418l1.142,1.026C1595.167,266.739,1593.9,268.209,1592.681,269.691Zm201.589-6.78c-1.3-1.379-2.661-2.762-4.04-4.1l1.072-1.1c1.395,1.36,2.77,2.757,4.085,4.153Zm-193.891-1.793-1.1-1.074c1.362-1.391,2.762-2.763,4.163-4.078l1.051,1.121C1603.111,258.386,1601.727,259.742,1600.38,261.118Zm185.637-6.245c-1.419-1.271-2.892-2.533-4.376-3.748l.976-1.189c1.5,1.229,2.989,2.507,4.427,3.793Zm-177.238-1.637-1-1.164c1.459-1.257,2.969-2.5,4.492-3.706l.951,1.2C1611.714,250.758,1610.222,251.993,1608.778,253.236Zm168.329-5.67c-1.533-1.152-3.109-2.283-4.684-3.364l.869-1.267c1.592,1.093,3.186,2.238,4.738,3.4ZM1617.813,246.1l-.9-1.245c1.573-1.136,3.184-2.25,4.788-3.308l.847,1.281C1620.96,243.873,1619.368,244.975,1617.813,246.1Zm149.787-5.057c-1.61-1.007-3.275-2-4.955-2.952l.758-1.337c1.7.964,3.385,1.967,5.012,2.987Zm-140.182-1.28-.793-1.316c1.655-.993,3.354-1.964,5.052-2.886l.733,1.349C1630.731,237.823,1629.051,238.781,1627.417,239.762Zm130.146-4.408c-1.7-.871-3.448-1.716-5.194-2.516l.641-1.4c1.765.808,3.532,1.664,5.253,2.544Zm-120.04-1.079-.676-1.381c1.725-.843,3.5-1.664,5.274-2.44l.618,1.409C1640.983,232.629,1639.229,233.441,1637.523,234.275Zm109.548-3.727c-1.772-.721-3.586-1.414-5.393-2.06l.515-1.447c1.828.653,3.664,1.355,5.457,2.083Zm-99.017-.869-.554-1.435c1.8-.693,3.642-1.362,5.48-1.981l.491,1.456C1651.653,228.333,1649.831,228.991,1648.054,229.679Zm88.14-3.015c-1.81-.56-3.671-1.091-5.537-1.58l.389-1.487c1.887.494,3.772,1.033,5.6,1.6ZM1658.968,226l-.426-1.477c1.844-.534,3.738-1.04,5.627-1.5l.365,1.493C1662.665,224.967,1660.794,225.466,1658.968,226Zm66.085-2.255c-1.869-.4-3.772-.773-5.654-1.1l.258-1.514c1.906.328,3.83.7,5.721,1.11Zm-54.893-.473-.3-1.507c1.885-.374,3.816-.714,5.736-1.011l.236,1.519C1673.931,222.563,1672.023,222.9,1670.16,223.269Zm43.54-1.477c-1.892-.244-3.82-.449-5.728-.611l.129-1.531c1.931.164,3.881.372,5.794.616Zm-32.156-.278-.169-1.527c1.92-.211,3.874-.386,5.8-.515l.1,1.533C1685.374,221.133,1683.441,221.3,1681.544,221.514Zm20.682-.7c-3.051-.127-6.147-.154-9.191-.077L1693,219.2c3.069-.079,6.206-.051,9.292.079Z" transform="translate(-1560.519 -219.159)" fill="#fff"/>
</svg>
