<svg xmlns="http://www.w3.org/2000/svg" width="458.257" height="458.237" viewBox="0 0 458.257 458.237">
  <g id="Group_31" data-name="Group 31" transform="translate(-730.873 -5271.448)">
    <path id="Path_477" data-name="Path 477" d="M1761.06,642.219c-122.694,0-222.516-99.821-222.516-222.518s99.822-222.518,222.516-222.518,222.518,99.823,222.518,222.518S1883.757,642.219,1761.06,642.219Zm0-440.156c-120.005,0-217.638,97.63-217.638,217.638s97.632,217.638,217.638,217.638S1978.7,539.708,1978.7,419.7,1881.067,202.063,1761.06,202.063Z" transform="translate(-800.907 5080.904)" fill="#fff" opacity="0.4"/>
    <path id="Union_3" data-name="Union 3" d="M161.4,447.2A228.729,228.729,0,0,1,66.951,66.915l.109.109A228.982,228.982,0,0,1,228.769,0V17.075a211.5,211.5,0,1,0,211.094,200.4l17.053-.895a227.116,227.116,0,0,1-58.344,164.89l.118.106a227.131,227.131,0,0,1-157.922,75.343q-6.148.322-12.265.321A227.948,227.948,0,0,1,161.4,447.2Z" transform="translate(1188.619 5729.186) rotate(180)" fill="#fff" stroke="rgba(0,0,0,0)" stroke-miterlimit="10" stroke-width="1"/>
  </g>
</svg>
