<svg xmlns="http://www.w3.org/2000/svg" width="2240.356" height="1410.865" viewBox="0 0 2240.356 1410.865">
  <g id="Group_40" data-name="Group 40" transform="translate(160 -3565.5)">
    <g id="Path_461" data-name="Path 461" transform="translate(640.747 3565.5) rotate(90)" fill="none" opacity="0.25">
      <path d="M336.906,0l65.959,160.356L336.906,320.712H65.959L0,160.356,65.959,0Z" stroke="none"/>
      <path d="M 66.62924194335938 1 L 1.081268310546875 160.3561859130859 L 66.62924194335938 319.7123718261719 L 336.2358093261719 319.7123718261719 L 401.7838439941406 160.3561859130859 L 336.2358093261719 1 L 66.62924194335938 1 M 65.95932006835938 0 L 336.90576171875 0 L 402.8651123046875 160.3561859130859 L 336.90576171875 320.7123718261719 L 65.95932006835938 320.7123718261719 L 0 160.3561859130859 L 65.95932006835938 0 Z" stroke="none" fill="#fff"/>
    </g>
    <g id="Path_460" data-name="Path 460" transform="translate(320.712 3565.5) rotate(90)" fill="none" opacity="0.25">
      <path d="M336.906,0l65.959,160.356L336.906,320.712H65.959L0,160.356,65.959,0Z" stroke="none"/>
      <path d="M 66.62924194335938 1 L 1.081268310546875 160.3561859130859 L 66.62924194335938 319.7123718261719 L 336.2358093261719 319.7123718261719 L 401.7838439941406 160.3561859130859 L 336.2358093261719 1 L 66.62924194335938 1 M 65.95932006835938 0 L 336.90576171875 0 L 402.8651123046875 160.3561859130859 L 336.90576171875 320.7123718261719 L 65.95932006835938 320.7123718261719 L 0 160.3561859130859 L 65.95932006835938 0 Z" stroke="none" fill="#fff"/>
    </g>
    <g id="Path_463" data-name="Path 463" transform="translate(1280.442 3565.5) rotate(90)" fill="none" opacity="0.25">
      <path d="M336.906,0l65.959,160.356L336.906,320.712H65.959L0,160.356,65.959,0Z" stroke="none"/>
      <path d="M 66.62924194335938 1 L 1.081268310546875 160.3561859130859 L 66.62924194335938 319.7123718261719 L 336.2358093261719 319.7123718261719 L 401.7838439941406 160.3561859130859 L 336.2358093261719 1 L 66.62924194335938 1 M 65.95932006835938 0 L 336.90576171875 0 L 402.8651123046875 160.3561859130859 L 336.90576171875 320.7123718261719 L 65.95932006835938 320.7123718261719 L 0 160.3561859130859 L 65.95932006835938 0 Z" stroke="none" fill="#fff"/>
    </g>
    <g id="Path_462" data-name="Path 462" transform="translate(960.595 3565.5) rotate(90)" fill="none" opacity="0.25">
      <path d="M336.906,0l65.959,160.356L336.906,320.712H65.959L0,160.356,65.959,0Z" stroke="none"/>
      <path d="M 66.62924194335938 1 L 1.081268310546875 160.3561859130859 L 66.62924194335938 319.7123718261719 L 336.2358093261719 319.7123718261719 L 401.7838439941406 160.3561859130859 L 336.2358093261719 1 L 66.62924194335938 1 M 65.95932006835938 0 L 336.90576171875 0 L 402.8651123046875 160.3561859130859 L 336.90576171875 320.7123718261719 L 65.95932006835938 320.7123718261719 L 0 160.3561859130859 L 65.95932006835938 0 Z" stroke="none" fill="#fff"/>
    </g>
    <g id="Path_462-2" data-name="Path 462" transform="translate(800.595 3901.5) rotate(90)" fill="none" opacity="0.25">
      <path d="M336.906,0l65.959,160.356L336.906,320.712H65.959L0,160.356,65.959,0Z" stroke="none"/>
      <path d="M 66.62924194335938 1 L 1.081268310546875 160.3561859130859 L 66.62924194335938 319.7123718261719 L 336.2358093261719 319.7123718261719 L 401.7838439941406 160.3561859130859 L 336.2358093261719 1 L 66.62924194335938 1 M 65.95932006835938 0 L 336.90576171875 0 L 402.8651123046875 160.3561859130859 L 336.90576171875 320.7123718261719 L 65.95932006835938 320.7123718261719 L 0 160.3561859130859 L 65.95932006835938 0 Z" stroke="none" fill="#fff"/>
    </g>
    <g id="Path_464" data-name="Path 464" transform="translate(1600.289 3565.5) rotate(90)" fill="none" opacity="0.25">
      <path d="M336.906,0l65.959,160.356L336.906,320.712H65.959L0,160.356,65.959,0Z" stroke="none"/>
      <path d="M 66.62924194335938 1 L 1.081268310546875 160.3561859130859 L 66.62924194335938 319.7123718261719 L 336.2358093261719 319.7123718261719 L 401.7838439941406 160.3561859130859 L 336.2358093261719 1 L 66.62924194335938 1 M 65.95932006835938 0 L 336.90576171875 0 L 402.8651123046875 160.3561859130859 L 336.90576171875 320.7123718261719 L 65.95932006835938 320.7123718261719 L 0 160.3561859130859 L 65.95932006835938 0 Z" stroke="none" fill="#fff"/>
    </g>
    <g id="Path_465" data-name="Path 465" transform="translate(1920 3565.5) rotate(90)" fill="none" opacity="0.25">
      <path d="M336.906,0l65.959,160.356L336.906,320.712H65.959L0,160.356,65.959,0Z" stroke="none"/>
      <path d="M 66.62924194335938 1 L 1.081268310546875 160.3561859130859 L 66.62924194335938 319.7123718261719 L 336.2358093261719 319.7123718261719 L 401.7838439941406 160.3561859130859 L 336.2358093261719 1 L 66.62924194335938 1 M 65.95932006835938 0 L 336.90576171875 0 L 402.8651123046875 160.3561859130859 L 336.90576171875 320.7123718261719 L 65.95932006835938 320.7123718261719 L 0 160.3561859130859 L 65.95932006835938 0 Z" stroke="none" fill="#fff"/>
    </g>
    <g id="Path_462-3" data-name="Path 462" transform="translate(960.595 4237.5) rotate(90)" fill="rgba(0,0,0,0.01)">
      <path d="M336.906,0l65.959,160.356L336.906,320.712H65.959L0,160.356,65.959,0Z" stroke="none"/>
      <path d="M 66.62924194335938 1 L 1.081268310546875 160.3561859130859 L 66.62924194335938 319.7123718261719 L 336.2358093261719 319.7123718261719 L 401.7838439941406 160.3561859130859 L 336.2358093261719 1 L 66.62924194335938 1 M 65.95932006835938 0 L 336.90576171875 0 L 402.8651123046875 160.3561859130859 L 336.90576171875 320.7123718261719 L 65.95932006835938 320.7123718261719 L 0 160.3561859130859 L 65.95932006835938 0 Z" stroke="none" fill="rgba(255,255,255,0.38)"/>
    </g>
    <g id="Path_460-2" data-name="Path 460" transform="translate(320.712 4237.5) rotate(90)" fill="none" opacity="0.25">
      <path d="M336.906,0l65.959,160.356L336.906,320.712H65.959L0,160.356,65.959,0Z" stroke="none"/>
      <path d="M 66.62924194335938 1 L 1.081268310546875 160.3561859130859 L 66.62924194335938 319.7123718261719 L 336.2358093261719 319.7123718261719 L 401.7838439941406 160.3561859130859 L 336.2358093261719 1 L 66.62924194335938 1 M 65.95932006835938 0 L 336.90576171875 0 L 402.8651123046875 160.3561859130859 L 336.90576171875 320.7123718261719 L 65.95932006835938 320.7123718261719 L 0 160.3561859130859 L 65.95932006835938 0 Z" stroke="none" fill="#fff"/>
    </g>
    <g id="Path_463-2" data-name="Path 463" transform="translate(1280.442 4237.5) rotate(90)" fill="none" opacity="0.25">
      <path d="M336.906,0l65.959,160.356L336.906,320.712H65.959L0,160.356,65.959,0Z" stroke="none"/>
      <path d="M 66.62924194335938 1 L 1.081268310546875 160.3561859130859 L 66.62924194335938 319.7123718261719 L 336.2358093261719 319.7123718261719 L 401.7838439941406 160.3561859130859 L 336.2358093261719 1 L 66.62924194335938 1 M 65.95932006835938 0 L 336.90576171875 0 L 402.8651123046875 160.3561859130859 L 336.90576171875 320.7123718261719 L 65.95932006835938 320.7123718261719 L 0 160.3561859130859 L 65.95932006835938 0 Z" stroke="none" fill="#fff"/>
    </g>
    <g id="Path_461-2" data-name="Path 461" transform="translate(640.747 4237.5) rotate(90)" fill="none" opacity="0.25">
      <path d="M336.906,0l65.959,160.356L336.906,320.712H65.959L0,160.356,65.959,0Z" stroke="none"/>
      <path d="M 66.62924194335938 1 L 1.081268310546875 160.3561859130859 L 66.62924194335938 319.7123718261719 L 336.2358093261719 319.7123718261719 L 401.7838439941406 160.3561859130859 L 336.2358093261719 1 L 66.62924194335938 1 M 65.95932006835938 0 L 336.90576171875 0 L 402.8651123046875 160.3561859130859 L 336.90576171875 320.7123718261719 L 65.95932006835938 320.7123718261719 L 0 160.3561859130859 L 65.95932006835938 0 Z" stroke="none" fill="#fff"/>
    </g>
    <g id="Path_464-2" data-name="Path 464" transform="translate(1600.289 4237.5) rotate(90)" fill="none" opacity="0.25">
      <path d="M336.906,0l65.959,160.356L336.906,320.712H65.959L0,160.356,65.959,0Z" stroke="none"/>
      <path d="M 66.62924194335938 1 L 1.081268310546875 160.3561859130859 L 66.62924194335938 319.7123718261719 L 336.2358093261719 319.7123718261719 L 401.7838439941406 160.3561859130859 L 336.2358093261719 1 L 66.62924194335938 1 M 65.95932006835938 0 L 336.90576171875 0 L 402.8651123046875 160.3561859130859 L 336.90576171875 320.7123718261719 L 65.95932006835938 320.7123718261719 L 0 160.3561859130859 L 65.95932006835938 0 Z" stroke="none" fill="#fff"/>
    </g>
    <g id="Path_465-2" data-name="Path 465" transform="translate(1920 4237.5) rotate(90)" fill="none" opacity="0.25">
      <path d="M336.906,0l65.959,160.356L336.906,320.712H65.959L0,160.356,65.959,0Z" stroke="none"/>
      <path d="M 66.62924194335938 1 L 1.081268310546875 160.3561859130859 L 66.62924194335938 319.7123718261719 L 336.2358093261719 319.7123718261719 L 401.7838439941406 160.3561859130859 L 336.2358093261719 1 L 66.62924194335938 1 M 65.95932006835938 0 L 336.90576171875 0 L 402.8651123046875 160.3561859130859 L 336.90576171875 320.7123718261719 L 65.95932006835938 320.7123718261719 L 0 160.3561859130859 L 65.95932006835938 0 Z" stroke="none" fill="#fff"/>
    </g>
    <g id="Path_460-3" data-name="Path 460" transform="translate(160.712 3901.5) rotate(90)" fill="none" opacity="0.25">
      <path d="M336.906,0l65.959,160.356L336.906,320.712H65.959L0,160.356,65.959,0Z" stroke="none"/>
      <path d="M 66.62924194335938 1 L 1.081268310546875 160.3561859130859 L 66.62924194335938 319.7123718261719 L 336.2358093261719 319.7123718261719 L 401.7838439941406 160.3561859130859 L 336.2358093261719 1 L 66.62924194335938 1 M 65.95932006835938 0 L 336.90576171875 0 L 402.8651123046875 160.3561859130859 L 336.90576171875 320.7123718261719 L 65.95932006835938 320.7123718261719 L 0 160.3561859130859 L 65.95932006835938 0 Z" stroke="none" fill="#fff"/>
    </g>
    <g id="Path_461-3" data-name="Path 461" transform="translate(480.747 3901.5) rotate(90)" fill="none" opacity="0.25">
      <path d="M336.906,0l65.959,160.356L336.906,320.712H65.959L0,160.356,65.959,0Z" stroke="none"/>
      <path d="M 66.62924194335938 1 L 1.081268310546875 160.3561859130859 L 66.62924194335938 319.7123718261719 L 336.2358093261719 319.7123718261719 L 401.7838439941406 160.3561859130859 L 336.2358093261719 1 L 66.62924194335938 1 M 65.95932006835938 0 L 336.90576171875 0 L 402.8651123046875 160.3561859130859 L 336.90576171875 320.7123718261719 L 65.95932006835938 320.7123718261719 L 0 160.3561859130859 L 65.95932006835938 0 Z" stroke="none" fill="#fff"/>
    </g>
    <g id="Path_463-3" data-name="Path 463" transform="translate(1120.442 3901.5) rotate(90)" fill="none" opacity="0.25">
      <path d="M336.906,0l65.959,160.356L336.906,320.712H65.959L0,160.356,65.959,0Z" stroke="none"/>
      <path d="M 66.62924194335938 1 L 1.081268310546875 160.3561859130859 L 66.62924194335938 319.7123718261719 L 336.2358093261719 319.7123718261719 L 401.7838439941406 160.3561859130859 L 336.2358093261719 1 L 66.62924194335938 1 M 65.95932006835938 0 L 336.90576171875 0 L 402.8651123046875 160.3561859130859 L 336.90576171875 320.7123718261719 L 65.95932006835938 320.7123718261719 L 0 160.3561859130859 L 65.95932006835938 0 Z" stroke="none" fill="#fff"/>
    </g>
    <g id="Path_464-3" data-name="Path 464" transform="translate(1440.289 4573.5) rotate(90)" fill="none" opacity="0.25">
      <path d="M336.906,0l65.959,160.356L336.906,320.712H65.959L0,160.356,65.959,0Z" stroke="none"/>
      <path d="M 66.62924194335938 1 L 1.081268310546875 160.3561859130859 L 66.62924194335938 319.7123718261719 L 336.2358093261719 319.7123718261719 L 401.7838439941406 160.3561859130859 L 336.2358093261719 1 L 66.62924194335938 1 M 65.95932006835938 0 L 336.90576171875 0 L 402.8651123046875 160.3561859130859 L 336.90576171875 320.7123718261719 L 65.95932006835938 320.7123718261719 L 0 160.3561859130859 L 65.95932006835938 0 Z" stroke="none" fill="#fff"/>
    </g>
    <g id="Path_464-4" data-name="Path 464" transform="translate(1440.289 3901.5) rotate(90)" fill="none" opacity="0.25">
      <path d="M336.906,0l65.959,160.356L336.906,320.712H65.959L0,160.356,65.959,0Z" stroke="none"/>
      <path d="M 66.62924194335938 1 L 1.081268310546875 160.3561859130859 L 66.62924194335938 319.7123718261719 L 336.2358093261719 319.7123718261719 L 401.7838439941406 160.3561859130859 L 336.2358093261719 1 L 66.62924194335938 1 M 65.95932006835938 0 L 336.90576171875 0 L 402.8651123046875 160.3561859130859 L 336.90576171875 320.7123718261719 L 65.95932006835938 320.7123718261719 L 0 160.3561859130859 L 65.95932006835938 0 Z" stroke="none" fill="#fff"/>
    </g>
    <g id="Path_465-3" data-name="Path 465" transform="translate(1760 3901.5) rotate(90)" fill="none" opacity="0.25">
      <path d="M336.906,0l65.959,160.356L336.906,320.712H65.959L0,160.356,65.959,0Z" stroke="none"/>
      <path d="M 66.62924194335938 1 L 1.081268310546875 160.3561859130859 L 66.62924194335938 319.7123718261719 L 336.2358093261719 319.7123718261719 L 401.7838439941406 160.3561859130859 L 336.2358093261719 1 L 66.62924194335938 1 M 65.95932006835938 0 L 336.90576171875 0 L 402.8651123046875 160.3561859130859 L 336.90576171875 320.7123718261719 L 65.95932006835938 320.7123718261719 L 0 160.3561859130859 L 65.95932006835938 0 Z" stroke="none" fill="#fff"/>
    </g>
    <g id="Path_460-4" data-name="Path 460" transform="translate(160.712 4573.5) rotate(90)" fill="none" opacity="0.25">
      <path d="M336.906,0l65.959,160.356L336.906,320.712H65.959L0,160.356,65.959,0Z" stroke="none"/>
      <path d="M 66.62924194335938 1 L 1.081268310546875 160.3561859130859 L 66.62924194335938 319.7123718261719 L 336.2358093261719 319.7123718261719 L 401.7838439941406 160.3561859130859 L 336.2358093261719 1 L 66.62924194335938 1 M 65.95932006835938 0 L 336.90576171875 0 L 402.8651123046875 160.3561859130859 L 336.90576171875 320.7123718261719 L 65.95932006835938 320.7123718261719 L 0 160.3561859130859 L 65.95932006835938 0 Z" stroke="none" fill="#fff"/>
    </g>
    <g id="Path_466" data-name="Path 466" transform="translate(2080.356 3901.5) rotate(90)" fill="none" opacity="0.25">
      <path d="M336.906,0l65.959,160.356L336.906,320.712H65.959L0,160.356,65.959,0Z" stroke="none"/>
      <path d="M 66.62924194335938 1 L 1.081268310546875 160.3561859130859 L 66.62924194335938 319.7123718261719 L 336.2358093261719 319.7123718261719 L 401.7838439941406 160.3561859130859 L 336.2358093261719 1 L 66.62924194335938 1 M 65.95932006835938 0 L 336.90576171875 0 L 402.8651123046875 160.3561859130859 L 336.90576171875 320.7123718261719 L 65.95932006835938 320.7123718261719 L 0 160.3561859130859 L 65.95932006835938 0 Z" stroke="none" fill="#fff"/>
    </g>
    <g id="Path_461-4" data-name="Path 461" transform="translate(480.747 4573.5) rotate(90)" fill="none" opacity="0.25">
      <path d="M336.906,0l65.959,160.356L336.906,320.712H65.959L0,160.356,65.959,0Z" stroke="none"/>
      <path d="M 66.62924194335938 1 L 1.081268310546875 160.3561859130859 L 66.62924194335938 319.7123718261719 L 336.2358093261719 319.7123718261719 L 401.7838439941406 160.3561859130859 L 336.2358093261719 1 L 66.62924194335938 1 M 65.95932006835938 0 L 336.90576171875 0 L 402.8651123046875 160.3561859130859 L 336.90576171875 320.7123718261719 L 65.95932006835938 320.7123718261719 L 0 160.3561859130859 L 65.95932006835938 0 Z" stroke="none" fill="#fff"/>
    </g>
    <g id="Path_462-4" data-name="Path 462" transform="translate(800.595 4573.5) rotate(90)" fill="none" opacity="0.25">
      <path d="M336.906,0l65.959,160.356L336.906,320.712H65.959L0,160.356,65.959,0Z" stroke="none"/>
      <path d="M 66.62924194335938 1 L 1.081268310546875 160.3561859130859 L 66.62924194335938 319.7123718261719 L 336.2358093261719 319.7123718261719 L 401.7838439941406 160.3561859130859 L 336.2358093261719 1 L 66.62924194335938 1 M 65.95932006835938 0 L 336.90576171875 0 L 402.8651123046875 160.3561859130859 L 336.90576171875 320.7123718261719 L 65.95932006835938 320.7123718261719 L 0 160.3561859130859 L 65.95932006835938 0 Z" stroke="none" fill="#fff"/>
    </g>
    <g id="Path_463-4" data-name="Path 463" transform="translate(1120.442 4573.5) rotate(90)" fill="none" opacity="0.25">
      <path d="M336.906,0l65.959,160.356L336.906,320.712H65.959L0,160.356,65.959,0Z" stroke="none"/>
      <path d="M 66.62924194335938 1 L 1.081268310546875 160.3561859130859 L 66.62924194335938 319.7123718261719 L 336.2358093261719 319.7123718261719 L 401.7838439941406 160.3561859130859 L 336.2358093261719 1 L 66.62924194335938 1 M 65.95932006835938 0 L 336.90576171875 0 L 402.8651123046875 160.3561859130859 L 336.90576171875 320.7123718261719 L 65.95932006835938 320.7123718261719 L 0 160.3561859130859 L 65.95932006835938 0 Z" stroke="none" fill="#fff"/>
    </g>
    <g id="Path_466-2" data-name="Path 466" transform="translate(2080.356 4573.5) rotate(90)" fill="none" opacity="0.25">
      <path d="M336.906,0l65.959,160.356L336.906,320.712H65.959L0,160.356,65.959,0Z" stroke="none"/>
      <path d="M 66.62924194335938 1 L 1.081268310546875 160.3561859130859 L 66.62924194335938 319.7123718261719 L 336.2358093261719 319.7123718261719 L 401.7838439941406 160.3561859130859 L 336.2358093261719 1 L 66.62924194335938 1 M 65.95932006835938 0 L 336.90576171875 0 L 402.8651123046875 160.3561859130859 L 336.90576171875 320.7123718261719 L 65.95932006835938 320.7123718261719 L 0 160.3561859130859 L 65.95932006835938 0 Z" stroke="none" fill="#fff"/>
    </g>
    <g id="Path_465-4" data-name="Path 465" transform="translate(1760 4573.5) rotate(90)" fill="none" opacity="0.25">
      <path d="M336.906,0l65.959,160.356L336.906,320.712H65.959L0,160.356,65.959,0Z" stroke="none"/>
      <path d="M 66.62924194335938 1 L 1.081268310546875 160.3561859130859 L 66.62924194335938 319.7123718261719 L 336.2358093261719 319.7123718261719 L 401.7838439941406 160.3561859130859 L 336.2358093261719 1 L 66.62924194335938 1 M 65.95932006835938 0 L 336.90576171875 0 L 402.8651123046875 160.3561859130859 L 336.90576171875 320.7123718261719 L 65.95932006835938 320.7123718261719 L 0 160.3561859130859 L 65.95932006835938 0 Z" stroke="none" fill="#fff"/>
    </g>
  </g>
</svg>
