<svg xmlns="http://www.w3.org/2000/svg" width="319.857" height="319.872" viewBox="0 0 319.857 319.872">
  <path id="Path_490" data-name="Path 490" d="M1730.6,548.713l-.1-38.854c.8,0,1.6-.012,2.389-.028l.864,38.839C1732.705,548.7,1731.652,548.708,1730.6,548.713Zm-4.866-.061q-1.58-.039-3.155-.117l1.82-38.807c.794.037,1.587.065,2.387.089Zm12.939-.165-2.1-38.8c.811-.042,1.624-.093,2.431-.152l2.778,38.753Q1740.223,548.4,1738.669,548.487Zm-20.948-.247q-1.6-.126-3.2-.282l3.826-38.66c.774.077,1.552.142,2.331.2Zm28.9-.37-3.915-38.653c.792-.079,1.582-.17,2.373-.266l4.689,38.567Q1748.2,547.71,1746.62,547.869Zm-36.935-.452c-1.051-.138-2.1-.28-3.142-.436l5.747-38.425q1.174.178,2.356.326Zm44.905-.566-5.83-38.413c.772-.114,1.538-.242,2.3-.378l6.7,38.271Q1756.18,546.607,1754.59,546.851Zm-52.843-.65q-1.545-.28-3.077-.583l7.565-38.108q1.185.234,2.374.45Zm60.8-.776-7.837-38.054c.776-.159,1.552-.326,2.323-.5l8.612,37.882Q1764.1,545.1,1762.549,545.425Zm-68.687-.846c-1.012-.233-2.025-.48-3.032-.734l9.466-37.679c.785.2,1.57.387,2.361.571Zm76.507-.977-9.714-37.614q1.147-.3,2.277-.618l10.525,37.4C1772.43,543.059,1771.4,543.336,1770.368,543.6Zm-84.3-1.039q-1.51-.433-3.009-.895l11.391-37.141c.767.233,1.538.464,2.312.685Zm92.067-1.184-11.652-37.064q1.154-.364,2.3-.743l12.344,36.835Q1779.632,540.907,1778.132,541.379Zm-99.762-1.233q-1.489-.51-2.969-1.046l13.256-36.518c.757.273,1.519.543,2.284.8Zm107.369-1.373-13.482-36.437c.737-.273,1.475-.555,2.209-.844l14.247,36.145Q1787.238,538.222,1785.74,538.774Zm-114.922-1.426q-1.492-.594-2.969-1.221l15.166-35.766c.725.3,1.45.6,2.182.895Zm122.364-1.547-15.269-35.726c.72-.308,1.44-.627,2.155-.951l16.02,35.395Q1794.639,535.172,1793.181,535.8Zm-129.8-1.641c-.97-.447-1.939-.9-2.9-1.37l16.991-34.941c.706.345,1.414.678,2.13,1.007Zm137.138-1.734-17.147-34.864c.715-.352,1.424-.706,2.13-1.072l17.833,34.517Q1801.935,531.73,1800.521,532.425Zm-144.4-1.832q-1.374-.72-2.736-1.461l18.586-34.118q1.08.591,2.17,1.161Zm151.5-1.878-18.853-33.971q1.035-.573,2.053-1.165l19.562,33.566Q1809.016,527.945,1807.625,528.715Zm-158.548-2.035c-.9-.534-1.8-1.074-2.7-1.624l20.369-33.085c.683.422,1.371.834,2.065,1.244Zm165.442-2.023-20.478-33.013q1-.622,1.988-1.268l21.174,32.577C1816.313,523.53,1815.418,524.1,1814.518,524.658Zm-172.27-2.233q-1.332-.877-2.645-1.78l22.053-31.985q.974.671,1.967,1.321Zm179.031-2.211-22.207-31.876c.661-.464,1.321-.93,1.976-1.405l22.773,31.48C1822.98,519.018,1822.132,519.622,1821.279,520.214Zm-185.654-2.4c-.835-.615-1.669-1.235-2.491-1.864l23.54-30.907q.972.737,1.955,1.463Zm192.125-2.342-23.764-30.734c.646-.5,1.282-1,1.916-1.508l24.293,30.319Q1828.986,514.523,1827.75,515.474Zm-198.481-2.566c-.81-.662-1.619-1.331-2.419-2.007l25.08-29.671c.613.515,1.229,1.03,1.855,1.538Zm204.673-2.463-25.181-29.588c.6-.508,1.193-1.028,1.783-1.552l25.8,29.049Q1835.151,509.413,1833.943,510.444Zm-210.788-2.771q-1.171-1.049-2.318-2.128l26.551-28.366c.585.55,1.174,1.091,1.769,1.629Zm216.8-2.633-26.691-28.229c.577-.545,1.154-1.1,1.724-1.664l27.231,27.712C1841.473,503.593,1840.715,504.322,1839.956,505.04Zm-222.645-2.9q-1.1-1.1-2.186-2.216l27.9-27.036q.849.874,1.71,1.734Zm228.331-2.743L1817.6,472.5q.821-.856,1.622-1.727l28.594,26.3C1847.1,497.853,1846.378,498.624,1845.641,499.4Zm-233.889-3.074c-.7-.767-1.387-1.54-2.072-2.321l29.227-25.6q.8.916,1.622,1.82Zm239.313-2.878L1821.7,468c.515-.6,1.028-1.2,1.533-1.811l29.886,24.826Q1852.1,492.243,1851.065,493.444Zm-244.554-3.181q-1.01-1.234-2-2.482l30.534-24.022q.731.926,1.482,1.839Zm249.672-3.034-30.606-23.934q.742-.944,1.457-1.9l31.07,23.328Q1857.151,485.979,1856.182,487.228Zm-254.608-3.286q-.937-1.265-1.848-2.545l31.633-22.554q.7.975,1.41,1.939Zm259.415-3.193L1829.2,458.415q.7-1,1.38-2.007l32.182,21.771Q1861.886,479.473,1860.99,480.75Zm-264.048-3.4q-.878-1.314-1.725-2.645l32.764-20.883c.424.669.862,1.335,1.3,2Zm268.508-3.3-32.857-20.727q.64-1.017,1.268-2.051l33.244,20.1Q1866.29,472.728,1865.45,474.057Zm-272.776-3.47c-.54-.907-1.076-1.822-1.6-2.745l33.759-19.226c.392.685.785,1.363,1.191,2.039Zm276.9-3.433-33.852-19.073q.591-1.045,1.156-2.1l34.22,18.4Q1870.348,465.773,1869.575,467.154Zm-280.844-3.575q-.737-1.391-1.449-2.8l34.674-17.527q.535,1.063,1.1,2.116Zm284.619-3.552-34.771-17.336c.361-.722.713-1.449,1.06-2.177l35.085,16.686Q1874.051,458.62,1873.351,460.027Zm-288.21-3.659c-.436-.934-.86-1.871-1.282-2.811l35.486-15.821c.329.743.669,1.485,1.011,2.223Zm291.627-3.652-35.6-15.558c.319-.732.631-1.466.939-2.209l35.9,14.857Q1877.4,451.267,1876.767,452.717Zm-294.831-3.689q-.594-1.461-1.161-2.936l36.267-13.931q.43,1.119.879,2.226Zm297.872-3.787L1843.469,431.5q.416-1.1.809-2.216l36.632,12.939C1880.557,443.239,1880.186,444.243,1879.808,445.241Zm-300.716-3.731q-.524-1.51-1.021-3.032l36.94-12.028c.245.746.494,1.489.755,2.228ZM1882.47,437.6l-37-11.853c.238-.753.473-1.508.7-2.263l37.236,11.074C1883.106,435.583,1882.8,436.594,1882.47,437.6Zm-305.845-3.789q-.434-1.482-.842-2.974l37.462-10.3q.326,1.188.671,2.368Zm308.112-3.95-37.562-9.942q.307-1.15.587-2.307l37.754,9.175Q1885.138,428.332,1884.737,429.864Zm-310.18-3.836q-.356-1.5-.685-3l37.928-8.406c.182.8.364,1.608.554,2.41Zm312.032-3.953-37.993-8.117q.241-1.143.459-2.288l38.171,7.25Q1886.923,420.5,1886.59,422.076Zm-313.7-3.915q-.291-1.559-.548-3.13l38.338-6.295q.193,1.174.408,2.34Zm315.173-4.032-38.366-6.122q.189-1.178.354-2.358L1888.531,411C1888.385,412.043,1888.231,413.087,1888.063,414.129Zm-316.441-3.9q-.206-1.566-.39-3.148l38.6-4.384c.088.79.186,1.575.294,2.361Zm317.511-4.1L1850.5,402c.084-.8.163-1.61.238-2.419l38.7,3.433Q1889.3,404.574,1889.132,406.124Zm-318.378-3.885q-.137-1.6-.235-3.207l38.777-2.379q.077,1.168.17,2.328Zm319.04-4.12-38.789-2.2c.045-.809.087-1.62.119-2.433l38.821,1.526Q1889.883,396.566,1889.795,398.119Zm-319.509-3.892c-.039-1.065-.062-2.135-.077-3.2l38.849-.478q.014,1.168.054,2.335Zm319.774-4.162-38.849-.226,0-1.06,0-1.352,38.85-.5c.006.641.011,1.286.006,1.93Zm-281-3.288-38.848-.573q.024-1.6.081-3.2l38.826,1.433Q1609.075,385.6,1609.063,386.776Zm242.046-3.123c-.031-.781-.07-1.561-.119-2.337l38.777-2.4q.1,1.6.163,3.207Zm-241.8-2.936-38.767-2.577c.072-1.037.149-2.069.235-3.1l38.716,3.251C1609.426,379.1,1609.361,379.906,1609.309,380.717Zm241.4-3.12c-.072-.795-.151-1.582-.24-2.368l38.611-4.309q.175,1.573.321,3.158Zm-240.85-2.964-38.588-4.486q.182-1.577.4-3.141l38.492,5.267Q1610,373.449,1609.858,374.632Zm240.137-3.095q-.165-1.181-.359-2.354l38.352-6.218q.252,1.562.473,3.132Zm-239.278-2.953L1572.4,362.2q.262-1.594.564-3.174l38.166,7.269Q1610.908,367.435,1610.717,368.585Zm238.292-2.969q-.241-1.213-.5-2.424l37.986-8.133c.217,1,.42,2,.62,3.011ZM1611.88,362.6l-37.959-8.3c.229-1.039.466-2.07.713-3.1l37.775,9.084Q1612.133,361.438,1611.88,362.6Zm235.821-2.934q-.3-1.2-.617-2.386l37.53-10.049c.266.99.52,1.988.772,2.99Zm-234.365-2.976-37.488-10.2q.419-1.545.874-3.074l37.255,11.014Q1613.646,355.554,1613.337,356.69Zm232.741-2.939c-.233-.767-.468-1.531-.715-2.288l36.958-11.972q.487,1.5.944,3.009Zm-231-2.846-36.9-12.172c.329-1,.667-1.988,1.012-2.978l36.665,12.853C1615.59,349.372,1615.332,350.137,1615.08,350.906Zm229.085-2.95c-.271-.757-.55-1.51-.834-2.263l36.331-13.768q.556,1.468,1.087,2.946Zm-227.024-2.82L1580.9,331.151c.38-.988.769-1.967,1.167-2.943L1618.03,342.9C1617.727,343.642,1617.429,344.388,1617.14,345.136Zm224.817-2.883c-.3-.715-.6-1.424-.909-2.13L1876.6,324.46q.65,1.468,1.261,2.955Zm-222.477-2.741L1584,323.681c.429-.965.872-1.925,1.317-2.876l35.162,16.528C1620.14,338.056,1619.806,338.785,1619.479,339.512Zm220.037-2.736q-.521-1.094-1.062-2.177l34.747-17.374q.7,1.388,1.367,2.792Zm-217.42-2.75-34.615-17.644q.7-1.381,1.431-2.748l34.32,18.206C1622.85,332.567,1622.47,333.292,1622.1,334.026Zm214.677-2.654c-.382-.7-.772-1.408-1.163-2.1l33.8-19.154c.518.909,1.021,1.822,1.519,2.741ZM1625,328.657l-33.68-19.368q.779-1.353,1.58-2.692l33.332,19.96Q1625.6,327.6,1625,328.657Zm208.727-2.608q-.611-1.007-1.242-2l32.8-20.813q.849,1.342,1.676,2.7Zm-205.539-2.64-32.706-20.974q.867-1.346,1.75-2.668l32.254,21.662Q1628.821,322.414,1628.184,323.409Zm202.251-2.484q-.66-.975-1.34-1.939l31.724-22.426q.919,1.3,1.809,2.617ZM1631.6,318.377l-31.587-22.617q.92-1.286,1.866-2.554l31.137,23.237C1632.537,317.084,1632.067,317.727,1631.6,318.377ZM1826.916,316c-.476-.632-.956-1.259-1.445-1.878L1856,290.1c.654.83,1.3,1.671,1.938,2.517Zm-191.648-2.487-30.4-24.188q.979-1.234,1.981-2.447l29.933,24.77Q1636.016,312.574,1635.268,313.516Zm187.87-2.272c-.522-.622-1.046-1.242-1.58-1.857l29.363-25.439q1.018,1.175,2.016,2.368Zm-183.964-2.4-29.135-25.7q1.024-1.168,2.079-2.319l28.685,26.2Q1639.982,307.929,1639.174,308.846Zm179.926-2.2q-.814-.881-1.646-1.748l28.04-26.891c.725.755,1.448,1.519,2.156,2.288Zm-175.766-2.3-27.854-27.087q1.108-1.14,2.242-2.258L1645,302.668Q1644.158,303.5,1643.335,304.35Zm171.552-2.046q-.871-.853-1.76-1.69l26.651-28.273q1.133,1.07,2.245,2.158Zm-167.176-2.233-26.5-28.411q1.179-1.1,2.375-2.165l25.849,29Q1648.563,299.277,1647.711,300.072Zm162.7-1.946c-.6-.529-1.207-1.058-1.818-1.578l25.188-29.578q1.2,1.021,2.375,2.06Zm-158.175-2.058-24.976-29.76q1.2-1.007,2.412-1.99l24.43,30.21C1653.474,295.035,1652.854,295.55,1652.237,296.068Zm153.475-1.895c-.611-.492-1.228-.974-1.853-1.454L1827.52,261.9q1.269.975,2.517,1.974Zm-148.69-1.93-23.51-30.93q1.259-.958,2.538-1.888l22.881,31.4C1658.289,291.293,1657.651,291.766,1657.021,292.243Zm143.873-1.734c-.65-.466-1.305-.932-1.967-1.387l22.091-31.962q1.293.895,2.57,1.815ZM1661.943,288.7l-21.895-32.1q1.3-.884,2.615-1.746l21.272,32.51Q1662.932,288.025,1661.943,288.7Zm133.892-1.65q-1-.647-2.016-1.275l20.469-33.023q1.349.835,2.678,1.7Zm-128.781-1.655-20.264-33.148q1.339-.818,2.689-1.608l19.637,33.524Q1668.078,284.77,1667.054,285.394Zm123.573-1.536q-1.024-.594-2.067-1.168l18.772-34.013c.93.513,1.858,1.035,2.776,1.568Zm-118.32-1.5-18.553-34.134q1.367-.745,2.745-1.461l17.947,34.456C1673.733,281.6,1673.017,281.975,1672.307,282.36Zm113-1.4q-1.09-.556-2.184-1.093l17.068-34.9q1.4.685,2.792,1.4Zm-107.588-1.375-16.835-35.015q1.419-.682,2.855-1.338l16.136,35.341Q1678.8,279.072,1677.723,279.587Zm102.065-1.282q-1.094-.493-2.2-.963l15.248-35.735q1.454.622,2.9,1.272Zm-96.542-1.207-15.031-35.826q1.44-.6,2.895-1.182l14.365,36.1Q1684.352,276.636,1683.246,277.1Zm90.935-1.151q-1.126-.437-2.265-.858l13.423-36.458q1.478.542,2.943,1.114Zm-85.279-1.06-13.2-36.541q1.468-.528,2.946-1.032l12.545,36.77C1690.428,274.343,1689.664,274.609,1688.9,274.886Zm79.513-1.021q-1.14-.381-2.286-.739l11.557-37.092q1.514.472,3.016.972Zm-73.734-.909L1683.334,235.8q1.5-.461,3.023-.893l10.627,37.369Q1695.827,272.608,1694.681,272.957Zm67.912-.869q-1.15-.318-2.312-.618l9.651-37.632c1.018.261,2.037.531,3.048.813Zm-62.041-.762-9.466-37.679q1.538-.388,3.093-.746l8.681,37.87Q1701.7,271.036,1700.552,271.325Zm56.143-.715c-.776-.175-1.559-.34-2.342-.5l7.73-38.075q1.549.315,3.088.659Zm-50.221-.615-7.518-38.115q1.546-.3,3.1-.58l6.772,38.257C1708.04,269.694,1707.254,269.843,1706.474,269.995Zm44.243-.564c-.778-.133-1.559-.261-2.344-.378l5.768-38.42q1.573.238,3.134.5Zm-38.238-.464-5.6-38.446c1.038-.151,2.074-.291,3.116-.424l4.866,38.546Q1713.67,268.793,1712.479,268.967Zm32.235-.408q-1.2-.143-2.4-.263l3.866-38.658q1.562.154,3.118.34Zm-26.171-.322-3.687-38.676q1.573-.15,3.155-.268l2.908,38.742Q1719.728,268.126,1718.543,268.237Zm20.054-.254c-.781-.056-1.569-.1-2.356-.14l1.906-38.8c1.065.051,2.125.117,3.183.189Zm-13.983-.17L1722.887,229c1.037-.047,2.072-.082,3.114-.11l1.048,38.837C1726.234,267.75,1725.42,267.778,1724.614,267.813Zm7.907-.1c-.8-.016-1.592-.023-2.391-.023V228.841q1.58,0,3.156.03Z" transform="translate(-1570.209 -228.841)" fill="#dd1a50" opacity="0.25"/>
</svg>
