<svg xmlns="http://www.w3.org/2000/svg" width="395.917" height="395.899" viewBox="0 0 395.917 395.899">
  <path id="Path_473" data-name="Path 473" d="M1761,615.058l-.027-2.237c2.8-.033,5.623-.13,8.388-.282l.122,2.235C1766.69,614.928,1763.835,615.022,1761,615.058Zm-8.48-.074c-2.807-.081-5.656-.229-8.473-.432l.158-2.229c2.789.2,5.608.343,8.379.427Zm25.426-.859-.217-2.224c2.784-.269,5.585-.605,8.325-.991l.313,2.214C1783.6,613.515,1780.766,613.853,1777.949,614.125Zm-42.346-.356c-2.768-.32-5.595-.707-8.4-1.149l.346-2.212c2.776.44,5.572.824,8.31,1.136Zm59.142-2.011-.407-2.2c2.743-.508,5.506-1.08,8.211-1.7l.5,2.181C1800.314,610.663,1797.521,611.242,1794.745,611.758Zm-75.9-.651c-2.73-.557-5.514-1.185-8.275-1.871l.542-2.169c2.728.679,5.481,1.3,8.18,1.843Zm92.435-3.157-.6-2.156c2.674-.737,5.379-1.545,8.038-2.4l.684,2.13C1816.716,606.384,1813.983,607.206,1811.28,607.95Zm-108.895-.941c-2.7-.793-5.422-1.66-8.086-2.573l.724-2.115c2.636.9,5.323,1.757,7.992,2.545Zm125.035-4.276-.777-2.095c2.6-.966,5.219-2,7.776-3.081l.87,2.059C1832.7,600.71,1830.054,601.758,1827.42,602.734Zm-141.106-1.228c-2.618-1.024-5.257-2.125-7.85-3.272l.9-2.044c2.565,1.131,5.176,2.219,7.761,3.231Zm156.7-5.341-.958-2.021c2.529-1.2,5.051-2.456,7.491-3.742l1.042,1.983C1848.123,593.682,1845.573,594.955,1843.016,596.165Zm-172.251-1.535c-2.537-1.256-5.072-2.578-7.53-3.933l1.075-1.96c2.433,1.337,4.94,2.646,7.448,3.887ZM1858,588.272l-1.129-1.929c2.38-1.385,4.782-2.855,7.148-4.372l1.2,1.881C1862.837,585.387,1860.4,586.874,1858,588.272Zm-202.126-1.83c-2.443-1.482-4.85-3.02-7.161-4.563l1.24-1.863c2.286,1.53,4.668,3.048,7.082,4.515Zm216.385-7.316-1.286-1.828c2.285-1.609,4.555-3.282,6.751-4.97l1.366,1.772C1876.869,575.808,1874.571,577.5,1872.26,579.126Zm-230.508-2.113c-2.27-1.663-4.54-3.4-6.741-5.158l1.4-1.746c2.179,1.739,4.421,3.455,6.668,5.1Zm243.951-8.229-1.438-1.711c2.13-1.79,4.25-3.648,6.3-5.526l1.51,1.647C1890,565.1,1887.856,566.977,1885.7,568.784Zm-257.21-2.364c-2.095-1.825-4.207-3.745-6.279-5.71l1.538-1.624c2.052,1.945,4.141,3.844,6.21,5.646Zm269.72-9.085-1.578-1.584c1.955-1.945,3.91-3.981,5.816-6.048l1.645,1.515C1902.168,553.308,1900.188,555.367,1898.212,557.335Zm-282.026-2.6c-1.947-2.013-3.89-4.105-5.765-6.218l1.672-1.484c1.858,2.087,3.775,4.154,5.7,6.149Zm293.527-9.881L1908,543.412c1.787-2.115,3.564-4.309,5.279-6.523l1.767,1.373C1913.315,540.5,1911.52,542.715,1909.713,544.856Zm-304.791-2.8c-1.769-2.174-3.526-4.423-5.214-6.688l1.792-1.337c1.673,2.24,3.406,4.464,5.155,6.609Zm315.185-10.623-1.825-1.292c1.616-2.285,3.2-4.627,4.708-6.955l1.875,1.215C1923.346,526.759,1921.744,529.125,1920.107,531.436Zm-325.321-2.967c-1.571-2.3-3.129-4.7-4.624-7.1l1.9-1.182c1.477,2.385,3.015,4.746,4.568,7.024Zm334.536-11.294-1.925-1.134c1.4-2.392,2.781-4.86,4.093-7.334l1.975,1.047C1932.141,512.256,1930.745,514.753,1929.323,517.175Zm-343.476-3.1c-1.393-2.476-2.735-4.988-3.994-7.469l2-1.012c1.243,2.453,2.573,4.934,3.95,7.382Zm351.44-11.915-2.021-.964c1.2-2.5,2.359-5.082,3.452-7.659l2.06.875C1939.671,497.019,1938.5,499.627,1937.286,502.159Zm-359.1-3.185c-1.167-2.57-2.29-5.188-3.335-7.779l2.075-.836c1.035,2.563,2.142,5.148,3.3,7.69Zm365.747-12.466-2.094-.783c.976-2.608,1.909-5.28,2.779-7.941l2.125.7C1945.864,481.172,1944.918,483.871,1943.931,486.507Zm-372.092-3.246c-.928-2.618-1.823-5.331-2.659-8.056l2.138-.656c.829,2.695,1.713,5.374,2.631,7.962Zm377.354-12.9-2.156-.6c.753-2.7,1.449-5.43,2.077-8.125l2.179.506C1950.661,464.862,1949.954,467.627,1949.194,470.358Zm-382.324-3.32c-.706-2.717-1.365-5.5-1.954-8.257l2.189-.468c.585,2.728,1.232,5.476,1.932,8.163Zm386.171-13.209-2.2-.412c.513-2.74.973-5.521,1.367-8.275l2.215.318C1954.026,448.241,1953.561,451.061,1953.04,453.829Zm-389.724-3.378c-.481-2.819-.9-5.643-1.236-8.4l2.219-.275c.336,2.72.75,5.509,1.22,8.3Zm392.126-13.41-2.224-.224c.277-2.761.5-5.572.658-8.363l2.232.13C1955.948,431.4,1955.722,434.25,1955.442,437.041ZM1561.2,433.617c-.229-2.771-.4-5.621-.519-8.47l2.235-.089c.114,2.817.287,5.633.514,8.376Zm395.215-13.511-2.24-.036q.024-1.472.023-2.954,0-2.726-.074-5.435l2.234-.061q.08,2.742.076,5.5Q1956.436,418.615,1956.416,420.106Zm-393.657-3.437-2.24,0c.007-2.812.076-5.664.2-8.483l2.234.1C1562.83,411.069,1562.766,413.893,1562.759,416.669ZM1953.718,403.3c-.2-2.791-.455-5.6-.764-8.356l2.224-.249c.313,2.786.572,5.626.77,8.445ZM1563.5,399.914l-2.23-.193c.244-2.776.552-5.615.916-8.435l2.222.287C1564.048,394.362,1563.743,397.169,1563.5,399.914Zm388.336-13.28c-.432-2.761-.928-5.539-1.475-8.257l2.194-.442c.552,2.751,1.052,5.562,1.489,8.351Zm-386.168-3.353-2.207-.384c.478-2.735,1.027-5.534,1.635-8.323l2.184.475C1566.684,377.808,1566.143,380.576,1565.672,383.281Zm382.863-13.1c-.651-2.661-1.383-5.387-2.174-8.1l2.144-.625c.8,2.74,1.545,5.5,2.2,8.191ZM1569.262,366.9l-2.166-.569c.717-2.7,1.507-5.448,2.349-8.152l2.135.664C1570.749,361.513,1569.969,364.228,1569.262,366.9Zm374.563-12.807c-.885-2.618-1.851-5.27-2.865-7.88l2.084-.811c1.027,2.641,2,5.323,2.9,7.972Zm-369.568-3.231-2.108-.755c.949-2.629,1.973-5.3,3.053-7.941l2.069.849C1576.2,345.62,1575.19,348.261,1574.257,350.859Zm363.5-12.382c-1.11-2.532-2.3-5.087-3.528-7.591l2.005-.986c1.246,2.535,2.448,5.115,3.572,7.677Zm-357.137-3.17-2.028-.941c1.179-2.562,2.435-5.133,3.722-7.636l1.99,1.022C1583.032,330.23,1581.792,332.77,1580.622,335.307Zm349.752-11.851c-1.339-2.448-2.743-4.894-4.168-7.265l1.916-1.152c1.442,2.395,2.863,4.866,4.215,7.344Zm-342.065-3.094-1.947-1.108c1.39-2.438,2.857-4.891,4.367-7.288l1.891,1.192C1591.131,315.524,1589.68,317.95,1588.31,320.362Zm333.417-11.256c-1.527-2.308-3.137-4.624-4.777-6.881l1.808-1.317c1.66,2.285,3.287,4.627,4.835,6.963Zm-324.484-2.964-1.843-1.271c1.6-2.313,3.266-4.629,4.967-6.887l1.787,1.35C1600.471,301.561,1598.821,303.854,1597.242,306.142Zm314.634-10.593c-1.713-2.163-3.513-4.334-5.349-6.454l1.693-1.464c1.856,2.146,3.676,4.342,5.41,6.531Zm-304.524-2.807-1.729-1.421c1.8-2.184,3.664-4.35,5.537-6.434l1.663,1.495C1610.972,288.444,1609.132,290.584,1607.352,292.742Zm293.549-9.873c-1.891-2.008-3.874-4.022-5.883-5.976l1.562-1.6c2.031,1.98,4.034,4.014,5.948,6.048Zm-282.339-2.611-1.6-1.563c1.983-2.026,4.021-4.024,6.063-5.938l1.531,1.632C1622.541,276.28,1620.525,278.255,1618.563,280.258Zm270.319-9.093c-2.066-1.851-4.212-3.689-6.373-5.458l1.421-1.731c2.181,1.79,4.352,3.65,6.447,5.524Zm-258.09-2.384-1.459-1.7c2.125-1.83,4.324-3.645,6.541-5.4l1.386,1.754C1635.068,265.173,1632.9,266.971,1630.793,268.781Zm245.116-8.257c-2.232-1.678-4.528-3.325-6.821-4.9l1.266-1.846c2.319,1.591,4.639,3.259,6.9,4.955Zm-231.96-2.135-1.312-1.813c2.29-1.655,4.637-3.277,6.973-4.817l1.233,1.866C1648.531,255.147,1646.213,256.751,1643.948,258.389Zm218.116-7.364c-2.344-1.467-4.769-2.913-7.215-4.3l1.1-1.947c2.474,1.4,4.929,2.865,7.3,4.349Zm-204.129-1.863-1.154-1.917c2.41-1.446,4.883-2.86,7.357-4.2l1.068,1.965C1662.76,246.337,1660.314,247.732,1657.935,249.161Zm189.515-6.419c-2.476-1.269-5.021-2.5-7.563-3.663l.933-2.034c2.57,1.177,5.143,2.423,7.649,3.7Zm-174.8-1.571-.984-2.011c2.512-1.228,5.1-2.423,7.68-3.554l.9,2.051C1677.689,238.774,1675.134,239.956,1672.651,241.171Zm159.521-5.427c-2.58-1.05-5.221-2.059-7.852-3l.75-2.107c2.661.951,5.335,1.973,7.946,3.033Zm-144.187-1.266-.806-2.09c2.621-1.009,5.3-1.983,7.98-2.885l.715,2.12C1693.227,232.518,1690.572,233.476,1687.985,234.478Zm128.347-4.39c-2.636-.816-5.346-1.589-8.064-2.3l.567-2.166c2.748.719,5.494,1.5,8.158,2.331Zm-112.455-.971-.62-2.151c2.685-.778,5.443-1.515,8.193-2.186l.531,2.174C1709.262,227.617,1706.537,228.344,1703.877,229.116Zm96.231-3.284c-2.722-.59-5.493-1.126-8.234-1.6l.376-2.2c2.776.478,5.577,1.019,8.33,1.617Zm-79.933-.689-.437-2.194c2.746-.544,5.557-1.04,8.353-1.472l.343,2.212C1725.666,224.116,1722.888,224.6,1720.175,225.143Zm63.4-2.151c-2.755-.356-5.562-.653-8.34-.89l.188-2.229c2.811.239,5.651.541,8.437.9Zm-46.825-.4-.247-2.224c2.8-.308,5.641-.562,8.452-.75l.15,2.232C1742.329,222.034,1739.515,222.283,1736.752,222.588Zm30.116-1.017c-4.443-.186-8.951-.224-13.384-.112l-.053-2.237c4.469-.114,9.037-.074,13.531.114Z" transform="translate(-1560.52 -219.159)" fill="#dd1a50"/>
</svg>
