<svg xmlns="http://www.w3.org/2000/svg" width="219.656" height="219.666" viewBox="0 0 219.656 219.666">
  <g id="Ellipse_8" data-name="Ellipse 8" transform="translate(0 0)">
    <path id="Path_480" data-name="Path 480" d="M1680.352,448.507l-.066-26.682c.55,0,1.1-.008,1.641-.019l.594,26.672C1681.8,448.5,1681.077,448.5,1680.352,448.507Zm-3.342-.042q-1.085-.027-2.167-.08l1.25-26.65c.546.026,1.09.045,1.639.061Zm8.885-.114-1.443-26.642c.557-.029,1.115-.064,1.669-.1l1.908,26.613Q1686.963,448.293,1685.9,448.352Zm-14.386-.17q-1.1-.086-2.2-.194l2.628-26.549c.531.053,1.066.1,1.6.138Zm19.846-.254-2.689-26.544c.544-.054,1.087-.117,1.629-.182l3.22,26.485Q1692.439,447.818,1691.356,447.928Zm-25.365-.31c-.722-.094-1.442-.192-2.157-.3l3.947-26.387q.806.122,1.618.224Zm30.838-.389-4-26.379c.53-.078,1.056-.166,1.583-.259l4.6,26.282Q1697.921,447.061,1696.829,447.228Zm-36.289-.446q-1.061-.192-2.113-.4l5.2-26.17q.814.161,1.631.309Zm41.754-.533-5.382-26.133c.533-.109,1.066-.224,1.6-.344l5.914,26.014Q1703.361,446.029,1702.295,446.249Zm-47.17-.581c-.695-.16-1.391-.33-2.082-.5l6.5-25.875c.539.135,1.078.266,1.621.392Zm52.54-.671-6.671-25.83q.787-.2,1.564-.424l7.228,25.685C1709.08,444.625,1708.376,444.815,1707.664,445Zm-57.893-.714q-1.037-.3-2.066-.615l7.823-25.506c.527.16,1.056.318,1.588.471Zm63.225-.813-8-25.453q.792-.25,1.576-.511l8.477,25.3Q1714.026,443.147,1713,443.471Zm-68.51-.847q-1.023-.35-2.039-.719l9.1-25.078c.52.187,1.043.373,1.568.552Zm73.734-.943-9.259-25.022c.506-.187,1.013-.381,1.517-.579l9.783,24.822Q1719.249,441.3,1718.221,441.681ZM1639.3,440.7q-1.025-.408-2.039-.839l10.415-24.561c.5.208,1,.415,1.5.615Zm84.031-1.063-10.486-24.534c.494-.211.989-.43,1.48-.653l11,24.307Q1724.332,439.208,1723.331,439.639Zm-89.136-1.127c-.666-.307-1.332-.621-1.991-.941l11.668-23.995c.485.237.971.466,1.463.691Zm94.177-1.191L1716.6,413.38c.491-.242.978-.485,1.463-.736l12.246,23.7Q1729.343,436.844,1728.372,437.322Zm-99.161-1.258q-.944-.495-1.879-1l12.763-23.43q.742.406,1.49.8Zm104.039-1.29L1720.3,411.445q.711-.394,1.41-.8l13.434,23.051Q1734.2,434.245,1733.25,434.774Zm-108.88-1.4c-.62-.366-1.239-.738-1.852-1.116l13.988-22.721c.469.29.941.573,1.418.855Zm113.614-1.389-14.063-22.671q.689-.427,1.365-.871l14.541,22.372C1739.216,431.213,1738.6,431.605,1737.984,431.988Zm-118.3-1.533q-.915-.6-1.816-1.223l15.145-21.965q.669.461,1.351.907Zm122.946-1.519-15.25-21.89c.454-.319.907-.639,1.357-.965l15.639,21.618C1743.795,428.115,1743.212,428.529,1742.627,428.936Zm-127.494-1.647c-.573-.422-1.146-.848-1.711-1.28l16.166-21.224q.667.506,1.343,1.005Zm131.938-1.608-16.319-21.106c.444-.341.88-.687,1.316-1.035l16.683,20.821Q1747.919,425.028,1747.071,425.681Zm-136.3-1.762c-.557-.455-1.112-.914-1.661-1.378l17.223-20.376c.421.354.844.707,1.274,1.056Zm140.555-1.692-17.292-20.319c.411-.349.819-.706,1.224-1.066l17.716,19.949Q1752.153,421.519,1751.323,422.227Zm-144.755-1.9q-.8-.72-1.592-1.461l18.233-19.48c.4.378.806.749,1.215,1.119Zm148.884-1.808-18.329-19.386c.4-.374.792-.757,1.184-1.143l18.7,19.03C1756.494,417.522,1755.974,418.023,1755.452,418.516Zm-152.9-1.993q-.759-.754-1.5-1.522l19.158-18.566q.583.6,1.175,1.191Zm156.8-1.884-19.254-18.47q.564-.588,1.114-1.186l19.637,18.061C1760.361,413.58,1759.863,414.11,1759.357,414.639Zm-160.619-2.111c-.48-.527-.952-1.058-1.423-1.594l20.071-17.579q.552.629,1.114,1.25Zm164.344-1.976-20.163-17.47q.53-.617,1.053-1.244l20.524,17.049Q1763.8,409.728,1763.081,410.552Zm-167.943-2.185q-.694-.847-1.371-1.7l20.969-16.5q.5.636,1.018,1.263Zm171.458-2.084-21.018-16.436q.509-.648,1-1.306l21.337,16.02Q1767.261,405.426,1766.6,406.284Zm-174.847-2.257q-.643-.869-1.269-1.748l21.724-15.489q.478.67.968,1.332Zm178.149-2.193L1748.068,386.5q.48-.687.947-1.378l22.1,14.951Q1770.513,400.958,1769.9,401.835Zm-181.33-2.332q-.6-.9-1.184-1.816l22.5-14.341c.291.459.592.917.893,1.372Zm184.393-2.265L1750.4,383q.439-.7.871-1.408l22.83,13.8Q1773.537,396.326,1772.961,397.238Zm-187.324-2.383c-.371-.623-.739-1.251-1.1-1.885l23.183-13.2c.269.471.539.936.818,1.4Zm190.157-2.357-23.247-13.1q.406-.718.794-1.442l23.5,12.634Q1776.324,391.55,1775.793,392.5Zm-192.864-2.455q-.506-.955-1-1.922l23.812-12.037q.367.73.752,1.453Zm195.457-2.439L1754.508,375.7c.248-.5.49-1,.728-1.495l24.094,11.459Q1778.867,386.637,1778.386,387.6Zm-197.923-2.513c-.3-.642-.591-1.285-.88-1.93l24.369-10.865c.226.511.459,1.02.694,1.527Zm200.269-2.508L1756.285,371.9c.219-.5.434-1.007.645-1.517l24.653,10.2Q1781.167,381.588,1780.732,382.583Zm-202.47-2.533q-.408-1-.8-2.016l24.906-9.567q.3.768.6,1.528Zm204.558-2.6-24.955-9.433q.286-.759.556-1.522l25.157,8.885C1783.334,376.075,1783.08,376.764,1782.821,377.449Zm-206.511-2.562q-.36-1.037-.7-2.082l25.368-8.26c.168.512.339,1.023.519,1.53Zm208.339-2.682-25.406-8.14c.163-.517.325-1.035.48-1.554l25.571,7.605C1785.085,370.817,1784.872,371.512,1784.648,372.2Zm-210.033-2.6q-.3-1.018-.578-2.042l25.726-7.071q.224.816.461,1.626Zm211.59-2.713-25.8-6.827q.211-.79.4-1.584l25.927,6.3Q1786.481,365.838,1786.205,366.89Zm-213.01-2.634q-.244-1.027-.47-2.058l26.046-5.773c.125.552.25,1.1.381,1.655Zm214.283-2.714-26.091-5.574q.166-.785.315-1.572l26.213,4.979Q1787.706,360.462,1787.478,361.541Zm-215.428-2.689q-.2-1.071-.376-2.149L1598,352.381q.133.807.28,1.607Zm216.44-2.769-26.347-4.2q.13-.809.243-1.62l26.426,3.673C1788.71,354.652,1788.6,355.369,1788.489,356.084Zm-217.31-2.681q-.142-1.075-.267-2.162l26.511-3.01c.061.543.128,1.082.2,1.621Zm218.045-2.817-26.528-2.831c.058-.551.112-1.106.163-1.661l26.575,2.357Q1789.34,349.522,1789.224,350.587Zm-218.64-2.668q-.094-1.1-.162-2.2l26.629-1.634q.053.8.117,1.6Zm219.095-2.829-26.637-1.514c.031-.555.059-1.112.082-1.671l26.659,1.048Q1789.739,344.023,1789.678,345.089Zm-219.417-2.673c-.027-.731-.043-1.466-.053-2.2l26.679-.328q.01.8.037,1.6Zm219.6-2.858-26.679-.155v-.728l0-.928,26.679-.341c0,.44.008.883,0,1.325Zm-192.97-2.258-26.678-.394q.016-1.1.056-2.2l26.663.984Q1596.9,336.494,1596.891,337.3Zm166.221-2.145c-.021-.536-.048-1.072-.082-1.605l26.629-1.645c.045.731.083,1.466.112,2.2Zm-166.051-2.017-26.622-1.77c.049-.712.1-1.421.161-2.132l26.588,2.233C1597.141,332.025,1597.1,332.582,1597.06,333.139ZM1762.836,331c-.05-.546-.1-1.087-.165-1.626l26.516-2.959q.12,1.08.221,2.169Zm-165.4-2.036-26.5-3.081q.125-1.083.272-2.157l26.434,3.617Q1597.533,328.148,1597.437,328.96Zm164.91-2.125q-.113-.811-.246-1.616l26.338-4.27q.173,1.073.325,2.151Zm-164.32-2.028-26.317-4.387q.18-1.095.387-2.18l26.21,4.992Q1598.158,324.018,1598.027,324.807Zm163.643-2.039q-.166-.833-.341-1.664l26.086-5.585c.149.688.288,1.376.426,2.068ZM1598.826,320.7l-26.067-5.7c.157-.714.32-1.421.49-2.129l25.941,6.238Q1599,319.9,1598.826,320.7Zm161.946-2.015q-.206-.821-.424-1.639l25.773-6.9c.182.68.357,1.365.53,2.053Zm-160.946-2.044-25.744-7.008q.288-1.061.6-2.111l25.584,7.564Q1600.038,315.859,1599.826,316.639Zm159.83-2.018c-.16-.527-.322-1.052-.491-1.572l25.38-8.221q.334,1.03.648,2.066Zm-158.633-1.954-25.338-8.359c.226-.685.458-1.365.695-2.045l25.179,8.826C1601.374,311.614,1601.2,312.139,1601.023,312.667Zm157.319-2.026c-.186-.52-.378-1.037-.573-1.554l24.95-9.455q.382,1.008.746,2.023Zm-155.9-1.936-24.889-9.6c.261-.679.528-1.351.8-2.021l24.7,10.091C1602.841,307.678,1602.636,308.19,1602.438,308.7Zm154.389-1.98c-.2-.491-.413-.978-.624-1.463l24.414-10.756q.446,1.008.866,2.029Zm-152.782-1.882-24.364-10.871c.294-.663.6-1.322.9-1.975l24.147,11.35C1604.5,303.842,1604.269,304.343,1604.045,304.842Zm151.107-1.879q-.358-.752-.73-1.495l23.862-11.931q.48.953.939,1.917Zm-149.309-1.889-23.771-12.117q.483-.948.983-1.887l23.569,12.5C1606.359,300.073,1606.1,300.571,1605.842,301.075Zm147.426-1.823c-.262-.483-.53-.967-.8-1.444l23.211-13.154c.355.624.7,1.251,1.043,1.882Zm-145.435-1.864-23.129-13.3q.535-.929,1.085-1.849l22.89,13.707Q1608.25,296.661,1607.833,297.388Zm143.34-1.791q-.42-.691-.853-1.376l22.527-14.293q.583.922,1.151,1.857Zm-141.15-1.813-22.46-14.4q.6-.924,1.2-1.833l22.15,14.876Q1610.46,293.1,1610.022,293.784Zm138.892-1.706q-.454-.67-.92-1.332l21.786-15.4q.631.893,1.242,1.8Zm-136.546-1.749L1590.677,274.8q.632-.883,1.282-1.754L1613.341,289Q1612.847,289.66,1612.369,290.328ZM1746.5,288.7q-.49-.651-.993-1.29l20.967-16.5c.449.57.891,1.147,1.331,1.728Zm-131.611-1.708-20.877-16.611q.672-.847,1.36-1.68l20.556,17.011Q1615.4,286.343,1614.887,286.99Zm129.016-1.56c-.358-.427-.718-.853-1.085-1.276l20.165-17.47q.7.807,1.384,1.626Zm-126.334-1.647-20.008-17.648q.7-.8,1.428-1.592l19.7,17.993Q1618.124,283.153,1617.57,283.783Zm123.561-1.511q-.559-.6-1.13-1.2l19.256-18.467c.5.519.994,1.043,1.481,1.572Zm-120.7-1.576-19.128-18.6q.761-.783,1.54-1.551l18.733,19Q1620.992,280.114,1620.427,280.7Zm117.81-1.405q-.6-.586-1.209-1.16l18.3-19.416q.778.735,1.542,1.482Zm-114.8-1.533-18.2-19.51q.81-.754,1.631-1.487l17.751,19.919Q1624.017,277.212,1623.432,277.757Zm111.732-1.336c-.413-.363-.829-.727-1.248-1.083l17.3-20.312q.824.7,1.631,1.415Zm-108.624-1.413-17.152-20.437q.823-.691,1.657-1.367l16.777,20.746C1627.39,274.3,1626.964,274.652,1626.54,275.008Zm105.4-1.3c-.419-.338-.844-.669-1.272-1l16.249-21.162q.871.67,1.729,1.356Zm-102.11-1.325-16.145-21.24q.864-.658,1.743-1.3l15.713,21.562C1630.7,271.729,1630.258,272.053,1629.826,272.381Zm98.8-1.191c-.446-.32-.9-.64-1.351-.952l15.17-21.949q.888.615,1.765,1.247Zm-95.422-1.244-15.036-22.041q.893-.607,1.8-1.2l14.609,22.326Q1633.885,269.485,1633.206,269.947Zm91.948-1.133q-.687-.444-1.384-.875l14.056-22.678q.926.574,1.839,1.165Zm-88.438-1.136L1622.8,244.914q.92-.562,1.847-1.1l13.485,23.022Q1637.419,267.249,1636.715,267.678Zm84.861-1.055q-.7-.408-1.42-.8l12.891-23.358q.958.528,1.906,1.077Zm-81.254-1.029-12.741-23.441q.939-.511,1.885-1l12.325,23.662C1641.3,265.069,1640.811,265.33,1640.323,265.594Zm77.6-.96q-.749-.382-1.5-.751l11.722-23.966q.965.47,1.917.959Zm-73.884-.944-11.561-24.046q.974-.468,1.96-.919L1645.522,263Q1644.78,263.336,1644.042,263.69Zm70.091-.88q-.751-.338-1.509-.661l10.471-24.54q1,.427,1.991.874Zm-66.3-.829-10.322-24.6q.989-.415,1.988-.811l9.865,24.79Q1648.594,261.664,1647.835,261.98Zm62.448-.791q-.773-.3-1.556-.589l9.218-25.037q1.015.372,2.021.765Zm-58.563-.728-9.065-25.094q1.008-.363,2.023-.709l8.615,25.251C1652.767,260.089,1652.242,260.271,1651.719,260.462Zm54.6-.7q-.783-.262-1.57-.507l7.937-25.472q1.039.324,2.071.667Zm-50.635-.624L1647.9,233.62q1.03-.317,2.076-.613l7.3,25.662Q1656.474,258.9,1655.688,259.137Zm46.637-.6q-.79-.218-1.588-.424l6.627-25.843c.7.179,1.4.365,2.094.559Zm-42.606-.523-6.5-25.875q1.056-.266,2.124-.512l5.962,26.006Q1660.509,257.818,1659.719,258.016Zm38.555-.491c-.533-.12-1.071-.234-1.609-.343l5.309-26.147q1.064.216,2.121.453Zm-34.489-.423-5.163-26.175q1.061-.209,2.129-.4L1665.4,256.8C1664.862,256.9,1664.322,257,1663.786,257.1Zm30.383-.387c-.534-.091-1.071-.179-1.61-.259l3.961-26.384q1.08.163,2.152.346Zm-26.259-.318-3.842-26.4q1.069-.156,2.14-.291l3.342,26.471Q1668.728,256.277,1667.91,256.4Zm22.137-.28q-.826-.1-1.65-.181l2.655-26.547q1.073.106,2.141.234Zm-17.973-.221-2.532-26.56q1.08-.1,2.167-.184l2,26.605Q1672.888,255.819,1672.074,255.9Zm13.772-.174c-.536-.038-1.077-.069-1.618-.1l1.309-26.648c.731.035,1.46.08,2.186.13Zm-9.6-.117-1.186-26.653c.712-.032,1.423-.056,2.138-.075l.72,26.671C1677.356,255.561,1676.8,255.58,1676.244,255.6Zm5.43-.067c-.547-.011-1.093-.016-1.642-.016v-26.68q1.085,0,2.167.021Z" transform="translate(-1570.209 -228.841)" fill="#fff" opacity="0.25"/>
    <g id="Polygon_1" data-name="Polygon 1" transform="translate(148.543 75.332) rotate(90)" fill="rgba(255,255,255,0.25)">
      <path d="M 59.63988494873047 63.5 L 10.360107421875 63.5 C 7.291974067687988 63.5 4.542251586914062 61.91491317749023 3.004618406295776 59.25989151000977 C 1.466974020004272 56.6048698425293 1.46057391166687 53.43101119995117 2.987496137619019 50.76981353759766 L 27.62737464904785 7.826001644134521 C 28.40272903442383 6.474679470062256 29.51917457580566 5.367634773254395 30.85602951049805 4.624568462371826 C 32.11346435546875 3.925634860992432 33.54641723632812 3.556201696395874 34.99999618530273 3.556201696395874 C 36.45357513427734 3.556201696395874 37.88652801513672 3.925634860992432 39.14396286010742 4.624568462371826 C 40.48081970214844 5.367634773254395 41.59726333618164 6.474679470062256 42.37261962890625 7.826001644134521 L 67.01251983642578 50.76981353759766 C 68.5394287109375 53.43101119995117 68.53302001953125 56.60488128662109 66.99537658691406 59.25990295410156 C 65.45774078369141 61.91491317749023 62.7080192565918 63.5 59.63988494873047 63.5 Z" stroke="none"/>
      <path d="M 35 6.056190490722656 C 32.97434616088867 6.056190490722656 30.94868850708008 7.060855865478516 29.79579544067383 9.070182800292969 L 5.155914306640625 52.01398086547852 C 2.86083984375 56.01395416259766 5.74847412109375 60.99999618530273 10.36011505126953 60.99999618530273 L 59.63988876342773 60.99999618530273 C 64.25151824951172 60.99999618530273 67.13915252685547 56.01395416259766 64.84408569335938 52.01398086547852 L 40.20419692993164 9.070182800292969 C 39.05130767822266 7.060855865478516 37.02565765380859 6.056190490722656 35 6.056190490722656 M 34.99999618530273 1.056198120117188 C 36.87757110595703 1.056198120117188 38.73051452636719 1.534515380859375 40.35854339599609 2.439434051513672 C 42.09300994873047 3.403514862060547 43.53929138183594 4.835929870605469 44.54103851318359 6.581836700439453 L 69.18093109130859 49.525634765625 C 70.17829132080078 51.26388931274414 70.68515777587891 53.22700881958008 70.646728515625 55.20275497436523 C 70.61064910888672 57.05809020996094 70.09611511230469 58.8942756652832 69.15875244140625 60.51279449462891 C 68.22141265869141 62.13131332397461 66.88482666015625 63.49142074584961 65.29351806640625 64.44606018066406 C 63.59894180297852 65.462646484375 61.64395523071289 65.99999237060547 59.63988876342773 65.99999237060547 L 10.36011505126953 65.99999237060547 C 8.356048583984375 65.99999237060547 6.401050567626953 65.462646484375 4.706474304199219 64.44606018066406 C 3.115165710449219 63.49140930175781 1.778579711914062 62.13130187988281 0.8412246704101562 60.51278305053711 C -0.09612274169921875 58.89426040649414 -0.61065673828125 57.05807495117188 -0.6467361450195312 55.20272827148438 C -0.685150146484375 53.22699356079102 -0.1782684326171875 51.26387405395508 0.819091796875 49.52561950683594 L 25.45895767211914 6.581836700439453 C 26.46070098876953 4.835929870605469 27.906982421875 3.403514862060547 29.64144897460938 2.439434051513672 C 31.26947784423828 1.534515380859375 33.12242126464844 1.056198120117188 34.99999618530273 1.056198120117188 Z" stroke="none" fill="#fff"/>
    </g>
  </g>
</svg>
