<svg xmlns="http://www.w3.org/2000/svg" width="362.841" height="362.838" viewBox="0 0 362.841 362.838">
  <g id="Group_30" data-name="Group 30" transform="translate(0.5 0.5)">
    <path id="Union_4" data-name="Union 4" d="M180.92,353.677c95.26,0,172.76-77.5,172.76-172.759h8.161c0,99.761-81.16,180.92-180.921,180.92ZM0,180.918C0,81.16,81.161,0,180.92,0V8.16C85.663,8.16,8.161,85.658,8.161,180.918Z" transform="translate(0 0)" fill="#fff" stroke="rgba(0,0,0,0)" stroke-miterlimit="10" stroke-width="1"/>
    <g id="Group_29" data-name="Group 29" transform="translate(3.164 3.16)">
      <path id="Path_475" data-name="Path 475" d="M177.756,355.516a177.28,177.28,0,0,1-125.751-52c-69.341-69.338-69.341-182.166,0-251.506s182.166-69.343,251.5,0,69.343,182.168,0,251.506A177.279,177.279,0,0,1,177.756,355.516Zm0-353.511A175.293,175.293,0,0,0,53.422,53.422c-68.559,68.559-68.559,180.114,0,248.673s180.109,68.557,248.67,0,68.562-180.114,0-248.673A175.293,175.293,0,0,0,177.756,2.005Z" transform="translate(0 0)" fill="#fff" opacity="0.4"/>
    </g>
  </g>
</svg>
