<svg xmlns="http://www.w3.org/2000/svg" width="92.771" height="103.23" viewBox="0 0 92.771 103.23">
  <g id="Polygon_2" data-name="Polygon 2" transform="translate(93.827 0.649) rotate(90)" fill="rgba(221,26,80,0.25)">
    <path d="M 91.57199859619141 91.32656097412109 L 10.36011028289795 91.32656097412109 C 7.291967391967773 91.32654571533203 4.542238712310791 89.74146270751953 3.004610061645508 87.08643341064453 C 1.466981530189514 84.43141937255859 1.460581541061401 81.25756072998047 2.987495899200439 78.59637451171875 L 43.59343719482422 7.826016426086426 C 44.36878204345703 6.474687576293945 45.48522567749023 5.367644786834717 46.82208251953125 4.62455940246582 C 48.07950973510742 3.925630569458008 49.51248168945312 3.556202173233032 50.9660530090332 3.556202173233032 C 52.41962432861328 3.556202173233032 53.85259628295898 3.925630569458008 55.11002349853516 4.62455940246582 C 56.44688034057617 5.367644786834717 57.56332397460938 6.474687576293945 58.33866882324219 7.826016426086426 L 98.94462585449219 78.59637451171875 C 100.4715423583984 81.25757598876953 100.4651412963867 84.43142700195312 98.92749786376953 87.08645629882812 C 97.38985443115234 89.74147033691406 94.64013671875 91.32656097412109 91.57199859619141 91.32656097412109 Z" stroke="none"/>
    <path d="M 50.9660530090332 6.056190490722656 C 48.94039916992188 6.056190490722656 46.91474533081055 7.06085205078125 45.7618522644043 9.070175170898438 L 5.155921936035156 79.84054565429688 C 2.86083984375 83.84051513671875 5.748466491699219 88.82654571533203 10.36012268066406 88.82654571533203 L 91.57200622558594 88.82654571533203 C 96.18363952636719 88.82654571533203 99.07126617431641 83.84051513671875 96.77619934082031 79.84054565429688 L 56.17025375366211 9.070175170898438 C 55.01736068725586 7.06085205078125 52.99170684814453 6.056190490722656 50.9660530090332 6.056190490722656 M 50.9660530090332 1.056198120117188 C 52.84362030029297 1.056198120117188 54.69657135009766 1.534515380859375 56.32460403442383 2.439430236816406 C 58.05905151367188 3.403511047363281 59.50533676147461 4.835929870605469 60.50708770751953 6.581825256347656 L 101.113037109375 77.35219573974609 C 102.1104049682617 79.09044647216797 102.6172714233398 81.05355834960938 102.5788345336914 83.029296875 C 102.5427703857422 84.8846435546875 102.0282363891602 86.7208251953125 101.0908889770508 88.33934783935547 C 100.1535186767578 89.95786285400391 98.81693267822266 91.31796264648438 97.22563934326172 92.27261352539062 C 95.53105163574219 93.28919219970703 93.57607269287109 93.82654571533203 91.57200622558594 93.82654571533203 L 10.36012268066406 93.82654571533203 C 8.356056213378906 93.82654571533203 6.401054382324219 93.28919219970703 4.706466674804688 92.27261352539062 C 3.115150451660156 91.31796264648438 1.778572082519531 89.95786285400391 0.841217041015625 88.33932495117188 C -0.09613037109375 86.72080993652344 -0.6106643676757812 84.88462829589844 -0.646728515625 83.02928161621094 C -0.685150146484375 81.05354309082031 -0.1782608032226562 79.09043121337891 0.8190994262695312 77.35218048095703 L 41.42501831054688 6.581825256347656 C 42.42675399780273 4.835945129394531 43.8730354309082 3.403511047363281 45.60750198364258 2.439430236816406 C 47.23553466796875 1.534515380859375 49.08848571777344 1.056198120117188 50.9660530090332 1.056198120117188 Z" stroke="none" fill="#dd1a50"/>
  </g>
</svg>
