<svg xmlns="http://www.w3.org/2000/svg" width="15.83" height="9.234" viewBox="0 0 15.83 9.234">
  <path id="vk_x5F_alt_1_" d="M51.321,94.86h.946a.787.787,0,0,0,.434-.192.687.687,0,0,0,.128-.423s-.02-1.3.572-1.492,1.33,1.26,2.119,1.814a1.48,1.48,0,0,0,1.054.333l2.119-.03s1.1-.071.581-.958A7.219,7.219,0,0,0,57.7,92.048c-1.33-1.26-1.153-1.058.453-3.236.976-1.331,1.36-2.137,1.242-2.49-.118-.333-.828-.242-.828-.242l-2.385.02a.54.54,0,0,0-.305.06.671.671,0,0,0-.207.262,14.233,14.233,0,0,1-.877,1.905c-1.064,1.845-1.488,1.945-1.655,1.824-.4-.262-.305-1.068-.305-1.643,0-1.784.266-2.53-.512-2.722a3.893,3.893,0,0,0-1.114-.111,4.9,4.9,0,0,0-1.981.212c-.276.131-.483.444-.355.454a1.051,1.051,0,0,1,.7.363,2.365,2.365,0,0,1,.236,1.1s.138,2.107-.325,2.369c-.325.181-.759-.192-1.7-1.865a15.735,15.735,0,0,1-.847-1.8.674.674,0,0,0-.2-.272,1.013,1.013,0,0,0-.365-.151l-2.266.01s-.345.01-.463.161c-.108.131-.01.413-.01.413a26.442,26.442,0,0,0,3.784,6.381,5.332,5.332,0,0,0,3.912,1.814Z" transform="translate(-43.584 -85.675)" fill="#fff" fill-rule="evenodd"/>
</svg>
