<svg xmlns="http://www.w3.org/2000/svg" width="48.75" height="64" viewBox="0 0 48.75 64">
  <g id="hourglass" transform="translate(-61)">
    <g id="Group_57" data-name="Group 57" transform="translate(61)">
      <g id="Group_56" data-name="Group 56">
        <path id="Path_501" data-name="Path 501" d="M157.635,336.109l-.063.067a2.127,2.127,0,0,0,1.563,3.573h20.479a2.127,2.127,0,0,0,1.563-3.573l-.063-.067c-1.9-2.033-9.059-8.072-9.151-8.151a3.977,3.977,0,0,0-5.179,0C166.694,328.037,159.537,334.076,157.635,336.109Z" transform="translate(-145 -286.124)" fill="#fff"/>
        <path id="Path_502" data-name="Path 502" d="M95.141,30.113c.6-.518,1.277-1.091,2-1.7,5.322-4.474,12.61-10.6,12.61-17.04V7.5a7.509,7.509,0,0,0-7.5-7.5H68.5A7.509,7.509,0,0,0,61,7.5v3.875c0,6.44,7.288,12.567,12.61,17.04.722.607,1.4,1.179,2,1.7a2.444,2.444,0,0,1,0,3.774c-.6.518-1.277,1.091-2,1.7C68.288,40.058,61,46.185,61,52.625V56.5A7.509,7.509,0,0,0,68.5,64h33.75a7.509,7.509,0,0,0,7.5-7.5,2.5,2.5,0,0,0-5,0,2.5,2.5,0,0,1-2.5,2.5H68.5A2.5,2.5,0,0,1,66,56.5V52.625c0-4.111,6.778-9.809,10.828-13.213.738-.62,1.435-1.207,2.063-1.753a7.442,7.442,0,0,0,0-11.319c-.628-.546-1.325-1.132-2.063-1.753C72.778,21.184,66,15.486,66,11.375V7.5A2.5,2.5,0,0,1,68.5,5h33.75a2.5,2.5,0,0,1,2.5,2.5v3.875c0,4.111-6.778,9.809-10.828,13.213-.738.62-1.435,1.207-2.063,1.753a7.442,7.442,0,0,0,0,11.319c.654.569,1.383,1.179,2.155,1.826a69.578,69.578,0,0,1,7.365,6.8,2.5,2.5,0,0,0,3.742-3.316,74.5,74.5,0,0,0-7.9-7.316c-.753-.63-1.464-1.226-2.083-1.764a2.444,2.444,0,0,1,0-3.774Z" transform="translate(-61)" fill="#fff"/>
        <path id="Path_503" data-name="Path 503" d="M209.7,134.279c.045-.039,1.79-1.538,3.777-3.3A2.276,2.276,0,0,0,212.013,127h-9.775a2.276,2.276,0,0,0-1.466,3.983c1.987,1.758,3.732,3.257,3.777,3.3A3.9,3.9,0,0,0,209.7,134.279Z" transform="translate(-182.625 -111.125)" fill="#fff"/>
      </g>
    </g>
  </g>
</svg>
